<svg width="158" height="158" viewBox="0 0 158 158" fill="none" xmlns="http://www.w3.org/2000/svg">
<g filter="url(#filter0_i_3_25)">
<rect width="158" height="157.7" rx="50" fill="white" fill-opacity="0.05"/>
</g>
<rect x="1" y="1" width="156" height="155.7" rx="49" stroke="url(#paint0_linear_3_25)" stroke-opacity="0.2" stroke-width="2"/>
<path d="M40 64.4295C40 84.7295 55.8742 95.547 67.4944 105.229C71.5949 108.646 75.5443 111.863 79.4937 111.863C83.443 111.863 87.3924 108.646 91.4929 105.229C103.113 95.547 118.987 84.7295 118.987 64.4295C118.987 44.1296 97.2652 29.7332 79.4937 49.2494C61.7222 29.7332 40 44.1296 40 64.4295Z" fill="url(#paint1_linear_3_25)"/>
<path d="M73.5684 94.4544C73.5684 104.04 81.1086 109.149 86.6282 113.721C88.576 115.334 90.4519 116.854 92.3279 116.854C94.2038 116.854 96.0798 115.334 98.0275 113.721C103.547 109.149 111.087 104.04 111.087 94.4544C111.087 84.8683 100.769 78.07 92.3279 87.286C83.8864 78.07 73.5684 84.8683 73.5684 94.4544Z" fill="url(#paint2_linear_3_25)"/>
<defs>
<filter id="filter0_i_3_25" x="0" y="0" width="158" height="162.7" filterUnits="userSpaceOnUse" color-interpolation-filters="sRGB">
<feFlood flood-opacity="0" result="BackgroundImageFix"/>
<feBlend mode="normal" in="SourceGraphic" in2="BackgroundImageFix" result="shape"/>
<feColorMatrix in="SourceAlpha" type="matrix" values="0 0 0 0 0 0 0 0 0 0 0 0 0 0 0 0 0 0 127 0" result="hardAlpha"/>
<feOffset dy="5"/>
<feGaussianBlur stdDeviation="7.5"/>
<feComposite in2="hardAlpha" operator="arithmetic" k2="-1" k3="1"/>
<feColorMatrix type="matrix" values="0 0 0 0 1 0 0 0 0 1 0 0 0 0 1 0 0 0 0.15 0"/>
<feBlend mode="normal" in2="shape" result="effect1_innerShadow_3_25"/>
</filter>
<linearGradient id="paint0_linear_3_25" x1="79" y1="0" x2="79" y2="157.7" gradientUnits="userSpaceOnUse">
<stop stop-color="white"/>
<stop offset="1" stop-color="white" stop-opacity="0.3"/>
</linearGradient>
<linearGradient id="paint1_linear_3_25" x1="48.715" y1="42.9695" x2="80.0557" y2="112.459" gradientUnits="userSpaceOnUse">
<stop stop-color="#711BDF"/>
<stop offset="0.711254" stop-color="#DB1BDF"/>
<stop offset="1" stop-color="white"/>
</linearGradient>
<linearGradient id="paint2_linear_3_25" x1="92.3279" y1="82.9182" x2="92.3279" y2="116.854" gradientUnits="userSpaceOnUse">
<stop stop-color="white" stop-opacity="0.6"/>
<stop offset="1" stop-color="white" stop-opacity="0.3"/>
</linearGradient>
</defs>
</svg>
