<svg width="158" height="158" viewBox="0 0 158 158" fill="none" xmlns="http://www.w3.org/2000/svg">
<g filter="url(#filter0_i_3_208)">
<rect y="0.301025" width="158" height="157.7" rx="50" fill="white" fill-opacity="0.05"/>
</g>
<rect x="1" y="1.30103" width="156" height="155.7" rx="49" stroke="url(#paint0_linear_3_208)" stroke-opacity="0.2" stroke-width="2"/>
<g filter="url(#filter1_d_3_208)">
<path d="M51.2586 69.9087C43.4156 66.7374 39.4941 65.1517 39.4941 63.1812C39.4941 61.2108 43.4156 59.6251 51.2586 56.4537L62.3503 51.9687C70.1933 48.7974 74.1148 47.2117 78.9878 47.2117C83.8608 47.2117 87.7823 48.7974 95.6253 51.9687L106.717 56.4537C114.56 59.6251 118.481 61.2108 118.481 63.1812C118.481 65.1517 114.56 66.7374 106.717 69.9087L95.6253 74.3938C87.7823 77.5651 83.8608 79.1508 78.9878 79.1508C74.1148 79.1508 70.1933 77.5651 62.3503 74.3938L51.2586 69.9087Z" fill="url(#paint1_linear_3_208)"/>
<path fill-rule="evenodd" clip-rule="evenodd" d="M39.4941 63.1812C39.4941 65.1517 43.4156 66.7374 51.2586 69.9087L62.3503 74.3938C70.1933 77.5651 74.1148 79.1508 78.9878 79.1508C83.8608 79.1508 87.7823 77.5651 95.6253 74.3938L106.717 69.9087C114.56 66.7374 118.481 65.1517 118.481 63.1812C118.481 61.2108 114.56 59.6251 106.717 56.4537L95.6253 51.9687C87.7823 48.7974 83.8608 47.2117 78.9878 47.2117C74.1148 47.2117 70.1933 48.7974 62.3503 51.9687L51.2586 56.4537C43.4156 59.6251 39.4941 61.2108 39.4941 63.1812Z" fill="url(#paint2_linear_3_208)"/>
<path d="M54.368 71.166L51.2586 72.4233C43.4156 75.5947 39.4941 77.1804 39.4941 79.1508C39.4941 81.1212 43.4156 82.7069 51.2586 85.8783L62.3503 90.3633C70.1933 93.5347 74.1148 95.1204 78.9878 95.1204C83.8608 95.1204 87.7823 93.5347 95.6253 90.3633L106.717 85.8783C114.56 82.7069 118.481 81.1212 118.481 79.1508C118.481 77.1804 114.56 75.5947 106.717 72.4233L103.608 71.166L95.6253 74.3937C87.7823 77.5651 83.8608 79.1508 78.9878 79.1508C74.1148 79.1508 70.1933 77.5651 62.3503 74.3937L54.368 71.166Z" fill="#FB5621"/>
<path d="M54.368 87.1356L51.2586 88.3928C43.4156 91.5642 39.4941 93.1499 39.4941 95.1203C39.4941 97.0908 43.4156 98.6765 51.2586 101.848L62.3503 106.333C70.1933 109.504 74.1148 111.09 78.9878 111.09C83.8608 111.09 87.7823 109.504 95.6253 106.333L106.717 101.848C114.56 98.6765 118.481 97.0908 118.481 95.1203C118.481 93.1499 114.56 91.5642 106.717 88.3928L103.608 87.1356L95.6253 90.3633C87.7823 93.5347 83.8608 95.1203 78.9878 95.1203C74.1148 95.1203 70.1933 93.5347 62.3503 90.3633L54.368 87.1356Z" fill="url(#paint3_linear_3_208)"/>
</g>
<defs>
<filter id="filter0_i_3_208" x="0" y="0.301025" width="158" height="162.7" filterUnits="userSpaceOnUse" color-interpolation-filters="sRGB">
<feFlood flood-opacity="0" result="BackgroundImageFix"/>
<feBlend mode="normal" in="SourceGraphic" in2="BackgroundImageFix" result="shape"/>
<feColorMatrix in="SourceAlpha" type="matrix" values="0 0 0 0 0 0 0 0 0 0 0 0 0 0 0 0 0 0 127 0" result="hardAlpha"/>
<feOffset dy="5"/>
<feGaussianBlur stdDeviation="7.5"/>
<feComposite in2="hardAlpha" operator="arithmetic" k2="-1" k3="1"/>
<feColorMatrix type="matrix" values="0 0 0 0 1 0 0 0 0 1 0 0 0 0 1 0 0 0 0.15 0"/>
<feBlend mode="normal" in2="shape" result="effect1_innerShadow_3_208"/>
</filter>
<filter id="filter1_d_3_208" x="35.4941" y="47.2117" width="86.9874" height="71.8782" filterUnits="userSpaceOnUse" color-interpolation-filters="sRGB">
<feFlood flood-opacity="0" result="BackgroundImageFix"/>
<feColorMatrix in="SourceAlpha" type="matrix" values="0 0 0 0 0 0 0 0 0 0 0 0 0 0 0 0 0 0 127 0" result="hardAlpha"/>
<feOffset dy="4"/>
<feGaussianBlur stdDeviation="2"/>
<feComposite in2="hardAlpha" operator="out"/>
<feColorMatrix type="matrix" values="0 0 0 0 0 0 0 0 0 0 0 0 0 0 0 0 0 0 0.25 0"/>
<feBlend mode="normal" in2="BackgroundImageFix" result="effect1_dropShadow_3_208"/>
<feBlend mode="normal" in="SourceGraphic" in2="effect1_dropShadow_3_208" result="shape"/>
</filter>
<linearGradient id="paint0_linear_3_208" x1="79" y1="0.301025" x2="79" y2="158.001" gradientUnits="userSpaceOnUse">
<stop stop-color="white"/>
<stop offset="1" stop-color="white" stop-opacity="0.3"/>
</linearGradient>
<linearGradient id="paint1_linear_3_208" x1="78.9878" y1="47.2117" x2="90.5555" y2="75.5705" gradientUnits="userSpaceOnUse">
<stop stop-color="#FA5521"/>
<stop offset="0.646973" stop-color="#FAB021"/>
<stop offset="0.973958" stop-color="white"/>
</linearGradient>
<linearGradient id="paint2_linear_3_208" x1="78.9878" y1="47.2117" x2="90.5555" y2="75.5705" gradientUnits="userSpaceOnUse">
<stop stop-color="#FA5521"/>
<stop offset="0.646973" stop-color="#FAB021"/>
<stop offset="0.973958" stop-color="white"/>
</linearGradient>
<linearGradient id="paint3_linear_3_208" x1="78.9878" y1="87.1356" x2="78.9878" y2="111.09" gradientUnits="userSpaceOnUse">
<stop stop-color="white" stop-opacity="0.8"/>
<stop offset="1" stop-color="white" stop-opacity="0.3"/>
</linearGradient>
</defs>
</svg>
