<svg width="158" height="159" viewBox="0 0 158 159" fill="none" xmlns="http://www.w3.org/2000/svg">
<g filter="url(#filter0_i_3_888)">
<rect y="0.65564" width="158" height="158" rx="50" fill="white" fill-opacity="0.05"/>
</g>
<rect x="1" y="1.65564" width="156" height="156" rx="49" stroke="url(#paint0_linear_3_888)" stroke-opacity="0.2" stroke-width="2"/>
<g filter="url(#filter1_d_3_888)">
<path d="M55 83.6556H103C110.542 83.6556 114.314 83.6556 116.657 85.9988C119 88.3419 119 92.1132 119 99.6556C119 107.198 119 110.969 116.657 113.312C114.314 115.656 110.542 115.656 103 115.656H55C47.4575 115.656 43.6863 115.656 41.3431 113.312C39 110.969 39 107.198 39 99.6556C39 92.1132 39 88.3419 41.3431 85.9988C43.6863 83.6556 47.4575 83.6556 55 83.6556Z" fill="url(#paint1_linear_3_888)"/>
<path d="M55 43.6556H103C110.542 43.6556 114.314 43.6556 116.657 45.9988C119 48.3419 119 52.1132 119 59.6556C119 67.1981 119 70.9693 116.657 73.3125C114.314 75.6556 110.542 75.6556 103 75.6556H55C47.4575 75.6556 43.6863 75.6556 41.3431 73.3125C39 70.9693 39 67.1981 39 59.6556C39 52.1132 39 48.3419 41.3431 45.9988C43.6863 43.6556 47.4575 43.6556 55 43.6556Z" fill="url(#paint2_linear_3_888)"/>
<path d="M72 59.6556C72 57.9988 73.3431 56.6556 75 56.6556H103C104.657 56.6556 106 57.9988 106 59.6556C106 61.3125 104.657 62.6556 103 62.6556H75C73.3431 62.6556 72 61.3125 72 59.6556Z" fill="white"/>
<path d="M52 59.6556C52 57.9988 53.3431 56.6556 55 56.6556H63C64.6569 56.6556 66 57.9988 66 59.6556C66 61.3125 64.6569 62.6556 63 62.6556H55C53.3431 62.6556 52 61.3125 52 59.6556Z" fill="white"/>
<path d="M72 99.6556C72 97.9988 73.3431 96.6556 75 96.6556H103C104.657 96.6556 106 97.9988 106 99.6556C106 101.312 104.657 102.656 103 102.656H75C73.3431 102.656 72 101.312 72 99.6556Z" fill="white"/>
<path d="M52 99.6556C52 97.9988 53.3431 96.6556 55 96.6556H63C64.6569 96.6556 66 97.9988 66 99.6556C66 101.312 64.6569 102.656 63 102.656H55C53.3431 102.656 52 101.312 52 99.6556Z" fill="white"/>
</g>
<defs>
<filter id="filter0_i_3_888" x="0" y="0.65564" width="158" height="163" filterUnits="userSpaceOnUse" color-interpolation-filters="sRGB">
<feFlood flood-opacity="0" result="BackgroundImageFix"/>
<feBlend mode="normal" in="SourceGraphic" in2="BackgroundImageFix" result="shape"/>
<feColorMatrix in="SourceAlpha" type="matrix" values="0 0 0 0 0 0 0 0 0 0 0 0 0 0 0 0 0 0 127 0" result="hardAlpha"/>
<feOffset dy="5"/>
<feGaussianBlur stdDeviation="7.5"/>
<feComposite in2="hardAlpha" operator="arithmetic" k2="-1" k3="1"/>
<feColorMatrix type="matrix" values="0 0 0 0 1 0 0 0 0 1 0 0 0 0 1 0 0 0 0.15 0"/>
<feBlend mode="normal" in2="shape" result="effect1_innerShadow_3_888"/>
</filter>
<filter id="filter1_d_3_888" x="35" y="43.6556" width="88" height="80" filterUnits="userSpaceOnUse" color-interpolation-filters="sRGB">
<feFlood flood-opacity="0" result="BackgroundImageFix"/>
<feColorMatrix in="SourceAlpha" type="matrix" values="0 0 0 0 0 0 0 0 0 0 0 0 0 0 0 0 0 0 127 0" result="hardAlpha"/>
<feOffset dy="4"/>
<feGaussianBlur stdDeviation="2"/>
<feComposite in2="hardAlpha" operator="out"/>
<feColorMatrix type="matrix" values="0 0 0 0 0 0 0 0 0 0 0 0 0 0 0 0 0 0 0.25 0"/>
<feBlend mode="normal" in2="BackgroundImageFix" result="effect1_dropShadow_3_888"/>
<feBlend mode="normal" in="SourceGraphic" in2="effect1_dropShadow_3_888" result="shape"/>
</filter>
<linearGradient id="paint0_linear_3_888" x1="79" y1="0.65564" x2="79" y2="158.656" gradientUnits="userSpaceOnUse">
<stop stop-color="white"/>
<stop offset="1" stop-color="white" stop-opacity="0.3"/>
</linearGradient>
<linearGradient id="paint1_linear_3_888" x1="41" y1="47.1556" x2="114.5" y2="115.656" gradientUnits="userSpaceOnUse">
<stop stop-color="#FF741B"/>
<stop offset="0.67719" stop-color="#FFBF1B"/>
<stop offset="0.94472" stop-color="white"/>
</linearGradient>
<linearGradient id="paint2_linear_3_888" x1="41" y1="47.1556" x2="114.5" y2="115.656" gradientUnits="userSpaceOnUse">
<stop stop-color="#FF741B"/>
<stop offset="0.67719" stop-color="#FFBF1B"/>
<stop offset="0.94472" stop-color="white"/>
</linearGradient>
</defs>
</svg>
