<svg width="425" height="425" viewBox="0 0 425 425" fill="none" xmlns="http://www.w3.org/2000/svg">
<g clip-path="url(#clip0_103_66)">
<mask id="mask0_103_66" style="mask-type:alpha" maskUnits="userSpaceOnUse" x="0" y="0" width="425" height="425">
<rect width="425" height="425" rx="212.5" fill="url(#paint0_linear_103_66)"/>
</mask>
<g mask="url(#mask0_103_66)">
<rect width="425" height="425" rx="212.5" fill="url(#paint1_linear_103_66)"/>
<g opacity="0.5" filter="url(#filter0_f_103_66)">
<path fill-rule="evenodd" clip-rule="evenodd" d="M212.5 425C329.861 425 425 329.861 425 212.5C425 95.1395 329.861 0 212.5 0C95.1395 0 0 95.1395 0 212.5C0 329.861 95.1395 425 212.5 425ZM212.5 411.719C322.525 411.719 411.719 322.525 411.719 212.5C411.719 102.475 322.525 13.2812 212.5 13.2812C102.475 13.2812 13.2812 102.475 13.2812 212.5C13.2812 322.525 102.475 411.719 212.5 411.719Z" fill="url(#paint2_linear_103_66)"/>
</g>
</g>
<path fill-rule="evenodd" clip-rule="evenodd" d="M161.382 104.33C127.247 103.114 101.953 111.451 95.6546 128.842C84.7718 158.742 134.016 204.118 205.661 230.184C277.293 256.256 344.189 253.162 355.072 223.262C361.401 205.872 347.378 183.245 320.459 162.23C318.124 163.852 315.351 165.221 312.091 166.071C299.278 169.457 276.402 169.066 233.575 153.489C190.755 137.893 172.981 123.488 165.341 112.658C163.549 110.138 162.214 107.321 161.4 104.337L161.382 104.33ZM232.76 195.997C232.182 197.754 231.257 199.377 230.04 200.769C228.823 202.162 227.338 203.296 225.674 204.103C224.01 204.911 222.201 205.376 220.354 205.471C218.507 205.565 216.659 205.288 214.921 204.655C213.184 204.021 211.591 203.045 210.237 201.784C208.884 200.524 207.798 199.004 207.044 197.315C206.289 195.626 205.882 193.803 205.846 191.954C205.81 190.104 206.146 188.267 206.834 186.55C208.131 183.171 210.703 180.436 213.997 178.935C217.29 177.434 221.041 177.287 224.442 178.525C227.843 179.763 230.622 182.287 232.18 185.554C233.738 188.821 233.938 192.574 232.76 195.997ZM154.952 167.656C156.67 168.343 158.508 168.678 160.357 168.64C162.206 168.603 164.029 168.195 165.717 167.439C167.405 166.684 168.925 165.596 170.184 164.242C171.444 162.888 172.419 161.295 173.051 159.556C173.683 157.818 173.959 155.97 173.863 154.123C173.767 152.276 173.301 150.467 172.492 148.804C171.683 147.141 170.549 145.657 169.155 144.44C167.762 143.224 166.138 142.3 164.381 141.724C160.958 140.545 157.21 140.758 153.944 142.316C150.677 143.874 148.152 146.653 146.915 150.054C145.677 153.455 145.824 157.206 147.325 160.5C148.826 163.793 151.561 166.365 154.94 167.662L154.952 167.656ZM302.363 206.612C301.743 208.316 300.794 209.881 299.57 211.218C298.346 212.555 296.87 213.638 295.227 214.405C293.584 215.172 291.806 215.607 289.995 215.687C288.183 215.767 286.374 215.489 284.67 214.87C282.966 214.25 281.401 213.301 280.064 212.077C278.727 210.852 277.644 209.376 276.877 207.734C276.11 206.091 275.674 204.313 275.595 202.501C275.515 200.69 275.793 198.881 276.412 197.177C277.664 193.736 280.23 190.932 283.548 189.384C286.866 187.835 290.664 187.668 294.105 188.919C297.546 190.17 300.35 192.737 301.898 196.055C303.447 199.373 303.614 203.17 302.363 206.612Z" fill="white"/>
<path opacity="0.5" d="M201.197 272.641C202.025 270.09 201.83 267.317 200.654 264.906C199.477 262.495 197.411 260.635 194.89 259.718C192.37 258.8 189.591 258.897 187.141 259.988C184.69 261.078 182.758 263.078 181.752 265.564L154.22 341.152C153.755 342.43 153.546 343.787 153.605 345.146C153.664 346.505 153.991 347.838 154.566 349.071C155.14 350.303 155.952 351.411 156.955 352.329C157.958 353.248 159.131 353.96 160.409 354.426C162.99 355.365 165.839 355.241 168.328 354.08C169.56 353.505 170.668 352.693 171.586 351.69C172.505 350.688 173.217 349.514 173.683 348.236L201.197 272.641Z" fill="white"/>
<path opacity="0.5" d="M181.521 99.3102C189.532 86.8469 201.544 77.4789 215.583 72.7451C229.622 68.0114 244.854 68.1934 258.777 73.2612L265.815 75.8125C279.736 80.8818 291.519 90.5351 299.229 103.187C306.939 115.838 310.116 130.736 308.24 145.432C307.783 145.706 307.291 145.915 306.778 146.053C300.047 147.82 282.018 149.069 240.641 134.019C199.27 118.951 186.267 106.418 182.242 100.726C181.937 100.29 181.694 99.8132 181.521 99.3102ZM128.395 230.376C129.077 227.716 128.674 224.893 127.274 222.529C125.875 220.165 123.594 218.454 120.933 217.772C118.273 217.09 115.45 217.493 113.086 218.893C110.722 220.292 109.011 222.573 108.329 225.234L96.3483 272.049C95.9893 273.373 95.8967 274.754 96.0761 276.114C96.2555 277.474 96.7033 278.784 97.3933 279.969C98.0834 281.154 99.002 282.19 100.096 283.017C101.19 283.845 102.437 284.446 103.765 284.787C105.094 285.128 106.476 285.202 107.833 285.004C109.19 284.806 110.494 284.341 111.67 283.635C112.846 282.929 113.869 281.996 114.681 280.891C115.494 279.786 116.078 278.531 116.401 277.198L128.395 230.376ZM278.5 275.112C279.727 275.699 280.826 276.523 281.734 277.536C282.642 278.548 283.342 279.73 283.793 281.013C284.245 282.297 284.439 283.656 284.364 285.014C284.29 286.373 283.948 287.703 283.36 288.929L262.451 332.506C261.863 333.732 261.039 334.83 260.026 335.738C259.013 336.646 257.832 337.346 256.549 337.797C253.957 338.708 251.11 338.553 248.634 337.365C246.157 336.177 244.254 334.054 243.342 331.463C242.431 328.871 242.586 326.024 243.774 323.547L264.689 279.983C265.275 278.756 266.098 277.657 267.11 276.748C268.122 275.839 269.303 275.138 270.585 274.686C271.868 274.233 273.227 274.038 274.585 274.111C275.943 274.184 277.274 274.524 278.5 275.112Z" fill="white"/>
</g>
<defs>
<filter id="filter0_f_103_66" x="-12" y="-12" width="449" height="449" filterUnits="userSpaceOnUse" color-interpolation-filters="sRGB">
<feFlood flood-opacity="0" result="BackgroundImageFix"/>
<feBlend mode="normal" in="SourceGraphic" in2="BackgroundImageFix" result="shape"/>
<feGaussianBlur stdDeviation="6" result="effect1_foregroundBlur_103_66"/>
</filter>
<linearGradient id="paint0_linear_103_66" x1="0" y1="0" x2="425" y2="425" gradientUnits="userSpaceOnUse">
<stop stop-color="#FF6363"/>
<stop offset="1" stop-color="#D72A2A"/>
</linearGradient>
<linearGradient id="paint1_linear_103_66" x1="0" y1="0" x2="425" y2="425" gradientUnits="userSpaceOnUse">
<stop stop-color="#AE55F4"/>
<stop offset="1" stop-color="#6A18BC"/>
</linearGradient>
<linearGradient id="paint2_linear_103_66" x1="0" y1="0" x2="425" y2="425" gradientUnits="userSpaceOnUse">
<stop stop-color="white"/>
<stop offset="1" stop-color="white" stop-opacity="0"/>
</linearGradient>
<clipPath id="clip0_103_66">
<rect width="425" height="425" fill="white"/>
</clipPath>
</defs>
</svg>
