<svg width="1000" height="1000" viewBox="0 0 1000 1000" fill="none" xmlns="http://www.w3.org/2000/svg">
<path d="M523.031 551.021C515.551 567.821 492.541 573.894 471.636 564.587C450.732 555.28 439.849 534.116 447.328 517.316C454.808 500.516 477.818 494.443 498.723 503.75C519.627 513.057 530.511 534.221 523.031 551.021Z" fill="url(#paint0_linear_165_1165)"/>
<path d="M523.031 551.021C515.551 567.821 492.541 573.894 471.636 564.587C450.732 555.28 439.849 534.116 447.328 517.316C454.808 500.516 477.818 494.443 498.723 503.75C519.627 513.057 530.511 534.221 523.031 551.021Z" fill="url(#paint1_radial_165_1165)" style="mix-blend-mode:soft-light"/>
<path d="M648.203 623.465C670.089 629.738 691.92 620.57 696.964 602.986C702.008 585.403 688.354 566.063 666.469 559.79C644.583 553.517 622.752 562.685 617.708 580.269C612.664 597.852 626.317 617.192 648.203 623.465Z" fill="url(#paint2_linear_165_1165)"/>
<path d="M648.203 623.465C670.089 629.738 691.92 620.57 696.964 602.986C702.008 585.403 688.354 566.063 666.469 559.79C644.583 553.517 622.752 562.685 617.708 580.269C612.664 597.852 626.317 617.192 648.203 623.465Z" fill="url(#paint3_radial_165_1165)" style="mix-blend-mode:soft-light"/>
<path d="M344.727 416.541C364.034 428.608 371.828 450.966 362.136 466.48C352.444 481.994 328.936 484.789 309.63 472.722C290.323 460.655 282.529 438.297 292.221 422.783C301.913 407.269 325.421 404.474 344.727 416.541Z" fill="url(#paint4_linear_165_1165)"/>
<path d="M344.727 416.541C364.034 428.608 371.828 450.966 362.136 466.48C352.444 481.994 328.936 484.789 309.63 472.722C290.323 460.655 282.529 438.297 292.221 422.783C301.913 407.269 325.421 404.474 344.727 416.541Z" fill="url(#paint5_radial_165_1165)" style="mix-blend-mode:soft-light"/>
<path fill-rule="evenodd" clip-rule="evenodd" d="M606.694 261.156C705.466 305.132 768.869 401.078 771.398 508.288C829.541 554.049 887.323 618.103 860.45 678.46C830.313 746.149 722.978 743.364 600.976 709.111C542.209 741.648 469.305 747.21 403.361 717.85C337.417 688.49 292.786 630.636 277.624 565.146C170.534 497.401 96.6439 419.498 126.781 351.809C153.654 291.453 239.918 291.532 312.831 304.121C394.195 234.263 507.922 217.18 606.694 261.156ZM177.975 374.602C163.334 407.486 241.972 500.816 457.306 596.688C672.639 692.561 794.616 688.551 809.256 655.667C821.374 628.45 771.516 576.135 714.421 535.598C670.011 503.855 609.18 468.867 529.83 433.538C508.232 423.923 499.798 398.26 508.88 377.864C517.961 357.467 537.911 343.829 579.913 341.888C599.684 341.828 602.278 336.345 603.182 331.645C604.302 324.394 594.251 317.003 583.885 312.387C501.463 275.691 400.566 291.081 330.629 364.722C262.3 349.417 190.092 347.386 177.975 374.602Z" fill="url(#paint6_linear_165_1165)"/>
<path fill-rule="evenodd" clip-rule="evenodd" d="M606.694 261.156C705.466 305.132 768.869 401.078 771.398 508.288C829.541 554.049 887.323 618.103 860.45 678.46C830.313 746.149 722.978 743.364 600.976 709.111C542.209 741.648 469.305 747.21 403.361 717.85C337.417 688.49 292.786 630.636 277.624 565.146C170.534 497.401 96.6439 419.498 126.781 351.809C153.654 291.453 239.918 291.532 312.831 304.121C394.195 234.263 507.922 217.18 606.694 261.156ZM177.975 374.602C163.334 407.486 241.972 500.816 457.306 596.688C672.639 692.561 794.616 688.551 809.256 655.667C821.374 628.45 771.516 576.135 714.421 535.598C670.011 503.855 609.18 468.867 529.83 433.538C508.232 423.923 499.798 398.26 508.88 377.864C517.961 357.467 537.911 343.829 579.913 341.888C599.684 341.828 602.278 336.345 603.182 331.645C604.302 324.394 594.251 317.003 583.885 312.387C501.463 275.691 400.566 291.081 330.629 364.722C262.3 349.417 190.092 347.386 177.975 374.602Z" fill="url(#paint7_radial_165_1165)" style="mix-blend-mode:soft-light"/>
<defs>
<linearGradient id="paint0_linear_165_1165" x1="493.616" y1="237" x2="493.616" y2="737" gradientUnits="userSpaceOnUse">
<stop stop-color="#8976FF"/>
<stop offset="1" stop-color="#6D56FD"/>
</linearGradient>
<radialGradient id="paint1_radial_165_1165" cx="0" cy="0" r="1" gradientUnits="userSpaceOnUse" gradientTransform="translate(684.967 321.323) rotate(151.299) scale(731.76 556.998)">
<stop offset="0.271562" stop-color="white"/>
<stop offset="1" stop-color="white" stop-opacity="0"/>
<stop offset="1" stop-color="white" stop-opacity="0"/>
</radialGradient>
<linearGradient id="paint2_linear_165_1165" x1="493.616" y1="237" x2="493.616" y2="737" gradientUnits="userSpaceOnUse">
<stop stop-color="#8976FF"/>
<stop offset="1" stop-color="#6D56FD"/>
</linearGradient>
<radialGradient id="paint3_radial_165_1165" cx="0" cy="0" r="1" gradientUnits="userSpaceOnUse" gradientTransform="translate(684.967 321.323) rotate(151.299) scale(731.76 556.998)">
<stop offset="0.271562" stop-color="white"/>
<stop offset="1" stop-color="white" stop-opacity="0"/>
<stop offset="1" stop-color="white" stop-opacity="0"/>
</radialGradient>
<linearGradient id="paint4_linear_165_1165" x1="493.616" y1="237" x2="493.616" y2="737" gradientUnits="userSpaceOnUse">
<stop stop-color="#8976FF"/>
<stop offset="1" stop-color="#6D56FD"/>
</linearGradient>
<radialGradient id="paint5_radial_165_1165" cx="0" cy="0" r="1" gradientUnits="userSpaceOnUse" gradientTransform="translate(684.967 321.323) rotate(151.299) scale(731.76 556.998)">
<stop offset="0.271562" stop-color="white"/>
<stop offset="1" stop-color="white" stop-opacity="0"/>
<stop offset="1" stop-color="white" stop-opacity="0"/>
</radialGradient>
<linearGradient id="paint6_linear_165_1165" x1="493.616" y1="237" x2="493.616" y2="737" gradientUnits="userSpaceOnUse">
<stop stop-color="#8976FF"/>
<stop offset="1" stop-color="#6D56FD"/>
</linearGradient>
<radialGradient id="paint7_radial_165_1165" cx="0" cy="0" r="1" gradientUnits="userSpaceOnUse" gradientTransform="translate(684.967 321.323) rotate(151.299) scale(731.76 556.998)">
<stop offset="0.271562" stop-color="white"/>
<stop offset="1" stop-color="white" stop-opacity="0"/>
<stop offset="1" stop-color="white" stop-opacity="0"/>
</radialGradient>
</defs>
</svg>
