<svg width="426" height="426" viewBox="0 0 426 426" fill="none" xmlns="http://www.w3.org/2000/svg">
<path fill-rule="evenodd" clip-rule="evenodd" d="M151.418 82.9778C110.295 81.5121 79.8233 91.5561 72.2354 112.507C59.1248 148.528 118.449 203.193 204.76 234.595C291.056 266.004 371.646 262.277 384.757 226.255C392.382 205.306 375.488 178.047 343.059 152.729C340.245 154.684 336.904 156.333 332.978 157.357C317.541 161.436 289.983 160.966 238.389 142.2C186.804 123.411 165.391 106.058 156.188 93.0102C154.028 89.974 152.42 86.5805 151.44 82.9859L151.418 82.9778ZM237.407 193.409C236.711 195.525 235.597 197.481 234.13 199.158C232.664 200.836 230.875 202.202 228.871 203.175C226.866 204.148 224.686 204.708 222.461 204.822C220.236 204.936 218.01 204.602 215.917 203.839C213.823 203.076 211.904 201.9 210.274 200.381C208.644 198.863 207.335 197.031 206.427 194.997C205.518 192.963 205.027 190.766 204.984 188.538C204.941 186.311 205.345 184.097 206.174 182.028C207.737 177.958 210.835 174.663 214.803 172.855C218.77 171.047 223.289 170.869 227.387 172.36C231.484 173.852 234.832 176.893 236.709 180.828C238.586 184.764 238.827 189.286 237.407 193.409ZM143.672 159.267C145.741 160.094 147.955 160.498 150.182 160.453C152.41 160.408 154.606 159.916 156.64 159.005C158.674 158.095 160.504 156.786 162.022 155.154C163.54 153.523 164.714 151.603 165.475 149.509C166.237 147.415 166.57 145.189 166.454 142.964C166.338 140.739 165.777 138.559 164.802 136.555C163.828 134.552 162.461 132.764 160.782 131.299C159.103 129.834 157.147 128.721 155.03 128.026C150.907 126.606 146.392 126.862 142.456 128.739C138.521 130.616 135.48 133.964 133.989 138.061C132.497 142.159 132.675 146.678 134.483 150.645C136.292 154.613 139.586 157.712 143.657 159.274L143.672 159.267ZM321.258 206.197C320.512 208.25 319.369 210.135 317.893 211.746C316.418 213.357 314.64 214.662 312.661 215.585C310.682 216.509 308.54 217.034 306.358 217.13C304.176 217.226 301.996 216.892 299.944 216.145C297.891 215.399 296.005 214.256 294.394 212.781C292.783 211.305 291.479 209.528 290.555 207.548C289.631 205.569 289.106 203.427 289.01 201.245C288.914 199.063 289.249 196.883 289.995 194.831C291.503 190.685 294.595 187.308 298.592 185.442C302.589 183.576 307.164 183.375 311.31 184.882C315.456 186.39 318.833 189.482 320.698 193.479C322.564 197.477 322.765 202.051 321.258 206.197Z" fill="#222326"/>
<path opacity="0.5" d="M199.383 285.743C200.38 282.669 200.146 279.329 198.729 276.424C197.312 273.52 194.822 271.279 191.786 270.174C188.749 269.069 185.402 269.185 182.45 270.499C179.497 271.813 177.17 274.222 175.958 277.217L142.79 368.279C142.229 369.818 141.978 371.453 142.049 373.09C142.121 374.726 142.514 376.333 143.206 377.818C143.898 379.303 144.877 380.637 146.084 381.744C147.292 382.85 148.706 383.709 150.246 384.269C153.355 385.401 156.787 385.251 159.786 383.852C161.27 383.16 162.604 382.182 163.711 380.974C164.818 379.766 165.676 378.352 166.236 376.812L199.383 285.743Z" fill="#222326"/>
<path opacity="0.5" d="M175.679 76.9302C185.33 61.9156 199.801 50.63 216.714 44.9272C233.628 39.2244 251.978 39.4436 268.75 45.5489L277.229 48.6224C294 54.7294 308.195 66.3588 317.483 81.6002C326.771 96.8417 330.599 114.789 328.338 132.493C327.789 132.823 327.196 133.075 326.577 133.241C318.469 135.371 296.749 136.875 246.901 118.745C197.061 100.592 181.397 85.4931 176.548 78.6353C176.18 78.1102 175.888 77.5363 175.679 76.9302ZM111.678 234.826C112.5 231.621 112.014 228.22 110.328 225.373C108.643 222.525 105.895 220.464 102.689 219.642C99.4838 218.821 96.0832 219.306 93.2356 220.992C90.388 222.678 88.3267 225.425 87.5051 228.631L73.0715 285.03C72.639 286.624 72.5275 288.289 72.7436 289.927C72.9597 291.565 73.4991 293.143 74.3304 294.571C75.1617 295.999 76.2684 297.247 77.5862 298.243C78.904 299.24 80.4066 299.964 82.0067 300.375C83.6069 300.786 85.2728 300.875 86.9076 300.637C88.5424 300.398 90.1135 299.838 91.5298 298.987C92.946 298.136 94.1792 297.013 95.1576 295.682C96.136 294.35 96.8402 292.838 97.2293 291.233L111.678 234.826ZM292.511 288.719C293.989 289.427 295.313 290.42 296.407 291.64C297.501 292.86 298.344 294.283 298.888 295.829C299.431 297.375 299.665 299.013 299.575 300.649C299.486 302.285 299.074 303.888 298.365 305.365L273.176 357.862C272.468 359.34 271.475 360.663 270.255 361.757C269.035 362.85 267.612 363.693 266.066 364.237C262.944 365.334 259.514 365.147 256.53 363.716C253.547 362.285 251.254 359.727 250.156 356.606C249.058 353.484 249.245 350.054 250.677 347.07L275.872 294.588C276.579 293.11 277.57 291.786 278.789 290.69C280.008 289.595 281.43 288.751 282.976 288.206C284.521 287.661 286.158 287.426 287.794 287.514C289.431 287.602 291.033 288.012 292.511 288.719Z" fill="#222326"/>
</svg>
