<svg width="748" height="500" viewBox="0 0 748 500" fill="none" xmlns="http://www.w3.org/2000/svg">
<g clip-path="url(#clip0_189_1039)">
<path d="M403.265 314.021C395.786 330.821 372.775 336.894 351.871 327.587C330.966 318.28 320.083 297.116 327.563 280.316C335.042 263.516 358.052 257.443 378.957 266.75C399.862 276.057 410.745 297.221 403.265 314.021Z" fill="white"/>
<path d="M528.438 386.465C550.323 392.738 572.154 383.57 577.198 365.986C582.242 348.403 568.589 329.063 546.703 322.79C524.817 316.517 502.986 325.685 497.942 343.269C492.898 360.852 506.552 380.192 528.438 386.465Z" fill="white"/>
<path d="M224.962 179.541C244.268 191.608 252.062 213.966 242.37 229.48C232.678 244.994 209.17 247.789 189.864 235.722C170.557 223.655 162.763 201.297 172.455 185.783C182.147 170.269 205.655 167.474 224.962 179.541Z" fill="white"/>
<path fill-rule="evenodd" clip-rule="evenodd" d="M486.928 24.1562C585.7 68.1322 649.103 164.078 651.632 271.288C709.776 317.049 767.557 381.103 740.684 441.46C710.547 509.149 603.212 506.364 481.211 472.111C422.444 504.648 349.539 510.21 283.595 480.85C217.652 451.49 173.02 393.636 157.859 328.146C50.7688 260.401 -23.1217 182.498 7.01546 114.809C33.888 54.4527 120.153 54.532 193.065 67.1208C274.43 -2.73712 388.157 -19.8198 486.928 24.1562ZM58.2091 137.602C43.5682 170.486 122.207 263.816 337.54 359.688C552.873 455.561 674.85 451.551 689.491 418.667C701.608 391.45 651.751 339.135 594.656 298.598C550.245 266.855 489.414 231.867 410.064 196.538C388.467 186.923 380.033 161.26 389.114 140.864C398.195 120.467 418.146 106.829 460.147 104.888C479.918 104.828 482.513 99.3455 483.417 94.6453C484.537 87.3938 474.486 80.0029 464.119 75.3874C381.697 38.6908 280.8 54.0811 210.863 127.722C142.534 112.417 70.3267 110.386 58.2091 137.602Z" fill="white"/>
</g>
<defs>
<clipPath id="clip0_189_1039">
<rect width="747.233" height="500" fill="white" transform="translate(0.234375)"/>
</clipPath>
</defs>
</svg>
