<svg width="512" height="512" viewBox="0 0 512 512" fill="none" xmlns="http://www.w3.org/2000/svg">
<g clip-path="url(#clip0_1_48)">
<mask id="mask0_1_48" style="mask-type:alpha" maskUnits="userSpaceOnUse" x="0" y="0" width="512" height="512">
<rect width="512" height="512" rx="256" fill="url(#paint0_linear_1_48)"/>
</mask>
<g mask="url(#mask0_1_48)">
<rect width="512" height="512" rx="256" fill="url(#paint1_linear_1_48)"/>
<g opacity="0.5" filter="url(#filter0_f_1_48)">
<path fill-rule="evenodd" clip-rule="evenodd" d="M256 512C397.385 512 512 397.385 512 256C512 114.615 397.385 0 256 0C114.615 0 0 114.615 0 256C0 397.385 114.615 512 256 512ZM256 496C388.548 496 496 388.548 496 256C496 123.452 388.548 16 256 16C123.452 16 16 123.452 16 256C16 388.548 123.452 496 256 496Z" fill="url(#paint2_linear_1_48)"/>
</g>
</g>
<path fill-rule="evenodd" clip-rule="evenodd" d="M194.418 125.687C153.295 124.221 122.823 134.265 115.235 155.216C102.125 191.237 161.449 245.902 247.76 277.304C334.056 308.713 414.646 304.986 427.757 268.965C435.382 248.015 418.488 220.756 386.059 195.439C383.245 197.393 379.904 199.043 375.978 200.066C360.541 204.145 332.983 203.675 281.389 184.909C229.804 166.121 208.391 148.767 199.188 135.72C197.028 132.683 195.42 129.29 194.44 125.695L194.418 125.687ZM280.407 236.118C279.711 238.235 278.597 240.19 277.13 241.868C275.664 243.546 273.875 244.911 271.871 245.884C269.866 246.857 267.686 247.417 265.461 247.532C263.236 247.646 261.01 247.311 258.917 246.548C256.823 245.786 254.904 244.61 253.274 243.091C251.644 241.572 250.335 239.741 249.427 237.706C248.518 235.672 248.027 233.476 247.984 231.248C247.941 229.02 248.345 226.806 249.174 224.738C250.737 220.667 253.835 217.373 257.803 215.564C261.77 213.756 266.289 213.579 270.387 215.07C274.484 216.561 277.832 219.602 279.709 223.538C281.586 227.473 281.827 231.996 280.407 236.118ZM186.672 201.976C188.741 202.804 190.955 203.207 193.182 203.162C195.41 203.117 197.606 202.625 199.64 201.715C201.674 200.805 203.504 199.495 205.022 197.864C206.54 196.232 207.714 194.312 208.475 192.218C209.237 190.124 209.57 187.898 209.454 185.673C209.338 183.448 208.777 181.269 207.802 179.265C206.828 177.261 205.461 175.473 203.782 174.008C202.103 172.543 200.147 171.43 198.03 170.736C193.907 169.316 189.392 169.572 185.456 171.449C181.521 173.326 178.48 176.673 176.989 180.771C175.497 184.868 175.675 189.387 177.483 193.355C179.292 197.322 182.586 200.421 186.657 201.983L186.672 201.976ZM364.258 248.906C363.512 250.959 362.369 252.845 360.893 254.456C359.418 256.066 357.64 257.371 355.661 258.295C353.682 259.219 351.54 259.744 349.358 259.84C347.176 259.936 344.996 259.601 342.944 258.855C340.891 258.108 339.005 256.965 337.394 255.49C335.783 254.015 334.479 252.237 333.555 250.258C332.631 248.278 332.106 246.137 332.01 243.955C331.914 241.772 332.249 239.593 332.995 237.54C334.503 233.394 337.595 230.017 341.592 228.152C345.589 226.286 350.164 226.085 354.31 227.592C358.456 229.099 361.833 232.191 363.698 236.189C365.564 240.186 365.765 244.761 364.258 248.906Z" fill="white"/>
<path opacity="0.5" d="M242.383 328.453C243.38 325.379 243.146 322.038 241.728 319.134C240.311 316.23 237.822 313.989 234.786 312.884C231.749 311.778 228.402 311.895 225.449 313.209C222.497 314.523 220.17 316.931 218.958 319.927L185.789 410.988C185.229 412.528 184.977 414.162 185.049 415.799C185.12 417.436 185.514 419.043 186.206 420.528C186.898 422.012 187.876 423.346 189.084 424.453C190.292 425.56 191.706 426.418 193.246 426.978C196.355 428.11 199.787 427.96 202.785 426.562C204.27 425.87 205.604 424.891 206.711 423.684C207.818 422.476 208.676 421.062 209.236 419.522L242.383 328.453Z" fill="white"/>
<path opacity="0.5" d="M218.68 119.64C228.331 104.625 242.801 93.3394 259.715 87.6366C276.628 81.9338 294.978 82.153 311.75 88.2583L320.229 91.3318C337 97.4388 351.195 109.068 360.483 124.31C369.771 139.551 373.599 157.498 371.338 175.203C370.789 175.533 370.196 175.784 369.577 175.951C361.469 178.08 339.749 179.585 289.901 161.454C240.061 143.301 224.397 128.203 219.548 121.345C219.181 120.82 218.888 120.246 218.68 119.64ZM154.678 277.536C155.5 274.33 155.014 270.93 153.329 268.082C151.643 265.235 148.895 263.173 145.689 262.352C142.484 261.53 139.083 262.016 136.236 263.701C133.388 265.387 131.327 268.135 130.505 271.34L116.072 327.739C115.639 329.334 115.528 330.998 115.744 332.636C115.96 334.274 116.499 335.853 117.331 337.28C118.162 338.708 119.269 339.956 120.586 340.953C121.904 341.949 123.407 342.674 125.007 343.085C126.607 343.496 128.273 343.584 129.908 343.346C131.542 343.108 133.114 342.547 134.53 341.696C135.946 340.846 137.179 339.722 138.158 338.391C139.136 337.06 139.84 335.548 140.229 333.942L154.678 277.536ZM335.511 331.429C336.989 332.137 338.313 333.129 339.407 334.349C340.501 335.569 341.344 336.993 341.888 338.539C342.431 340.084 342.665 341.722 342.575 343.359C342.486 344.995 342.075 346.597 341.365 348.075L316.176 400.572C315.468 402.049 314.475 403.372 313.255 404.466C312.035 405.56 310.612 406.402 309.066 406.946C305.944 408.044 302.514 407.857 299.531 406.426C296.547 404.994 294.254 402.437 293.156 399.315C292.058 396.193 292.246 392.763 293.677 389.78L318.872 337.298C319.579 335.819 320.57 334.495 321.789 333.4C323.008 332.305 324.431 331.461 325.976 330.916C327.521 330.371 329.158 330.135 330.795 330.223C332.431 330.311 334.034 330.721 335.511 331.429Z" fill="white"/>
</g>
<defs>
<filter id="filter0_f_1_48" x="-12" y="-12" width="536" height="536" filterUnits="userSpaceOnUse" color-interpolation-filters="sRGB">
<feFlood flood-opacity="0" result="BackgroundImageFix"/>
<feBlend mode="normal" in="SourceGraphic" in2="BackgroundImageFix" result="shape"/>
<feGaussianBlur stdDeviation="6" result="effect1_foregroundBlur_1_48"/>
</filter>
<linearGradient id="paint0_linear_1_48" x1="0" y1="0" x2="512" y2="512" gradientUnits="userSpaceOnUse">
<stop stop-color="#FF6363"/>
<stop offset="1" stop-color="#D72A2A"/>
</linearGradient>
<linearGradient id="paint1_linear_1_48" x1="0" y1="0" x2="512" y2="512" gradientUnits="userSpaceOnUse">
<stop stop-color="#AE55F4"/>
<stop offset="1" stop-color="#6A18BC"/>
</linearGradient>
<linearGradient id="paint2_linear_1_48" x1="0" y1="0" x2="512" y2="512" gradientUnits="userSpaceOnUse">
<stop stop-color="white"/>
<stop offset="1" stop-color="white" stop-opacity="0"/>
</linearGradient>
<clipPath id="clip0_1_48">
<rect width="512" height="512" fill="white"/>
</clipPath>
</defs>
</svg>
