<svg xmlns="http://www.w3.org/2000/svg" xmlns:xlink="http://www.w3.org/1999/xlink" style="width: 100%; height: 100%" viewBox="0 0 112 112" preserveAspectRatio="none" width="112" height="112"><defs><svg width="112" height="112" fill="none" xmlns="http://www.w3.org/2000/svg" id="svg736096593_11839"><g clip-path="url(#svg736096593_11839_a)" fill="none"><mask id="svg736096593_11839_c" fill="#FFFFFF"><path d="M52.383 39.782a2.804 2.804 0 0 0-3.965-3.964l-7.907 7.907-2.224-2.027a2.8 2.8 0 0 0-3.774 4.133l4.2 3.835a2.8 2.8 0 0 0 3.864-.09l9.8-9.8.005.006Zm0 24.036a2.798 2.798 0 0 1 0 3.965l-9.8 9.8a2.8 2.8 0 0 1-3.87.084l-4.2-3.837a2.8 2.8 0 0 1 3.774-4.132l2.224 2.033 7.907-7.913a2.797 2.797 0 0 1 3.965 0ZM61.6 67.2a2.8 2.8 0 1 0 0 5.6h9.352A16.87 16.87 0 0 1 70 67.2h-8.4Zm-28 22.4h28.28c-.185.907-.28 1.843-.28 2.8 0 .935.073 1.87.213 2.8H33.6a16.8 16.8 0 0 1-16.8-16.8V33.6a16.8 16.8 0 0 1 16.8-16.8h44.8a16.8 16.8 0 0 1 16.8 16.8v19.046a16.687 16.687 0 0 0-5.6-2.016V33.6a11.2 11.2 0 0 0-11.2-11.2H33.6a11.2 11.2 0 0 0-11.2 11.2v44.8a11.2 11.2 0 0 0 11.2 11.2ZM58.8 42a2.8 2.8 0 0 1 2.8-2.8h14a2.8 2.8 0 0 1 0 5.6h-14a2.8 2.8 0 0 1-2.8-2.8Z" fill="#FFFFFF"></path></mask><path d="M52.383 39.782a2.804 2.804 0 0 0-3.965-3.964l-7.907 7.907-2.224-2.027a2.8 2.8 0 0 0-3.774 4.133l4.2 3.835a2.8 2.8 0 0 0 3.864-.09l9.8-9.8.005.006Zm0 24.036a2.798 2.798 0 0 1 0 3.965l-9.8 9.8a2.8 2.8 0 0 1-3.87.084l-4.2-3.837a2.8 2.8 0 0 1 3.774-4.132l2.224 2.033 7.907-7.913a2.797 2.797 0 0 1 3.965 0ZM61.6 67.2a2.8 2.8 0 1 0 0 5.6h9.352A16.87 16.87 0 0 1 70 67.2h-8.4Zm-28 22.4h28.28c-.185.907-.28 1.843-.28 2.8 0 .935.073 1.87.213 2.8H33.6a16.8 16.8 0 0 1-16.8-16.8V33.6a16.8 16.8 0 0 1 16.8-16.8h44.8a16.8 16.8 0 0 1 16.8 16.8v19.046a16.687 16.687 0 0 0-5.6-2.016V33.6a11.2 11.2 0 0 0-11.2-11.2H33.6a11.2 11.2 0 0 0-11.2 11.2v44.8a11.2 11.2 0 0 0 11.2 11.2ZM58.8 42a2.8 2.8 0 0 1 2.8-2.8h14a2.8 2.8 0 0 1 0 5.6h-14a2.8 2.8 0 0 1-2.8-2.8Z" fill="#171923" fill-opacity="0.2"></path><path d="m52.383 39.782-5.965 5.965 5.965 5.965 5.964-5.965-5.965-5.965Zm-3.965-3.964-5.965-5.965 5.965 5.965Zm-7.907 7.907-5.684 6.233 5.952 5.428 5.696-5.696-5.965-5.965Zm-2.224-2.027 5.684-6.234-.1-.09-.103-.089-5.48 6.413Zm-3.774 4.133-5.89 6.038.099.097.102.093 5.689-6.228Zm4.2 3.835-5.689 6.23.01.008 5.679-6.238Zm3.864-.09 5.962 5.968.003-.002-5.965-5.965Zm9.8-9.8 5.965-5.964-5.965-5.965-5.965 5.965 5.965 5.965Zm.005 24.042-5.972 5.957.008.007.007.008 5.958-5.972Zm0 3.965-5.957-5.973-.007.008 5.965 5.965Zm-9.8 9.8 5.962 5.968.003-.004-5.964-5.965Zm-3.87.084 5.697-6.222-.007-.007-5.69 6.228Zm-4.2-3.837-5.89 6.039.1.097.102.093 5.689-6.228Zm3.775-4.132 5.693-6.226-.105-.095-.107-.092-5.48 6.413Zm2.224 2.033-5.693 6.225 5.955 5.445 5.704-5.708-5.966-5.962Zm7.907-7.913 5.967 5.962.005-.005-5.972-5.957ZM70.952 72.8v8.436h11.906L78.91 70.003 70.952 72.8ZM70 67.2h8.436v-8.436H70V67.2Zm-8.12 22.4 8.266 1.684 2.061-10.12H61.88V89.6Zm-.067 5.6v8.436h9.801l-1.46-9.692-8.341 1.256Zm-28.213 0v8.436V95.2ZM16.8 78.4H8.364 16.8Zm0-44.8H8.364 16.8Zm16.8-16.8V8.364 16.8Zm61.6 35.846-4.227 7.3 12.663 7.332V52.646H95.2Zm-5.6-2.016h-8.435v7.137l7.039 1.182 1.396-8.32ZM78.4 22.4v-8.435V22.4Zm-44.8 0v-8.435V22.4ZM22.4 33.6h-8.435H22.4Zm0 44.8h-8.435H22.4Zm35.947-32.653A11.24 11.24 0 0 0 61.64 37.8H44.768c0-1.494.593-2.926 1.65-3.982l11.93 11.93ZM61.64 37.8c0-2.98-1.184-5.84-3.292-7.947l-11.93 11.93a5.632 5.632 0 0 1-1.649-3.983H61.64Zm-3.292-7.947A11.239 11.239 0 0 0 50.4 26.56v16.871a5.632 5.632 0 0 1-3.982-1.65l11.93-11.93ZM50.4 26.56a11.24 11.24 0 0 0-7.947 3.292l11.93 11.93a5.632 5.632 0 0 1-3.983 1.65V26.56Zm-7.947 3.292-7.907 7.907 11.93 11.93 7.907-7.907-11.93-11.93Zm3.741 7.639-2.223-2.028L32.604 47.93l2.223 2.027 11.367-12.466Zm-2.426-2.207a11.236 11.236 0 0 0-7.993-2.673l1.04 16.839a5.635 5.635 0 0 1-4.009-1.341l10.962-12.825Zm-7.993-2.673a11.236 11.236 0 0 0-7.603 3.637l12.457 11.377a5.635 5.635 0 0 1-3.813 1.825l-1.041-16.84Zm-7.603 3.637a11.236 11.236 0 0 0-2.935 7.901l16.864-.486a5.635 5.635 0 0 1-1.472 3.962L28.172 36.25Zm-2.935 7.901a11.235 11.235 0 0 0 3.386 7.719l11.78-12.077a5.635 5.635 0 0 1 1.698 3.871l-16.864.487Zm3.587 7.91 4.2 3.835 11.378-12.457-4.2-3.836-11.378 12.457Zm4.21 3.844a11.236 11.236 0 0 0 7.824 2.925l-.39-16.867a5.636 5.636 0 0 1 3.924 1.467L33.034 55.904Zm7.824 2.925a11.236 11.236 0 0 0 7.68-3.285L36.616 43.61a5.635 5.635 0 0 1 3.852-1.647l.391 16.867Zm7.684-3.287 9.8-9.8-11.93-11.93-9.8 9.8 11.93 11.93Zm-2.13-9.8.006.005 11.93-11.93-.006-.005-11.93 11.93Zm.013 24.048a5.635 5.635 0 0 1-1.225-1.83l15.583-6.466a11.235 11.235 0 0 0-2.443-3.649L46.425 69.79ZM45.2 67.96a5.636 5.636 0 0 1-.43-2.16h16.87c0-1.478-.29-2.941-.857-4.306L45.2 67.96Zm-.43-2.16c0-.741.146-1.475.43-2.16l15.583 6.466c.566-1.365.858-2.828.858-4.306H44.77Zm.43-2.16c.284-.684.7-1.306 1.225-1.83L58.34 73.755a11.234 11.234 0 0 0 2.443-3.649L45.2 63.64Zm1.218-1.822-9.8 9.8 11.93 11.93 9.8-9.8-11.93-11.93Zm-9.797 9.796a5.635 5.635 0 0 1 3.86-1.647l.367 16.867a11.235 11.235 0 0 0 7.696-3.283L36.62 71.614Zm3.86-1.647a5.636 5.636 0 0 1 3.928 1.478L33.017 83.888a11.235 11.235 0 0 0 7.832 2.946l-.367-16.867Zm3.92 1.47-4.2-3.835-11.377 12.457 4.2 3.836 11.378-12.457Zm-3.998-3.645a5.635 5.635 0 0 1 1.698 3.871l-16.864.487a11.236 11.236 0 0 0 3.386 7.719l11.78-12.077Zm1.698 3.871a5.635 5.635 0 0 1-1.472 3.963L28.172 64.25a11.236 11.236 0 0 0-2.935 7.901l16.864-.487Zm-1.472 3.963a5.635 5.635 0 0 1-3.813 1.825l-1.041-16.84a11.236 11.236 0 0 0-7.603 3.638l12.457 11.377Zm-3.813 1.825a5.635 5.635 0 0 1-4.01-1.341l10.962-12.825a11.236 11.236 0 0 0-7.993-2.673l1.04 16.839Zm-4.221-1.528 2.223 2.033 11.385-12.451-2.224-2.033-11.384 12.451Zm13.882 1.77 7.908-7.913L42.45 57.855l-7.907 7.913 11.933 11.925Zm7.913-7.918A5.635 5.635 0 0 1 52.56 71l-6.466-15.583a11.235 11.235 0 0 0-3.649 2.443L54.39 69.775ZM52.56 71a5.637 5.637 0 0 1-2.16.43V54.56a11.24 11.24 0 0 0-4.306.857L52.56 71Zm-2.16.43a5.637 5.637 0 0 1-2.16-.43l6.466-15.583a11.236 11.236 0 0 0-4.306-.858v16.872ZM48.24 71a5.635 5.635 0 0 1-1.83-1.225L58.355 57.86a11.235 11.235 0 0 0-3.649-2.443L48.24 71ZM61.6 58.764c-2.98 0-5.838 1.184-7.945 3.291l11.93 11.93a5.635 5.635 0 0 1-3.985 1.65v-16.87Zm-7.945 3.291A11.236 11.236 0 0 0 50.365 70h16.87a5.635 5.635 0 0 1-1.65 3.985l-11.93-11.93ZM50.365 70c0 2.98 1.183 5.838 3.29 7.945l11.93-11.93A5.636 5.636 0 0 1 67.235 70h-16.87Zm3.29 7.945a11.236 11.236 0 0 0 7.945 3.29v-16.87c1.495 0 2.928.593 3.985 1.65l-11.93 11.93Zm7.945 3.29h9.352v-16.87H61.6v16.87Zm17.31-11.232a8.436 8.436 0 0 1-.474-2.803H61.564a25.3 25.3 0 0 0 1.43 8.397l15.916-5.594ZM70 58.764h-8.4v16.872H70V58.765ZM33.6 98.036h28.28V81.165H33.6v16.87Zm20.014-10.12a22.442 22.442 0 0 0-.45 4.484h16.872c0-.396.039-.767.11-1.116l-16.532-3.368Zm-.45 4.484c0 1.373.107 2.729.307 4.056l16.683-2.512a10.37 10.37 0 0 1-.118-1.544H53.164Zm8.649-5.636H33.6v16.872h28.213V86.765Zm-28.213 0a8.365 8.365 0 0 1-5.915-2.45l-11.93 11.93a25.236 25.236 0 0 0 17.845 7.392V86.765Zm-5.915-2.45a8.365 8.365 0 0 1-2.45-5.914H8.366a25.236 25.236 0 0 0 7.39 17.844l11.93-11.93Zm-2.45-5.914V33.6H8.366v44.8h16.87Zm0-44.8a8.37 8.37 0 0 1 2.45-5.915l-11.93-11.93A25.236 25.236 0 0 0 8.366 33.6h16.87Zm2.45-5.915a8.365 8.365 0 0 1 5.915-2.45V8.366a25.236 25.236 0 0 0-17.844 7.39l11.93 11.93Zm5.915-2.45h44.8V8.366H33.6v16.87Zm44.8 0a8.37 8.37 0 0 1 5.915 2.45l11.93-11.93A25.236 25.236 0 0 0 78.4 8.366v16.87Zm5.915 2.45a8.365 8.365 0 0 1 2.45 5.915h16.871a25.236 25.236 0 0 0-7.392-17.844l-11.93 11.93Zm2.45 5.915v19.046h16.871V33.6H86.765Zm12.662 11.745a25.126 25.126 0 0 0-8.43-3.035l-2.794 16.64a8.252 8.252 0 0 1 2.77.997l8.453-14.6Zm-1.391 5.285V33.6H81.165v17.03h16.87Zm0-17.03a19.636 19.636 0 0 0-5.752-13.884l-11.93 11.93c.52.518.81 1.22.81 1.954h16.872Zm-5.752-13.884A19.636 19.636 0 0 0 78.4 13.964v16.872c.733 0 1.436.29 1.955.81l11.93-11.93ZM78.4 13.964H33.6v16.872h44.8V13.965Zm-44.8 0a19.636 19.636 0 0 0-13.884 5.752l11.93 11.93a2.765 2.765 0 0 1 1.954-.81V13.965Zm-13.884 5.752A19.636 19.636 0 0 0 13.964 33.6h16.872c0-.733.29-1.436.81-1.955l-11.93-11.93ZM13.964 33.6v44.8h16.872V33.6H13.965Zm0 44.8a19.636 19.636 0 0 0 5.752 13.884l11.93-11.93a2.765 2.765 0 0 1-.81-1.954H13.965Zm5.752 13.884A19.636 19.636 0 0 0 33.6 98.036V81.165a2.765 2.765 0 0 1-1.955-.81l-11.93 11.93ZM67.236 42a5.635 5.635 0 0 1-1.651 3.985l-11.93-11.93A11.236 11.236 0 0 0 50.365 42h16.87Zm-1.651 3.985a5.635 5.635 0 0 1-3.985 1.65v-16.87c-2.98 0-5.838 1.183-7.945 3.29l11.93 11.93Zm-3.985 1.65h14v-16.87h-14v16.87Zm14 0a5.636 5.636 0 0 1-3.985-1.65l11.93-11.93a11.235 11.235 0 0 0-7.945-3.29v16.87Zm-3.985-1.65A5.635 5.635 0 0 1 69.965 42h16.87c0-2.98-1.183-5.838-3.29-7.945l-11.93 11.93ZM69.965 42c0-1.495.593-2.928 1.65-3.985l11.93 11.93A11.235 11.235 0 0 0 86.835 42h-16.87Zm1.65-3.985a5.636 5.636 0 0 1 3.985-1.65v16.87c2.98 0 5.838-1.183 7.945-3.29l-11.93-11.93Zm3.985-1.65h-14v16.87h14v-16.87Zm-14 0c1.495 0 2.928.593 3.985 1.65l-11.93 11.93a11.236 11.236 0 0 0 7.945 3.29v-16.87Zm3.985 1.65A5.636 5.636 0 0 1 67.235 42h-16.87c0 2.98 1.183 5.838 3.29 7.945l11.93-11.93Z" fill="url(&quot;#svg736096593_11839_b&quot;)" fill-opacity="0.09" mask="url(#svg736096593_11839_c)"></path><g filter="url(#svg736096593_11839_d)" fill="none"><path d="M94.72 75.12a11.2 11.2 0 1 0-15.839-15.84 11.2 11.2 0 0 0 15.84 15.84Z" fill="url(&quot;#svg736096593_11839_e&quot;)"></path><path d="M86.8 106.4c14.001 0 19.601-7.028 19.601-14a8.398 8.398 0 0 0-8.4-8.4H75.6a8.4 8.4 0 0 0-8.4 8.4c0 7 5.6 14 19.6 14Z" fill="url(&quot;#svg736096593_11839_f&quot;)"></path></g><g filter="url(#svg736096593_11839_g)" fill="none"><path d="M94.72 75.12a11.2 11.2 0 1 0-15.839-15.84 11.2 11.2 0 0 0 15.84 15.84Z" fill="url(&quot;#svg736096593_11839_h&quot;)"></path><path d="M86.8 106.4c14.001 0 19.601-7.028 19.601-14a8.398 8.398 0 0 0-8.4-8.4H75.6a8.4 8.4 0 0 0-8.4 8.4c0 7 5.6 14 19.6 14Z" fill="url(&quot;#svg736096593_11839_i&quot;)"></path></g><path d="M95.16 75.56a11.822 11.822 0 1 0-16.718-16.72A11.822 11.822 0 0 0 95.16 75.56Zm-8.36 31.462c7.1 0 12.157-1.782 15.449-4.53 3.3-2.753 4.774-6.432 4.774-10.092a9.022 9.022 0 0 0-9.022-9.023H75.6a9.023 9.023 0 0 0-9.023 9.023c0 3.673 1.474 7.353 4.774 10.103 3.293 2.744 8.35 4.519 15.449 4.519Z" stroke="url(&quot;#svg736096593_11839_j&quot;)" stroke-opacity="0.5" stroke-width="1.245px" fill="none"></path></g><defs><linearGradient id="svg736096593_11839_b" x1="56" y1="16.8" x2="56" y2="95.2" gradientUnits="userSpaceOnUse"><stop stop-color="#fff"></stop><stop offset="1" stop-color="#fff" stop-opacity="0"></stop></linearGradient><linearGradient id="svg736096593_11839_e" x1="75.678" y1="100.202" x2="118.237" y2="78.516" gradientUnits="userSpaceOnUse"><stop stop-color="#4E49AC"></stop><stop offset="1" stop-color="#5959BF"></stop></linearGradient><linearGradient id="svg736096593_11839_f" x1="75.678" y1="100.202" x2="118.237" y2="78.516" gradientUnits="userSpaceOnUse"><stop stop-color="#4E49AC"></stop><stop offset="1" stop-color="#5959BF"></stop></linearGradient><linearGradient id="svg736096593_11839_h" x1="75.678" y1="100.202" x2="118.237" y2="78.516" gradientUnits="userSpaceOnUse"><stop stop-color="#4E49AC"></stop><stop offset="1" stop-color="#5959BF"></stop></linearGradient><linearGradient id="svg736096593_11839_i" x1="75.678" y1="100.202" x2="118.237" y2="78.516" gradientUnits="userSpaceOnUse"><stop stop-color="#4E49AC"></stop><stop offset="1" stop-color="#5959BF"></stop></linearGradient><linearGradient id="svg736096593_11839_j" x1="86.801" y1="56" x2="86.801" y2="106.4" gradientUnits="userSpaceOnUse"><stop stop-color="#fff"></stop><stop offset="1" stop-color="#fff" stop-opacity="0"></stop></linearGradient><filter id="svg736096593_11839_d" x="57.242" y="46.041" width="59.118" height="70.318" filterUnits="userSpaceOnUse" color-interpolation-filters="sRGB"><feFlood flood-opacity="0" result="BackgroundImageFix"></feFlood><feBlend in="SourceGraphic" in2="BackgroundImageFix" result="shape"></feBlend><feGaussianBlur stdDeviation="4.98" result="effect1_foregroundBlur_10_141"></feGaussianBlur></filter><filter id="svg736096593_11839_g" x="65.956" y="54.755" width="41.69" height="57.869" filterUnits="userSpaceOnUse" color-interpolation-filters="sRGB"><feFlood flood-opacity="0" result="BackgroundImageFix"></feFlood><feBlend in="SourceGraphic" in2="BackgroundImageFix" result="shape"></feBlend><feColorMatrix in="SourceAlpha" values="0 0 0 0 0 0 0 0 0 0 0 0 0 0 0 0 0 0 127 0" result="hardAlpha"></feColorMatrix><feOffset dy="4.98"></feOffset><feGaussianBlur stdDeviation="7.469"></feGaussianBlur><feComposite in2="hardAlpha" operator="arithmetic" k2="-1" k3="1"></feComposite><feColorMatrix values="0 0 0 0 1 0 0 0 0 1 0 0 0 0 1 0 0 0 0.18 0"></feColorMatrix><feBlend in2="shape" result="effect1_innerShadow_10_141"></feBlend></filter><clipPath id="svg736096593_11839_a"><path fill="#fff" d="M0 0h112v112H0z"></path></clipPath><linearGradient id="svg736096593_11839_b" x1="56" y1="16.8" x2="56" y2="95.2" gradientUnits="userSpaceOnUse"><stop stop-color="#fff"></stop><stop offset="1" stop-color="#fff" stop-opacity="0"></stop></linearGradient><linearGradient id="svg736096593_11839_e" x1="75.678" y1="100.202" x2="118.237" y2="78.516" gradientUnits="userSpaceOnUse"><stop stop-color="#4E49AC"></stop><stop offset="1" stop-color="#5959BF"></stop></linearGradient><linearGradient id="svg736096593_11839_f" x1="75.678" y1="100.202" x2="118.237" y2="78.516" gradientUnits="userSpaceOnUse"><stop stop-color="#4E49AC"></stop><stop offset="1" stop-color="#5959BF"></stop></linearGradient><linearGradient id="svg736096593_11839_h" x1="75.678" y1="100.202" x2="118.237" y2="78.516" gradientUnits="userSpaceOnUse"><stop stop-color="#4E49AC"></stop><stop offset="1" stop-color="#5959BF"></stop></linearGradient><linearGradient id="svg736096593_11839_i" x1="75.678" y1="100.202" x2="118.237" y2="78.516" gradientUnits="userSpaceOnUse"><stop stop-color="#4E49AC"></stop><stop offset="1" stop-color="#5959BF"></stop></linearGradient><linearGradient id="svg736096593_11839_j" x1="86.801" y1="56" x2="86.801" y2="106.4" gradientUnits="userSpaceOnUse"><stop stop-color="#fff"></stop><stop offset="1" stop-color="#fff" stop-opacity="0"></stop></linearGradient></defs></svg></defs><use href="#svg736096593_11839"></use></svg>