<svg xmlns="http://www.w3.org/2000/svg" xmlns:xlink="http://www.w3.org/1999/xlink" style="width: 100%; height: 100%" viewBox="0 0 120 112" preserveAspectRatio="none" width="120" height="112"><defs><svg width="120" height="112" fill="none" xmlns="http://www.w3.org/2000/svg" id="svg-2124746001_4124"><g filter="url(#svg-2124746001_4124_a)" fill="none"><path d="M108.128 55.564c0 29.03-23.534 52.564-52.564 52.564S3 84.594 3 55.564 26.534 3 55.564 3c13.52 0 25.847 5.104 35.16 13.49a52.851 52.851 0 0 1 8.264 9.445 52.34 52.34 0 0 1 6.88 14.334 52.552 52.552 0 0 1 2.26 15.295Z" fill="#171923" fill-opacity="0.2"></path><path d="M102.234 41.677a48.69 48.69 0 0 1 2.009 13.887c0 26.885-21.794 48.679-48.679 48.679-26.884 0-48.679-21.794-48.679-48.679 0-26.884 21.794-48.679 48.68-48.679 12.522 0 23.932 4.724 32.56 12.492a48.973 48.973 0 0 1 7.49 8.51l6.619 13.79Z" stroke="url(&quot;#svg-2124746001_4124_b&quot;)" stroke-opacity="0.09" stroke-width="7.77px" fill="none"></path></g><g filter="url(#svg-2124746001_4124_c)" fill="none"><path d="M59.047 59.767 98.733 19.86c1.233-1.24 2.803-1.86 4.709-1.86 1.906 0 3.475.62 4.708 1.86 1.233 1.24 1.85 2.818 1.85 4.735 0 1.916-.617 3.494-1.85 4.734L63.756 73.971C62.41 75.324 60.84 76 59.047 76c-1.794 0-3.363-.676-4.708-2.03l-17.49-17.585C35.618 55.145 35 53.567 35 51.65c0-1.916.617-3.494 1.85-4.734 1.233-1.24 2.803-1.86 4.708-1.86 1.906 0 3.476.62 4.709 1.86l12.78 12.85Z" fill="url(&quot;#svg-2124746001_4124_d&quot;)"></path></g><g filter="url(#svg-2124746001_4124_e)" fill="none"><path d="M59.047 59.767 98.733 19.86c1.233-1.24 2.803-1.86 4.709-1.86 1.906 0 3.475.62 4.708 1.86 1.233 1.24 1.85 2.818 1.85 4.735 0 1.916-.617 3.494-1.85 4.734L63.756 73.971C62.41 75.324 60.84 76 59.047 76c-1.794 0-3.363-.676-4.708-2.03l-17.49-17.585C35.618 55.145 35 53.567 35 51.65c0-1.916.617-3.494 1.85-4.735 1.233-1.24 2.803-1.86 4.708-1.86 1.906 0 3.476.62 4.709 1.86l12.78 12.852Z" fill="url(&quot;#svg-2124746001_4124_f&quot;)"></path></g><path d="m98.327 19.456-39.28 39.498L46.673 46.51c-1.35-1.358-3.071-2.029-5.115-2.029-2.043 0-3.764.67-5.115 2.03-1.35 1.357-2.016 3.086-2.016 5.138s.665 3.78 2.016 5.14l17.489 17.585c1.445 1.454 3.158 2.198 5.115 2.198 1.957 0 3.67-.744 5.115-2.198l44.395-44.641c1.351-1.359 2.016-3.087 2.016-5.14 0-2.051-.665-3.78-2.016-5.138-1.351-1.359-3.072-2.03-5.115-2.03-2.044 0-3.764.671-5.115 2.03Z" stroke="url(&quot;#svg-2124746001_4124_g&quot;)" stroke-opacity="0.5" stroke-width="1.147px" fill="none"></path><defs><linearGradient id="svg-2124746001_4124_b" x1="55.564" y1="3" x2="55.564" y2="108.128" gradientUnits="userSpaceOnUse"><stop stop-color="#fff"></stop><stop offset="1" stop-color="#fff" stop-opacity="0"></stop></linearGradient><linearGradient id="svg-2124746001_4124_d" x1="51.22" y1="68.867" x2="110.934" y2="18.28" gradientUnits="userSpaceOnUse"><stop stop-color="#4E49AC"></stop><stop offset="1" stop-color="#5959BF"></stop></linearGradient><linearGradient id="svg-2124746001_4124_f" x1="51.22" y1="68.867" x2="110.934" y2="18.28" gradientUnits="userSpaceOnUse"><stop stop-color="#4E49AC"></stop><stop offset="1" stop-color="#5959BF"></stop></linearGradient><linearGradient id="svg-2124746001_4124_g" x1="72.5" y1="18" x2="72.5" y2="76" gradientUnits="userSpaceOnUse"><stop stop-color="#fff"></stop><stop offset="1" stop-color="#fff" stop-opacity="0"></stop></linearGradient><filter id="svg-2124746001_4124_a" x="-1.587" y="-1.587" width="114.302" height="114.302" filterUnits="userSpaceOnUse" color-interpolation-filters="sRGB"><feFlood flood-opacity="0" result="BackgroundImageFix"></feFlood><feGaussianBlur in="BackgroundImageFix" stdDeviation="2.293"></feGaussianBlur><feComposite in2="SourceAlpha" operator="in" result="effect1_backgroundBlur_10_2"></feComposite><feBlend in="SourceGraphic" in2="effect1_backgroundBlur_10_2" result="shape"></feBlend></filter><filter id="svg-2124746001_4124_c" x="25.826" y="8.826" width="93.348" height="76.348" filterUnits="userSpaceOnUse" color-interpolation-filters="sRGB"><feFlood flood-opacity="0" result="BackgroundImageFix"></feFlood><feBlend in="SourceGraphic" in2="BackgroundImageFix" result="shape"></feBlend><feGaussianBlur stdDeviation="4.587" result="effect1_foregroundBlur_10_2"></feGaussianBlur></filter><filter id="svg-2124746001_4124_e" x="33.853" y="16.853" width="77.293" height="64.88" filterUnits="userSpaceOnUse" color-interpolation-filters="sRGB"><feFlood flood-opacity="0" result="BackgroundImageFix"></feFlood><feBlend in="SourceGraphic" in2="BackgroundImageFix" result="shape"></feBlend><feColorMatrix in="SourceAlpha" values="0 0 0 0 0 0 0 0 0 0 0 0 0 0 0 0 0 0 127 0" result="hardAlpha"></feColorMatrix><feOffset dy="4.587"></feOffset><feGaussianBlur stdDeviation="6.88"></feGaussianBlur><feComposite in2="hardAlpha" operator="arithmetic" k2="-1" k3="1"></feComposite><feColorMatrix values="0 0 0 0 1 0 0 0 0 1 0 0 0 0 1 0 0 0 0.18 0"></feColorMatrix><feBlend in2="shape" result="effect1_innerShadow_10_2"></feBlend></filter><linearGradient id="svg-2124746001_4124_b" x1="55.564" y1="3" x2="55.564" y2="108.128" gradientUnits="userSpaceOnUse"><stop stop-color="#fff"></stop><stop offset="1" stop-color="#fff" stop-opacity="0"></stop></linearGradient><linearGradient id="svg-2124746001_4124_d" x1="51.22" y1="68.867" x2="110.934" y2="18.28" gradientUnits="userSpaceOnUse"><stop stop-color="#4E49AC"></stop><stop offset="1" stop-color="#5959BF"></stop></linearGradient><linearGradient id="svg-2124746001_4124_f" x1="51.22" y1="68.867" x2="110.934" y2="18.28" gradientUnits="userSpaceOnUse"><stop stop-color="#4E49AC"></stop><stop offset="1" stop-color="#5959BF"></stop></linearGradient><linearGradient id="svg-2124746001_4124_g" x1="72.5" y1="18" x2="72.5" y2="76" gradientUnits="userSpaceOnUse"><stop stop-color="#fff"></stop><stop offset="1" stop-color="#fff" stop-opacity="0"></stop></linearGradient></defs></svg></defs><use href="#svg-2124746001_4124"></use></svg>
