<svg xmlns="http://www.w3.org/2000/svg" xmlns:xlink="http://www.w3.org/1999/xlink" style="width: 100%; height: 100%" viewBox="0 0 112 112" preserveAspectRatio="none" width="112" height="112"><defs><svg width="112" height="112" fill="none" xmlns="http://www.w3.org/2000/svg" id="svg-607919663_3675"><g clip-path="url(#svg-607919663_3675_a)" fill="none"><g filter="url(#svg-607919663_3675_b)" fill="none"><path d="M99.556 40.444h-24.89a6.222 6.222 0 0 0-6.221 6.223v46.666a6.222 6.222 0 0 0 6.222 6.223h24.889a6.221 6.221 0 0 0 6.222-6.223V46.667a6.222 6.222 0 0 0-6.222-6.223Zm-4 6.223a4 4 0 0 1 4 4V83.11a4 4 0 0 1-4 4h-16.89a4 4 0 0 1-4-4V50.667a4 4 0 0 1 4-4h16.89Z" fill="url(&quot;#svg-607919663_3675_c&quot;)"></path></g><g filter="url(#svg-607919663_3675_d)" fill="none"><path d="M99.556 40.444h-24.89a6.222 6.222 0 0 0-6.221 6.223v46.666a6.222 6.222 0 0 0 6.222 6.223h24.889a6.221 6.221 0 0 0 6.222-6.223V46.667a6.222 6.222 0 0 0-6.222-6.223Zm-4 6.223a4 4 0 0 1 4 4V83.11a4 4 0 0 1-4 4h-16.89a4 4 0 0 1-4-4V50.667a4 4 0 0 1 4-4h16.89Z" fill="url(&quot;#svg-607919663_3675_e&quot;)"></path></g><path d="M99.556 39.822h-24.89a6.844 6.844 0 0 0-6.844 6.845v46.666a6.845 6.845 0 0 0 6.845 6.845h24.889a6.842 6.842 0 0 0 6.844-6.845V46.667a6.843 6.843 0 0 0-6.844-6.845Zm-.623 10.845V83.11a3.378 3.378 0 0 1-3.377 3.378h-16.89a3.378 3.378 0 0 1-3.377-3.378V50.667a3.378 3.378 0 0 1 3.378-3.378h16.889a3.378 3.378 0 0 1 3.377 3.378Z" stroke="url(&quot;#svg-607919663_3675_f&quot;)" stroke-opacity="0.5" stroke-width="1.245px" fill="none"></path><g filter="url(#svg-607919663_3675_g)" fill="none"><path d="M87.111 12.444H12.444a6.222 6.222 0 0 0-6.222 6.223v49.778a6.222 6.222 0 0 0 6.222 6.222h24.89v6.222h-8.339A3.734 3.734 0 0 0 24.89 84a3.734 3.734 0 0 0 4.107 3.111h32.977V85.96h.25V68.445H12.443V18.667H87.11v15.555h6.222V18.667a6.222 6.222 0 0 0-6.222-6.223Z" fill="url(&quot;#svg-607919663_3675_h&quot;)" fill-opacity="0.6"></path></g></g><defs><linearGradient id="svg-607919663_3675_c" x1="76.518" y1="92.286" x2="120.111" y2="74.249" gradientUnits="userSpaceOnUse"><stop stop-color="#4E49AC"></stop><stop offset="1" stop-color="#5959BF"></stop></linearGradient><linearGradient id="svg-607919663_3675_e" x1="76.518" y1="92.286" x2="120.111" y2="74.249" gradientUnits="userSpaceOnUse"><stop stop-color="#4E49AC"></stop><stop offset="1" stop-color="#5959BF"></stop></linearGradient><linearGradient id="svg-607919663_3675_f" x1="87.111" y1="40.444" x2="87.111" y2="99.556" gradientUnits="userSpaceOnUse"><stop stop-color="#fff"></stop><stop offset="1" stop-color="#fff" stop-opacity="0"></stop></linearGradient><linearGradient id="svg-607919663_3675_h" x1="49.778" y1="12.444" x2="49.778" y2="87.135" gradientUnits="userSpaceOnUse"><stop stop-color="#41434B"></stop><stop offset="1" stop-color="#41434B" stop-opacity="0"></stop></linearGradient><filter id="svg-607919663_3675_b" x="58.485" y="30.485" width="57.252" height="79.029" filterUnits="userSpaceOnUse" color-interpolation-filters="sRGB"><feFlood flood-opacity="0" result="BackgroundImageFix"></feFlood><feBlend in="SourceGraphic" in2="BackgroundImageFix" result="shape"></feBlend><feGaussianBlur stdDeviation="4.98" result="effect1_foregroundBlur_10_115"></feGaussianBlur></filter><filter id="svg-607919663_3675_d" x="67.2" y="39.2" width="39.823" height="66.58" filterUnits="userSpaceOnUse" color-interpolation-filters="sRGB"><feFlood flood-opacity="0" result="BackgroundImageFix"></feFlood><feBlend in="SourceGraphic" in2="BackgroundImageFix" result="shape"></feBlend><feColorMatrix in="SourceAlpha" values="0 0 0 0 0 0 0 0 0 0 0 0 0 0 0 0 0 0 127 0" result="hardAlpha"></feColorMatrix><feOffset dy="4.98"></feOffset><feGaussianBlur stdDeviation="7.469"></feGaussianBlur><feComposite in2="hardAlpha" operator="arithmetic" k2="-1" k3="1"></feComposite><feColorMatrix values="0 0 0 0 1 0 0 0 0 1 0 0 0 0 1 0 0 0 0.18 0"></feColorMatrix><feBlend in2="shape" result="effect1_innerShadow_10_115"></feBlend></filter><filter id="svg-607919663_3675_g" x="1.243" y="7.465" width="97.07" height="84.65" filterUnits="userSpaceOnUse" color-interpolation-filters="sRGB"><feFlood flood-opacity="0" result="BackgroundImageFix"></feFlood><feGaussianBlur in="BackgroundImageFix" stdDeviation="2.49"></feGaussianBlur><feComposite in2="SourceAlpha" operator="in" result="effect1_backgroundBlur_10_115"></feComposite><feBlend in="SourceGraphic" in2="effect1_backgroundBlur_10_115" result="shape"></feBlend></filter><clipPath id="svg-607919663_3675_a"><path fill="#fff" d="M0 0h112v112H0z"></path></clipPath><linearGradient id="svg-607919663_3675_c" x1="76.518" y1="92.286" x2="120.111" y2="74.249" gradientUnits="userSpaceOnUse"><stop stop-color="#4E49AC"></stop><stop offset="1" stop-color="#5959BF"></stop></linearGradient><linearGradient id="svg-607919663_3675_e" x1="76.518" y1="92.286" x2="120.111" y2="74.249" gradientUnits="userSpaceOnUse"><stop stop-color="#4E49AC"></stop><stop offset="1" stop-color="#5959BF"></stop></linearGradient><linearGradient id="svg-607919663_3675_f" x1="87.111" y1="40.444" x2="87.111" y2="99.556" gradientUnits="userSpaceOnUse"><stop stop-color="#fff"></stop><stop offset="1" stop-color="#fff" stop-opacity="0"></stop></linearGradient><linearGradient id="svg-607919663_3675_h" x1="49.778" y1="12.444" x2="49.778" y2="87.135" gradientUnits="userSpaceOnUse"><stop stop-color="#41434B"></stop><stop offset="1" stop-color="#41434B" stop-opacity="0"></stop></linearGradient></defs></svg></defs><use href="#svg-607919663_3675"></use></svg>
