<svg width="2478" height="426" viewBox="0 0 2478 426" fill="none" xmlns="http://www.w3.org/2000/svg">
<path d="M555.614 329V96.2727H611.864V189.682H703.568V96.2727H759.705V329H703.568V235.477H611.864V329H555.614ZM876.466 332.295C858.133 332.295 842.375 328.545 829.193 321.045C816.087 313.47 805.973 302.939 798.852 289.455C791.807 275.894 788.284 260.174 788.284 242.295C788.284 224.341 791.807 208.621 798.852 195.136C805.973 181.576 816.087 171.045 829.193 163.545C842.375 155.97 858.133 152.182 876.466 152.182C894.799 152.182 910.519 155.97 923.625 163.545C936.807 171.045 946.92 181.576 953.966 195.136C961.087 208.621 964.648 224.341 964.648 242.295C964.648 260.174 961.087 275.894 953.966 289.455C946.92 302.939 936.807 313.47 923.625 321.045C910.519 328.545 894.799 332.295 876.466 332.295ZM876.807 290.364C883.473 290.364 889.117 288.318 893.739 284.227C898.36 280.136 901.883 274.455 904.307 267.182C906.807 259.909 908.057 251.5 908.057 241.955C908.057 232.258 906.807 223.773 904.307 216.5C901.883 209.227 898.36 203.545 893.739 199.455C889.117 195.364 883.473 193.318 876.807 193.318C869.913 193.318 864.08 195.364 859.307 199.455C854.61 203.545 851.011 209.227 848.511 216.5C846.087 223.773 844.875 232.258 844.875 241.955C844.875 251.5 846.087 259.909 848.511 267.182C851.011 274.455 854.61 280.136 859.307 284.227C864.08 288.318 869.913 290.364 876.807 290.364ZM993.114 394.455V154.455H1048.11V184.341H1049.82C1052.09 179.038 1055.31 173.924 1059.48 169C1063.72 164.076 1069.1 160.061 1075.61 156.955C1082.2 153.773 1090.08 152.182 1099.25 152.182C1111.37 152.182 1122.7 155.364 1133.23 161.727C1143.83 168.091 1152.39 177.902 1158.91 191.159C1165.42 204.417 1168.68 221.311 1168.68 241.841C1168.68 261.614 1165.54 278.167 1159.25 291.5C1153.04 304.833 1144.63 314.833 1134.02 321.5C1123.49 328.167 1111.79 331.5 1098.91 331.5C1090.12 331.5 1082.51 330.061 1076.07 327.182C1069.63 324.303 1064.21 320.515 1059.82 315.818C1055.5 311.121 1052.17 306.083 1049.82 300.705H1048.68V394.455H993.114ZM1047.55 241.727C1047.55 251.121 1048.8 259.303 1051.3 266.273C1053.87 273.242 1057.55 278.659 1062.32 282.523C1067.17 286.311 1072.96 288.205 1079.7 288.205C1086.52 288.205 1092.32 286.311 1097.09 282.523C1101.86 278.659 1105.46 273.242 1107.89 266.273C1110.39 259.303 1111.64 251.121 1111.64 241.727C1111.64 232.333 1110.39 224.189 1107.89 217.295C1105.46 210.402 1101.86 205.061 1097.09 201.273C1092.39 197.485 1086.6 195.591 1079.7 195.591C1072.89 195.591 1067.09 197.447 1062.32 201.159C1057.55 204.871 1053.87 210.174 1051.3 217.068C1048.8 223.962 1047.55 232.182 1047.55 241.727ZM1197.8 394.455V154.455H1252.8V184.341H1254.51C1256.78 179.038 1260 173.924 1264.16 169C1268.41 164.076 1273.79 160.061 1280.3 156.955C1286.89 153.773 1294.77 152.182 1303.94 152.182C1316.06 152.182 1327.38 155.364 1337.91 161.727C1348.52 168.091 1357.08 177.902 1363.6 191.159C1370.11 204.417 1373.37 221.311 1373.37 241.841C1373.37 261.614 1370.23 278.167 1363.94 291.5C1357.73 304.833 1349.32 314.833 1338.71 321.5C1328.18 328.167 1316.48 331.5 1303.6 331.5C1294.81 331.5 1287.2 330.061 1280.76 327.182C1274.32 324.303 1268.9 320.515 1264.51 315.818C1260.19 311.121 1256.85 306.083 1254.51 300.705H1253.37V394.455H1197.8ZM1252.23 241.727C1252.23 251.121 1253.48 259.303 1255.98 266.273C1258.56 273.242 1262.23 278.659 1267.01 282.523C1271.85 286.311 1277.65 288.205 1284.39 288.205C1291.21 288.205 1297.01 286.311 1301.78 282.523C1306.55 278.659 1310.15 273.242 1312.57 266.273C1315.07 259.303 1316.32 251.121 1316.32 241.727C1316.32 232.333 1315.07 224.189 1312.57 217.295C1310.15 210.402 1306.55 205.061 1301.78 201.273C1297.08 197.485 1291.29 195.591 1284.39 195.591C1277.57 195.591 1271.78 197.447 1267.01 201.159C1262.23 204.871 1258.56 210.174 1255.98 217.068C1253.48 223.962 1252.23 232.182 1252.23 241.727ZM1554.88 207.75L1503.85 209.114C1503.32 205.477 1501.88 202.258 1499.53 199.455C1497.19 196.576 1494.12 194.341 1490.33 192.75C1486.62 191.083 1482.3 190.25 1477.38 190.25C1470.94 190.25 1465.44 191.538 1460.9 194.114C1456.43 196.689 1454.23 200.174 1454.31 204.568C1454.23 207.977 1455.59 210.932 1458.4 213.432C1461.28 215.932 1466.39 217.939 1473.74 219.455L1507.38 225.818C1524.8 229.152 1537.75 234.682 1546.24 242.409C1554.8 250.136 1559.12 260.364 1559.19 273.091C1559.12 285.061 1555.56 295.477 1548.51 304.341C1541.54 313.205 1532 320.098 1519.88 325.023C1507.75 329.871 1493.89 332.295 1478.28 332.295C1453.36 332.295 1433.7 327.182 1419.31 316.955C1404.99 306.652 1396.81 292.864 1394.76 275.591L1449.65 274.227C1450.86 280.591 1454 285.439 1459.08 288.773C1464.16 292.106 1470.63 293.773 1478.51 293.773C1485.63 293.773 1491.43 292.447 1495.9 289.795C1500.37 287.144 1502.64 283.621 1502.72 279.227C1502.64 275.288 1500.9 272.144 1497.49 269.795C1494.08 267.371 1488.74 265.477 1481.47 264.114L1451.01 258.318C1433.51 255.136 1420.48 249.265 1411.92 240.705C1403.36 232.068 1399.12 221.083 1399.19 207.75C1399.12 196.083 1402.22 186.121 1408.51 177.864C1414.8 169.53 1423.74 163.167 1435.33 158.773C1446.92 154.379 1460.59 152.182 1476.35 152.182C1499.99 152.182 1518.63 157.144 1532.26 167.068C1545.9 176.917 1553.44 190.477 1554.88 207.75ZM1668.03 332.295C1649.62 332.295 1633.82 328.508 1620.64 320.932C1607.54 313.356 1597.46 302.826 1590.41 289.341C1583.37 275.78 1579.85 260.098 1579.85 242.295C1579.85 224.417 1583.37 208.735 1590.41 195.25C1597.54 181.689 1607.65 171.121 1620.76 163.545C1633.94 155.97 1649.66 152.182 1667.91 152.182C1684.05 152.182 1698.1 155.098 1710.07 160.932C1722.12 166.765 1731.51 175.023 1738.26 185.705C1745.07 196.311 1748.67 208.773 1749.05 223.091H1697.12C1696.06 214.152 1693.03 207.144 1688.03 202.068C1683.1 196.992 1676.66 194.455 1668.71 194.455C1662.27 194.455 1656.63 196.273 1651.78 199.909C1646.93 203.47 1643.14 208.773 1640.41 215.818C1637.76 222.788 1636.44 231.424 1636.44 241.727C1636.44 252.03 1637.76 260.742 1640.41 267.864C1643.14 274.909 1646.93 280.25 1651.78 283.886C1656.63 287.447 1662.27 289.227 1668.71 289.227C1673.86 289.227 1678.41 288.129 1682.35 285.932C1686.36 283.735 1689.66 280.515 1692.23 276.273C1694.81 271.955 1696.44 266.727 1697.12 260.591H1749.05C1748.52 274.985 1744.92 287.561 1738.26 298.318C1731.66 309.076 1722.38 317.447 1710.41 323.432C1698.52 329.341 1684.39 332.295 1668.03 332.295ZM1858.97 332.295C1840.63 332.295 1824.88 328.545 1811.69 321.045C1798.59 313.47 1788.47 302.939 1781.35 289.455C1774.31 275.894 1770.78 260.174 1770.78 242.295C1770.78 224.341 1774.31 208.621 1781.35 195.136C1788.47 181.576 1798.59 171.045 1811.69 163.545C1824.88 155.97 1840.63 152.182 1858.97 152.182C1877.3 152.182 1893.02 155.97 1906.12 163.545C1919.31 171.045 1929.42 181.576 1936.47 195.136C1943.59 208.621 1947.15 224.341 1947.15 242.295C1947.15 260.174 1943.59 275.894 1936.47 289.455C1929.42 302.939 1919.31 313.47 1906.12 321.045C1893.02 328.545 1877.3 332.295 1858.97 332.295ZM1859.31 290.364C1865.97 290.364 1871.62 288.318 1876.24 284.227C1880.86 280.136 1884.38 274.455 1886.81 267.182C1889.31 259.909 1890.56 251.5 1890.56 241.955C1890.56 232.258 1889.31 223.773 1886.81 216.5C1884.38 209.227 1880.86 203.545 1876.24 199.455C1871.62 195.364 1865.97 193.318 1859.31 193.318C1852.41 193.318 1846.58 195.364 1841.81 199.455C1837.11 203.545 1833.51 209.227 1831.01 216.5C1828.59 223.773 1827.38 232.258 1827.38 241.955C1827.38 251.5 1828.59 259.909 1831.01 267.182C1833.51 274.455 1837.11 280.136 1841.81 284.227C1846.58 288.318 1852.41 290.364 1859.31 290.364ZM2074.14 154.455V195.364H1964.02V154.455H2074.14ZM1987.09 112.636H2042.66V274.114C2042.66 277.523 2043.19 280.288 2044.25 282.409C2045.39 284.455 2047.02 285.932 2049.14 286.841C2051.26 287.674 2053.8 288.091 2056.75 288.091C2058.87 288.091 2061.11 287.902 2063.45 287.523C2065.88 287.068 2067.7 286.689 2068.91 286.386L2077.32 326.5C2074.67 327.258 2070.92 328.205 2066.07 329.341C2061.3 330.477 2055.58 331.197 2048.91 331.5C2035.88 332.106 2024.7 330.591 2015.39 326.955C2006.14 323.242 1999.06 317.485 1994.14 309.682C1989.29 301.879 1986.94 292.068 1987.09 280.25V112.636ZM2182.09 332.295C2163.68 332.295 2147.89 328.508 2134.7 320.932C2121.6 313.356 2111.52 302.826 2104.48 289.341C2097.43 275.78 2093.91 260.098 2093.91 242.295C2093.91 224.417 2097.43 208.735 2104.48 195.25C2111.6 181.689 2121.71 171.121 2134.82 163.545C2148 155.97 2163.72 152.182 2181.98 152.182C2198.11 152.182 2212.17 155.098 2224.14 160.932C2236.18 166.765 2245.58 175.023 2252.32 185.705C2259.14 196.311 2262.73 208.773 2263.11 223.091H2211.18C2210.12 214.152 2207.09 207.144 2202.09 202.068C2197.17 196.992 2190.73 194.455 2182.77 194.455C2176.33 194.455 2170.69 196.273 2165.84 199.909C2160.99 203.47 2157.2 208.773 2154.48 215.818C2151.83 222.788 2150.5 231.424 2150.5 241.727C2150.5 252.03 2151.83 260.742 2154.48 267.864C2157.2 274.909 2160.99 280.25 2165.84 283.886C2170.69 287.447 2176.33 289.227 2182.77 289.227C2187.92 289.227 2192.47 288.129 2196.41 285.932C2200.42 283.735 2203.72 280.515 2206.3 276.273C2208.87 271.955 2210.5 266.727 2211.18 260.591H2263.11C2262.58 274.985 2258.98 287.561 2252.32 298.318C2245.73 309.076 2236.45 317.447 2224.48 323.432C2212.58 329.341 2198.45 332.295 2182.09 332.295ZM2347.12 229.455V329H2291.55V96.2727H2345.3V186.5H2347.23C2351.17 175.742 2357.61 167.333 2366.55 161.273C2375.57 155.212 2386.59 152.182 2399.62 152.182C2411.89 152.182 2422.57 154.909 2431.66 160.364C2440.76 165.742 2447.8 173.356 2452.8 183.205C2457.88 193.053 2460.38 204.568 2460.3 217.75V329H2404.73V228.659C2404.81 218.962 2402.38 211.386 2397.46 205.932C2392.54 200.477 2385.6 197.75 2376.66 197.75C2370.83 197.75 2365.68 199.038 2361.21 201.614C2356.82 204.114 2353.37 207.712 2350.87 212.409C2348.45 217.106 2347.2 222.788 2347.12 229.455Z" fill="white"/>
<g clip-path="url(#clip0_102_20)">
<mask id="mask0_102_20" style="mask-type:alpha" maskUnits="userSpaceOnUse" x="0" y="0" width="425" height="425">
<rect width="425" height="425" rx="212.5" fill="url(#paint0_linear_102_20)"/>
</mask>
<g mask="url(#mask0_102_20)">
<rect width="425" height="425" rx="212.5" fill="url(#paint1_linear_102_20)"/>
<g opacity="0.5" filter="url(#filter0_f_102_20)">
<path fill-rule="evenodd" clip-rule="evenodd" d="M212.5 425C329.861 425 425 329.861 425 212.5C425 95.1395 329.861 0 212.5 0C95.1395 0 0 95.1395 0 212.5C0 329.861 95.1395 425 212.5 425ZM212.5 411.719C322.525 411.719 411.719 322.525 411.719 212.5C411.719 102.475 322.525 13.2812 212.5 13.2812C102.475 13.2812 13.2812 102.475 13.2812 212.5C13.2812 322.525 102.475 411.719 212.5 411.719Z" fill="url(#paint2_linear_102_20)"/>
</g>
</g>
<path fill-rule="evenodd" clip-rule="evenodd" d="M161.382 104.33C127.247 103.114 101.953 111.451 95.6546 128.842C84.7718 158.742 134.016 204.118 205.661 230.184C277.293 256.256 344.189 253.162 355.072 223.262C361.401 205.872 347.378 183.245 320.459 162.23C318.124 163.852 315.351 165.221 312.091 166.071C299.278 169.457 276.402 169.066 233.575 153.489C190.755 137.893 172.981 123.488 165.341 112.658C163.549 110.138 162.214 107.321 161.4 104.337L161.382 104.33ZM232.76 195.997C232.182 197.754 231.257 199.377 230.04 200.769C228.823 202.162 227.338 203.296 225.674 204.103C224.01 204.911 222.201 205.376 220.354 205.471C218.507 205.565 216.659 205.288 214.921 204.655C213.184 204.021 211.591 203.045 210.237 201.784C208.884 200.524 207.798 199.004 207.044 197.315C206.289 195.626 205.882 193.803 205.846 191.954C205.81 190.104 206.146 188.267 206.834 186.55C208.131 183.171 210.703 180.436 213.997 178.935C217.29 177.434 221.041 177.287 224.442 178.525C227.843 179.763 230.622 182.287 232.18 185.554C233.738 188.821 233.938 192.574 232.76 195.997ZM154.952 167.656C156.67 168.343 158.508 168.678 160.357 168.64C162.206 168.603 164.029 168.195 165.717 167.439C167.405 166.684 168.925 165.596 170.184 164.242C171.444 162.888 172.419 161.295 173.051 159.556C173.683 157.818 173.959 155.97 173.863 154.123C173.767 152.276 173.301 150.467 172.492 148.804C171.683 147.141 170.549 145.657 169.155 144.44C167.762 143.224 166.138 142.3 164.381 141.724C160.958 140.545 157.21 140.758 153.944 142.316C150.677 143.874 148.152 146.653 146.915 150.054C145.677 153.455 145.824 157.206 147.325 160.5C148.826 163.793 151.561 166.365 154.94 167.662L154.952 167.656ZM302.363 206.612C301.743 208.316 300.794 209.881 299.57 211.218C298.346 212.555 296.87 213.638 295.227 214.405C293.584 215.172 291.806 215.607 289.995 215.687C288.183 215.767 286.374 215.489 284.67 214.87C282.966 214.25 281.401 213.301 280.064 212.077C278.727 210.852 277.644 209.376 276.877 207.734C276.11 206.091 275.674 204.313 275.595 202.501C275.515 200.69 275.793 198.881 276.412 197.177C277.664 193.736 280.23 190.932 283.548 189.384C286.866 187.835 290.664 187.668 294.105 188.919C297.546 190.17 300.35 192.737 301.898 196.055C303.447 199.373 303.614 203.17 302.363 206.612Z" fill="white"/>
<path opacity="0.5" d="M201.197 272.641C202.025 270.09 201.83 267.317 200.654 264.906C199.477 262.495 197.411 260.635 194.89 259.718C192.37 258.8 189.591 258.897 187.141 259.988C184.69 261.078 182.758 263.078 181.752 265.564L154.22 341.152C153.755 342.43 153.546 343.787 153.605 345.146C153.664 346.505 153.991 347.838 154.566 349.071C155.14 350.303 155.952 351.411 156.955 352.329C157.958 353.248 159.131 353.96 160.409 354.426C162.99 355.365 165.839 355.241 168.328 354.08C169.56 353.505 170.668 352.693 171.586 351.69C172.505 350.688 173.217 349.514 173.683 348.236L201.197 272.641Z" fill="white"/>
<path opacity="0.5" d="M181.521 99.3105C189.532 86.8472 201.544 77.4792 215.583 72.7454C229.622 68.0116 244.854 68.1936 258.777 73.2614L265.815 75.8128C279.736 80.882 291.519 90.5353 299.229 103.187C306.939 115.838 310.116 130.736 308.24 145.432C307.783 145.706 307.291 145.915 306.778 146.053C300.047 147.821 282.018 149.069 240.641 134.02C199.27 118.951 186.267 106.418 182.242 100.726C181.937 100.29 181.694 99.8135 181.521 99.3105ZM128.395 230.377C129.077 227.716 128.674 224.893 127.274 222.529C125.875 220.166 123.594 218.455 120.933 217.773C118.273 217.091 115.45 217.494 113.086 218.893C110.722 220.292 109.011 222.573 108.329 225.234L96.3483 272.05C95.9893 273.373 95.8967 274.755 96.0761 276.114C96.2555 277.474 96.7033 278.784 97.3933 279.969C98.0834 281.154 99.002 282.191 100.096 283.018C101.19 283.845 102.437 284.446 103.765 284.787C105.094 285.128 106.476 285.202 107.833 285.004C109.19 284.806 110.494 284.341 111.67 283.635C112.846 282.929 113.869 281.996 114.681 280.891C115.494 279.786 116.078 278.531 116.401 277.198L128.395 230.377ZM278.5 275.112C279.727 275.7 280.826 276.523 281.734 277.536C282.642 278.549 283.342 279.73 283.793 281.014C284.245 282.297 284.439 283.656 284.364 285.015C284.29 286.373 283.948 287.703 283.36 288.929L262.451 332.506C261.863 333.732 261.039 334.831 260.026 335.739C259.013 336.646 257.832 337.346 256.549 337.797C253.957 338.708 251.11 338.553 248.634 337.365C246.157 336.177 244.254 334.054 243.342 331.463C242.431 328.872 242.586 326.024 243.774 323.548L264.689 279.984C265.275 278.757 266.098 277.657 267.11 276.748C268.122 275.839 269.303 275.138 270.585 274.686C271.868 274.234 273.227 274.038 274.585 274.111C275.943 274.184 277.274 274.524 278.5 275.112Z" fill="white"/>
</g>
<defs>
<filter id="filter0_f_102_20" x="-12" y="-12" width="449" height="449" filterUnits="userSpaceOnUse" color-interpolation-filters="sRGB">
<feFlood flood-opacity="0" result="BackgroundImageFix"/>
<feBlend mode="normal" in="SourceGraphic" in2="BackgroundImageFix" result="shape"/>
<feGaussianBlur stdDeviation="6" result="effect1_foregroundBlur_102_20"/>
</filter>
<linearGradient id="paint0_linear_102_20" x1="0" y1="0" x2="425" y2="425" gradientUnits="userSpaceOnUse">
<stop stop-color="#FF6363"/>
<stop offset="1" stop-color="#D72A2A"/>
</linearGradient>
<linearGradient id="paint1_linear_102_20" x1="0" y1="0" x2="425" y2="425" gradientUnits="userSpaceOnUse">
<stop stop-color="#AE55F4"/>
<stop offset="1" stop-color="#6A18BC"/>
</linearGradient>
<linearGradient id="paint2_linear_102_20" x1="0" y1="0" x2="425" y2="425" gradientUnits="userSpaceOnUse">
<stop stop-color="white"/>
<stop offset="1" stop-color="white" stop-opacity="0"/>
</linearGradient>
<clipPath id="clip0_102_20">
<rect width="425" height="425" fill="white"/>
</clipPath>
</defs>
</svg>
