<svg width="2478" height="426" viewBox="0 0 2478 426" fill="none" xmlns="http://www.w3.org/2000/svg">
<path fill-rule="evenodd" clip-rule="evenodd" d="M151.418 82.9776C110.295 81.5118 79.8233 91.5559 72.2354 112.507C59.1248 148.528 118.449 203.192 204.76 234.595C291.056 266.004 371.646 262.276 384.757 226.255C392.382 205.305 375.488 178.047 343.059 152.729C340.245 154.683 336.904 156.333 332.978 157.356C317.541 161.436 289.983 160.965 238.389 142.199C186.804 123.411 165.391 106.057 156.188 93.0099C154.028 89.9737 152.42 86.5803 151.44 82.9857L151.418 82.9776ZM237.407 193.409C236.711 195.525 235.597 197.481 234.13 199.158C232.664 200.836 230.875 202.202 228.871 203.175C226.866 204.148 224.686 204.708 222.461 204.822C220.236 204.936 218.01 204.602 215.917 203.839C213.823 203.076 211.904 201.9 210.274 200.381C208.644 198.862 207.335 197.031 206.427 194.997C205.518 192.962 205.027 190.766 204.984 188.538C204.941 186.31 205.345 184.097 206.174 182.028C207.737 177.957 210.835 174.663 214.803 172.855C218.77 171.047 223.289 170.869 227.387 172.36C231.484 173.851 234.832 176.892 236.709 180.828C238.586 184.764 238.827 189.286 237.407 193.409ZM143.672 159.267C145.741 160.094 147.955 160.497 150.182 160.452C152.41 160.408 154.606 159.915 156.64 159.005C158.674 158.095 160.504 156.785 162.022 155.154C163.54 153.523 164.714 151.603 165.475 149.509C166.237 147.415 166.57 145.189 166.454 142.964C166.338 140.738 165.777 138.559 164.802 136.555C163.828 134.551 162.461 132.764 160.782 131.298C159.103 129.833 157.147 128.72 155.03 128.026C150.907 126.606 146.392 126.862 142.456 128.739C138.521 130.616 135.48 133.964 133.989 138.061C132.497 142.158 132.675 146.678 134.483 150.645C136.292 154.613 139.586 157.711 143.657 159.274L143.672 159.267ZM321.258 206.197C320.512 208.249 319.369 210.135 317.893 211.746C316.418 213.357 314.64 214.661 312.661 215.585C310.682 216.509 308.54 217.034 306.358 217.13C304.176 217.226 301.996 216.891 299.944 216.145C297.891 215.399 296.005 214.255 294.394 212.78C292.783 211.305 291.479 209.527 290.555 207.548C289.631 205.569 289.106 203.427 289.01 201.245C288.914 199.063 289.249 196.883 289.995 194.83C291.503 190.685 294.595 187.308 298.592 185.442C302.589 183.576 307.164 183.375 311.31 184.882C315.456 186.389 318.833 189.482 320.698 193.479C322.564 197.476 322.765 202.051 321.258 206.197Z" fill="#222326"/>
<path opacity="0.5" d="M199.383 285.743C200.38 282.669 200.146 279.329 198.728 276.424C197.311 273.52 194.822 271.279 191.785 270.174C188.749 269.069 185.402 269.185 182.449 270.499C179.497 271.813 177.17 274.222 175.958 277.217L142.789 368.279C142.229 369.818 141.977 371.453 142.049 373.09C142.12 374.726 142.513 376.333 143.206 377.818C143.898 379.303 144.876 380.637 146.084 381.744C147.292 382.85 148.706 383.709 150.246 384.269C153.355 385.401 156.787 385.251 159.785 383.852C161.27 383.16 162.604 382.182 163.711 380.974C164.818 379.766 165.676 378.352 166.236 376.812L199.383 285.743Z" fill="#222326"/>
<path opacity="0.5" d="M175.68 76.9302C185.331 61.9156 199.801 50.63 216.715 44.9272C233.628 39.2244 251.978 39.4436 268.75 45.5489L277.229 48.6224C294 54.7294 308.195 66.3588 317.483 81.6002C326.771 96.8417 330.599 114.789 328.338 132.493C327.789 132.823 327.196 133.075 326.577 133.241C318.469 135.371 296.749 136.875 246.901 118.745C197.061 100.592 181.397 85.4931 176.548 78.6353C176.181 78.1102 175.888 77.5363 175.68 76.9302ZM111.678 234.826C112.5 231.621 112.014 228.22 110.329 225.373C108.643 222.525 105.895 220.464 102.689 219.642C99.4839 218.821 96.0833 219.306 93.2357 220.992C90.3881 222.678 88.3268 225.425 87.5053 228.631L73.0716 285.03C72.6391 286.624 72.5276 288.289 72.7438 289.927C72.9599 291.565 73.4992 293.143 74.3306 294.571C75.1619 295.999 76.2685 297.247 77.5863 298.243C78.9041 299.24 80.4067 299.964 82.0069 300.375C83.607 300.786 85.2729 300.875 86.9077 300.637C88.5425 300.398 90.1136 299.838 91.5299 298.987C92.9461 298.136 94.1793 297.013 95.1577 295.682C96.1361 294.35 96.8403 292.838 97.2294 291.233L111.678 234.826ZM292.511 288.719C293.989 289.427 295.313 290.42 296.407 291.64C297.501 292.86 298.344 294.283 298.888 295.829C299.431 297.375 299.665 299.013 299.575 300.649C299.486 302.285 299.075 303.888 298.365 305.365L273.176 357.862C272.468 359.34 271.475 360.663 270.255 361.757C269.035 362.85 267.612 363.693 266.066 364.237C262.944 365.334 259.514 365.147 256.531 363.716C253.547 362.285 251.254 359.727 250.156 356.606C249.058 353.484 249.246 350.054 250.677 347.07L275.872 294.588C276.579 293.11 277.57 291.786 278.789 290.69C280.008 289.595 281.431 288.751 282.976 288.206C284.521 287.661 286.158 287.426 287.795 287.514C289.431 287.602 291.034 288.012 292.511 288.719Z" fill="#222326"/>
<path d="M555.614 329V96.2727H611.864V189.682H703.568V96.2727H759.705V329H703.568V235.477H611.864V329H555.614ZM876.466 332.295C858.133 332.295 842.375 328.545 829.193 321.045C816.087 313.47 805.973 302.939 798.852 289.455C791.807 275.894 788.284 260.174 788.284 242.295C788.284 224.341 791.807 208.621 798.852 195.136C805.973 181.576 816.087 171.045 829.193 163.545C842.375 155.97 858.133 152.182 876.466 152.182C894.799 152.182 910.519 155.97 923.625 163.545C936.807 171.045 946.92 181.576 953.966 195.136C961.087 208.621 964.648 224.341 964.648 242.295C964.648 260.174 961.087 275.894 953.966 289.455C946.92 302.939 936.807 313.47 923.625 321.045C910.519 328.545 894.799 332.295 876.466 332.295ZM876.807 290.364C883.473 290.364 889.117 288.318 893.739 284.227C898.36 280.136 901.883 274.455 904.307 267.182C906.807 259.909 908.057 251.5 908.057 241.955C908.057 232.258 906.807 223.773 904.307 216.5C901.883 209.227 898.36 203.545 893.739 199.455C889.117 195.364 883.473 193.318 876.807 193.318C869.913 193.318 864.08 195.364 859.307 199.455C854.61 203.545 851.011 209.227 848.511 216.5C846.087 223.773 844.875 232.258 844.875 241.955C844.875 251.5 846.087 259.909 848.511 267.182C851.011 274.455 854.61 280.136 859.307 284.227C864.08 288.318 869.913 290.364 876.807 290.364ZM993.114 394.455V154.455H1048.11V184.341H1049.82C1052.09 179.038 1055.31 173.924 1059.48 169C1063.72 164.076 1069.1 160.061 1075.61 156.955C1082.2 153.773 1090.08 152.182 1099.25 152.182C1111.37 152.182 1122.7 155.364 1133.23 161.727C1143.83 168.091 1152.39 177.902 1158.91 191.159C1165.42 204.417 1168.68 221.311 1168.68 241.841C1168.68 261.614 1165.54 278.167 1159.25 291.5C1153.04 304.833 1144.63 314.833 1134.02 321.5C1123.49 328.167 1111.79 331.5 1098.91 331.5C1090.12 331.5 1082.51 330.061 1076.07 327.182C1069.63 324.303 1064.21 320.515 1059.82 315.818C1055.5 311.121 1052.17 306.083 1049.82 300.705H1048.68V394.455H993.114ZM1047.55 241.727C1047.55 251.121 1048.8 259.303 1051.3 266.273C1053.87 273.242 1057.55 278.659 1062.32 282.523C1067.17 286.311 1072.96 288.205 1079.7 288.205C1086.52 288.205 1092.32 286.311 1097.09 282.523C1101.86 278.659 1105.46 273.242 1107.89 266.273C1110.39 259.303 1111.64 251.121 1111.64 241.727C1111.64 232.333 1110.39 224.189 1107.89 217.295C1105.46 210.402 1101.86 205.061 1097.09 201.273C1092.39 197.485 1086.6 195.591 1079.7 195.591C1072.89 195.591 1067.09 197.447 1062.32 201.159C1057.55 204.871 1053.87 210.174 1051.3 217.068C1048.8 223.962 1047.55 232.182 1047.55 241.727ZM1197.8 394.455V154.455H1252.8V184.341H1254.51C1256.78 179.038 1260 173.924 1264.16 169C1268.41 164.076 1273.79 160.061 1280.3 156.955C1286.89 153.773 1294.77 152.182 1303.94 152.182C1316.06 152.182 1327.38 155.364 1337.91 161.727C1348.52 168.091 1357.08 177.902 1363.6 191.159C1370.11 204.417 1373.37 221.311 1373.37 241.841C1373.37 261.614 1370.23 278.167 1363.94 291.5C1357.73 304.833 1349.32 314.833 1338.71 321.5C1328.18 328.167 1316.48 331.5 1303.6 331.5C1294.81 331.5 1287.2 330.061 1280.76 327.182C1274.32 324.303 1268.9 320.515 1264.51 315.818C1260.19 311.121 1256.85 306.083 1254.51 300.705H1253.37V394.455H1197.8ZM1252.23 241.727C1252.23 251.121 1253.48 259.303 1255.98 266.273C1258.56 273.242 1262.23 278.659 1267.01 282.523C1271.85 286.311 1277.65 288.205 1284.39 288.205C1291.21 288.205 1297.01 286.311 1301.78 282.523C1306.55 278.659 1310.15 273.242 1312.57 266.273C1315.07 259.303 1316.32 251.121 1316.32 241.727C1316.32 232.333 1315.07 224.189 1312.57 217.295C1310.15 210.402 1306.55 205.061 1301.78 201.273C1297.08 197.485 1291.29 195.591 1284.39 195.591C1277.57 195.591 1271.78 197.447 1267.01 201.159C1262.23 204.871 1258.56 210.174 1255.98 217.068C1253.48 223.962 1252.23 232.182 1252.23 241.727ZM1554.88 207.75L1503.85 209.114C1503.32 205.477 1501.88 202.258 1499.53 199.455C1497.19 196.576 1494.12 194.341 1490.33 192.75C1486.62 191.083 1482.3 190.25 1477.38 190.25C1470.94 190.25 1465.44 191.538 1460.9 194.114C1456.43 196.689 1454.23 200.174 1454.31 204.568C1454.23 207.977 1455.59 210.932 1458.4 213.432C1461.28 215.932 1466.39 217.939 1473.74 219.455L1507.38 225.818C1524.8 229.152 1537.75 234.682 1546.24 242.409C1554.8 250.136 1559.12 260.364 1559.19 273.091C1559.12 285.061 1555.56 295.477 1548.51 304.341C1541.54 313.205 1532 320.098 1519.88 325.023C1507.75 329.871 1493.89 332.295 1478.28 332.295C1453.36 332.295 1433.7 327.182 1419.31 316.955C1404.99 306.652 1396.81 292.864 1394.76 275.591L1449.65 274.227C1450.86 280.591 1454 285.439 1459.08 288.773C1464.16 292.106 1470.63 293.773 1478.51 293.773C1485.63 293.773 1491.43 292.447 1495.9 289.795C1500.37 287.144 1502.64 283.621 1502.72 279.227C1502.64 275.288 1500.9 272.144 1497.49 269.795C1494.08 267.371 1488.74 265.477 1481.47 264.114L1451.01 258.318C1433.51 255.136 1420.48 249.265 1411.92 240.705C1403.36 232.068 1399.12 221.083 1399.19 207.75C1399.12 196.083 1402.22 186.121 1408.51 177.864C1414.8 169.53 1423.74 163.167 1435.33 158.773C1446.92 154.379 1460.59 152.182 1476.35 152.182C1499.99 152.182 1518.63 157.144 1532.26 167.068C1545.9 176.917 1553.44 190.477 1554.88 207.75ZM1668.03 332.295C1649.62 332.295 1633.82 328.508 1620.64 320.932C1607.54 313.356 1597.46 302.826 1590.41 289.341C1583.37 275.78 1579.85 260.098 1579.85 242.295C1579.85 224.417 1583.37 208.735 1590.41 195.25C1597.54 181.689 1607.65 171.121 1620.76 163.545C1633.94 155.97 1649.66 152.182 1667.91 152.182C1684.05 152.182 1698.1 155.098 1710.07 160.932C1722.12 166.765 1731.51 175.023 1738.26 185.705C1745.07 196.311 1748.67 208.773 1749.05 223.091H1697.12C1696.06 214.152 1693.03 207.144 1688.03 202.068C1683.1 196.992 1676.66 194.455 1668.71 194.455C1662.27 194.455 1656.63 196.273 1651.78 199.909C1646.93 203.47 1643.14 208.773 1640.41 215.818C1637.76 222.788 1636.44 231.424 1636.44 241.727C1636.44 252.03 1637.76 260.742 1640.41 267.864C1643.14 274.909 1646.93 280.25 1651.78 283.886C1656.63 287.447 1662.27 289.227 1668.71 289.227C1673.86 289.227 1678.41 288.129 1682.35 285.932C1686.36 283.735 1689.66 280.515 1692.23 276.273C1694.81 271.955 1696.44 266.727 1697.12 260.591H1749.05C1748.52 274.985 1744.92 287.561 1738.26 298.318C1731.66 309.076 1722.38 317.447 1710.41 323.432C1698.52 329.341 1684.39 332.295 1668.03 332.295ZM1858.97 332.295C1840.63 332.295 1824.88 328.545 1811.69 321.045C1798.59 313.47 1788.47 302.939 1781.35 289.455C1774.31 275.894 1770.78 260.174 1770.78 242.295C1770.78 224.341 1774.31 208.621 1781.35 195.136C1788.47 181.576 1798.59 171.045 1811.69 163.545C1824.88 155.97 1840.63 152.182 1858.97 152.182C1877.3 152.182 1893.02 155.97 1906.12 163.545C1919.31 171.045 1929.42 181.576 1936.47 195.136C1943.59 208.621 1947.15 224.341 1947.15 242.295C1947.15 260.174 1943.59 275.894 1936.47 289.455C1929.42 302.939 1919.31 313.47 1906.12 321.045C1893.02 328.545 1877.3 332.295 1858.97 332.295ZM1859.31 290.364C1865.97 290.364 1871.62 288.318 1876.24 284.227C1880.86 280.136 1884.38 274.455 1886.81 267.182C1889.31 259.909 1890.56 251.5 1890.56 241.955C1890.56 232.258 1889.31 223.773 1886.81 216.5C1884.38 209.227 1880.86 203.545 1876.24 199.455C1871.62 195.364 1865.97 193.318 1859.31 193.318C1852.41 193.318 1846.58 195.364 1841.81 199.455C1837.11 203.545 1833.51 209.227 1831.01 216.5C1828.59 223.773 1827.38 232.258 1827.38 241.955C1827.38 251.5 1828.59 259.909 1831.01 267.182C1833.51 274.455 1837.11 280.136 1841.81 284.227C1846.58 288.318 1852.41 290.364 1859.31 290.364ZM2074.14 154.455V195.364H1964.02V154.455H2074.14ZM1987.09 112.636H2042.66V274.114C2042.66 277.523 2043.19 280.288 2044.25 282.409C2045.39 284.455 2047.02 285.932 2049.14 286.841C2051.26 287.674 2053.8 288.091 2056.75 288.091C2058.87 288.091 2061.11 287.902 2063.45 287.523C2065.88 287.068 2067.7 286.689 2068.91 286.386L2077.32 326.5C2074.67 327.258 2070.92 328.205 2066.07 329.341C2061.3 330.477 2055.58 331.197 2048.91 331.5C2035.88 332.106 2024.7 330.591 2015.39 326.955C2006.14 323.242 1999.06 317.485 1994.14 309.682C1989.29 301.879 1986.94 292.068 1987.09 280.25V112.636ZM2182.09 332.295C2163.68 332.295 2147.89 328.508 2134.7 320.932C2121.6 313.356 2111.52 302.826 2104.48 289.341C2097.43 275.78 2093.91 260.098 2093.91 242.295C2093.91 224.417 2097.43 208.735 2104.48 195.25C2111.6 181.689 2121.71 171.121 2134.82 163.545C2148 155.97 2163.72 152.182 2181.98 152.182C2198.11 152.182 2212.17 155.098 2224.14 160.932C2236.18 166.765 2245.58 175.023 2252.32 185.705C2259.14 196.311 2262.73 208.773 2263.11 223.091H2211.18C2210.12 214.152 2207.09 207.144 2202.09 202.068C2197.17 196.992 2190.73 194.455 2182.77 194.455C2176.33 194.455 2170.69 196.273 2165.84 199.909C2160.99 203.47 2157.2 208.773 2154.48 215.818C2151.83 222.788 2150.5 231.424 2150.5 241.727C2150.5 252.03 2151.83 260.742 2154.48 267.864C2157.2 274.909 2160.99 280.25 2165.84 283.886C2170.69 287.447 2176.33 289.227 2182.77 289.227C2187.92 289.227 2192.47 288.129 2196.41 285.932C2200.42 283.735 2203.72 280.515 2206.3 276.273C2208.87 271.955 2210.5 266.727 2211.18 260.591H2263.11C2262.58 274.985 2258.98 287.561 2252.32 298.318C2245.73 309.076 2236.45 317.447 2224.48 323.432C2212.58 329.341 2198.45 332.295 2182.09 332.295ZM2347.12 229.455V329H2291.55V96.2727H2345.3V186.5H2347.23C2351.17 175.742 2357.61 167.333 2366.55 161.273C2375.57 155.212 2386.59 152.182 2399.62 152.182C2411.89 152.182 2422.57 154.909 2431.66 160.364C2440.76 165.742 2447.8 173.356 2452.8 183.205C2457.88 193.053 2460.38 204.568 2460.3 217.75V329H2404.73V228.659C2404.81 218.962 2402.38 211.386 2397.46 205.932C2392.54 200.477 2385.6 197.75 2376.66 197.75C2370.83 197.75 2365.68 199.038 2361.21 201.614C2356.82 204.114 2353.37 207.712 2350.87 212.409C2348.45 217.106 2347.2 222.788 2347.12 229.455Z" fill="#222326"/>
</svg>
