<?xml version="1.0" encoding="UTF-8" standalone="no"?>
<!-- Generator: Adobe Illustrator 25.0.1, SVG Export Plug-In . SVG Version: 6.00 Build 0)  -->

<svg
   version="1.0"
   id="Layer_1"
   x="0px"
   y="0px"
   viewBox="0 0 771.29998 155.3"
   xml:space="preserve"
   sodipodi:docname="7.svg"
   width="771.29999"
   height="155.3"
   inkscape:version="1.1 (c4e8f9e, 2021-05-24)"
   xmlns:inkscape="http://www.inkscape.org/namespaces/inkscape"
   xmlns:sodipodi="http://sodipodi.sourceforge.net/DTD/sodipodi-0.dtd"
   xmlns="http://www.w3.org/2000/svg"
   xmlns:svg="http://www.w3.org/2000/svg"><defs
   id="defs859" /><sodipodi:namedview
   id="namedview857"
   pagecolor="#ffffff"
   bordercolor="#666666"
   borderopacity="1.0"
   inkscape:pageshadow="2"
   inkscape:pageopacity="0.0"
   inkscape:pagecheckerboard="0"
   showgrid="false"
   fit-margin-top="0"
   fit-margin-left="0"
   fit-margin-right="0"
   fit-margin-bottom="0"
   inkscape:zoom="0.53108045"
   inkscape:cx="98.85508"
   inkscape:cy="148.75336"
   inkscape:window-width="1312"
   inkscape:window-height="778"
   inkscape:window-x="0"
   inkscape:window-y="25"
   inkscape:window-maximized="0"
   inkscape:current-layer="Layer_1" />
<style
   type="text/css"
   id="style824">
	.st0{fill:#fff;}
	.st1{fill:#fff;}
	.st2{fill:none;}
</style>
<g
   id="Layer_2"
   transform="translate(-68.699997,-188.7)">
	<g
   id="Layer_1-2">
		<polygon
   class="st0"
   points="111.5,303.3 160.2,207.8 137.6,207.8 88.9,303.3 "
   id="polygon826" />
		<path
   class="st1"
   d="m 417.5,246 -3.9,7.6 h -0.3 c -1.6,-3 -4.1,-5.5 -7.1,-7.1 -3.1,-1.4 -6.4,-2.1 -9.8,-2 -3.7,-0.1 -7.3,0.7 -10.6,2.3 -3,1.5 -5.6,3.6 -7.7,6.3 -2.1,2.7 -3.7,5.8 -4.7,9.1 -1.1,3.5 -1.6,7.1 -1.6,10.7 0,3.7 0.4,7.5 1.3,11.1 0.8,3.3 2.3,6.4 4.4,9.2 2,2.6 4.6,4.8 7.6,6.2 3.5,1.6 7.3,2.4 11.1,2.3 3.4,0 6.8,-0.7 9.9,-2.2 3.1,-1.4 5.6,-3.7 7.3,-6.7 h 0.2 v 7.6 c 0,8.9 -4.2,14 -12.5,14 -8.3,0 -12.8,-3.6 -15.1,-6.5 l -5.6,11.2 c 0,0 6.4,5.8 18.6,5.8 20.2,0 29.7,-9.8 29.7,-25.3 V 246 Z m -4.7,33.9 c -0.5,1.8 -1.4,3.5 -2.5,5 -1.1,1.5 -2.6,2.7 -4.2,3.6 -1.8,0.9 -3.8,1.4 -5.9,1.3 -2.1,0.1 -4.3,-0.5 -6.1,-1.5 -1.6,-1 -2.9,-2.4 -3.9,-4 -1,-1.7 -1.7,-3.5 -2.1,-5.5 -0.4,-2 -0.6,-4.1 -0.6,-6.1 0,-2.1 0.2,-4.1 0.7,-6.1 0.4,-1.9 1.2,-3.6 2.3,-5.2 1,-1.5 2.4,-2.7 4,-3.6 1.8,-0.9 3.7,-1.4 5.7,-1.3 2.2,-0.1 4.4,0.4 6.4,1.4 1.6,0.9 3,2.2 4.1,3.8 1.1,1.7 1.8,3.6 2.2,5.6 0.4,2.2 0.7,4.4 0.7,6.7 0,1.9 -0.2,3.9 -0.8,5.9 z"
   id="path828" />
		<path
   class="st1"
   d="M 207.9,224.2 V 254 h 0.3 c 1.8,-3.1 4.4,-5.6 7.6,-7.2 2.8,-1.5 5.9,-2.2 9.1,-2.3 3.5,-0.1 7.1,0.5 10.4,1.8 2.5,1 4.7,2.7 6.4,4.8 1.6,2.2 2.7,4.7 3.2,7.4 0.7,3.2 1,6.4 0.9,9.7 v 35.2 H 230.1 V 271 c 0.3,-3.7 -0.5,-7.3 -2.2,-10.6 -1.5,-2.3 -4.1,-3.6 -7.9,-3.6 -4.3,0 -7.4,1.3 -9.3,3.8 -1.9,2.5 -2.9,6.7 -2.9,12.5 v 30.1 h -15.7 v -79 z"
   id="path830" />
		<path
   class="st1"
   d="m 252.5,262.3 c 1.3,-3.6 3.3,-6.8 6,-9.5 2.6,-2.7 5.8,-4.7 9.3,-6.1 7.9,-2.9 16.5,-2.9 24.4,0 7.2,2.7 12.8,8.4 15.3,15.6 2.8,8.1 2.8,16.9 0,24.9 -1.3,3.5 -3.4,6.8 -6,9.5 -2.7,2.6 -5.9,4.6 -9.4,5.9 -7.9,2.8 -16.5,2.8 -24.4,0 -7.1,-2.7 -12.7,-8.4 -15.3,-15.5 -2.8,-8.1 -2.8,-16.8 0.1,-24.8 z m 14.3,19.1 c 0.4,2.1 1.2,4.1 2.3,5.9 1,1.7 2.5,3.1 4.2,4.1 2,1.1 4.3,1.6 6.6,1.6 2.3,0.1 4.6,-0.5 6.7,-1.6 1.8,-1 3.3,-2.4 4.3,-4.1 1.1,-1.8 1.9,-3.8 2.3,-5.9 0.4,-2.2 0.7,-4.4 0.7,-6.7 0,-2.3 -0.2,-4.5 -0.7,-6.8 -0.4,-2.1 -1.2,-4.1 -2.3,-5.9 -1.1,-1.7 -2.6,-3.2 -4.3,-4.2 -2,-1.1 -4.4,-1.7 -6.7,-1.6 -4.4,-0.2 -8.6,2 -10.9,5.7 -1.1,1.8 -1.9,3.8 -2.3,5.9 -0.5,2.2 -0.7,4.5 -0.7,6.8 0.1,2.3 0.3,4.6 0.8,6.8 z"
   id="path832" />
		<path
   class="st1"
   d="m 352.5,303.3 v -7.9 h -0.3 c -1.8,3.1 -4.5,5.6 -7.8,7.1 -3,1.4 -6.4,2.2 -9.8,2.2 -3.5,0.1 -7,-0.5 -10.3,-1.6 -2.5,-1 -4.7,-2.6 -6.4,-4.8 -1.6,-2.2 -2.7,-4.7 -3.3,-7.4 -0.7,-3.2 -1,-6.4 -1,-9.7 V 246 h 15.7 v 32.3 c -0.2,3.7 0.5,7.3 2.2,10.6 1.5,2.3 4.1,3.5 7.9,3.6 4.3,0 7.4,-1.3 9.3,-3.8 1.9,-2.5 2.9,-6.7 2.9,-12.5 V 246 h 15.7 v 57.2 z"
   id="path834" />
		<path
   class="st1"
   d="M 450.2,224.2 V 254 h 0.3 c 1.8,-3.1 4.4,-5.6 7.6,-7.2 2.8,-1.5 5.9,-2.2 9.1,-2.3 3.5,-0.1 7.1,0.5 10.4,1.8 2.5,1 4.7,2.6 6.4,4.7 1.6,2.2 2.7,4.7 3.3,7.4 0.6,3.2 1,6.4 0.9,9.7 v 35.2 H 472.5 V 271 c 0.2,-3.7 -0.5,-7.3 -2.2,-10.6 -1.5,-2.4 -4.1,-3.6 -7.9,-3.6 -4.3,0 -7.4,1.3 -9.3,3.8 -1.9,2.5 -2.9,6.7 -2.9,12.5 v 30.1 h -15.7 v -79 z"
   id="path836" />
		<path
   class="st1"
   d="m 608.2,262.3 c 2.6,-7.2 8.2,-12.9 15.3,-15.6 7.9,-2.9 16.5,-2.9 24.4,0 7.2,2.7 12.8,8.4 15.3,15.6 2.8,8.1 2.8,16.9 0,24.9 -1.3,3.5 -3.4,6.8 -6,9.5 -2.6,2.6 -5.8,4.6 -9.3,5.9 -7.9,2.8 -16.5,2.8 -24.4,0 -3.5,-1.3 -6.7,-3.4 -9.3,-6 -2.6,-2.7 -4.7,-5.9 -6,-9.5 -2.8,-8 -2.8,-16.8 0,-24.8 z m 14.3,19.1 c 0.4,2.1 1.2,4.1 2.3,5.9 1.1,1.7 2.5,3.1 4.3,4.1 2,1.1 4.3,1.6 6.7,1.6 2.3,0.1 4.6,-0.5 6.7,-1.6 1.8,-1 3.3,-2.4 4.3,-4.1 1.1,-1.8 1.9,-3.8 2.3,-5.9 0.4,-2.2 0.7,-4.4 0.7,-6.7 0,-2.3 -0.2,-4.5 -0.7,-6.8 -0.4,-2.1 -1.2,-4.1 -2.3,-5.9 -1.1,-1.7 -2.6,-3.2 -4.3,-4.2 -2,-1.1 -4.4,-1.7 -6.7,-1.6 -2.3,-0.1 -4.6,0.5 -6.7,1.6 -1.7,1 -3.2,2.4 -4.3,4.1 -1.1,1.8 -1.9,3.8 -2.3,5.9 -0.4,2.2 -0.7,4.5 -0.7,6.8 0,2.3 0.2,4.6 0.7,6.8 z"
   id="path838" />
		<path
   class="st1"
   d="m 730.2,224.2 v 42.4 L 750,246 h 18.6 l -21.6,21 24,36.2 h -19 l -15.7,-25.5 -6.1,5.9 v 19.7 h -15.8 v -79 z"
   id="path840" />
		<path
   class="st1"
   d="m 782.7,289 c 0.7,1.2 1.6,2.2 2.7,3 1.2,0.8 2.5,1.4 3.8,1.8 1.5,0.4 3,0.6 4.5,0.5 1.2,0 2.3,-0.1 3.5,-0.4 1.2,-0.2 2.3,-0.6 3.3,-1.2 1,-0.5 1.8,-1.3 2.5,-2.2 0.7,-1 1.1,-2.3 1,-3.6 0,-2.4 -1.6,-4.1 -4.7,-5.4 -4.3,-1.5 -8.7,-2.7 -13.1,-3.6 -2.3,-0.5 -4.5,-1.1 -6.7,-1.8 -2.1,-0.6 -4.1,-1.5 -5.9,-2.7 -1.7,-1.1 -3.1,-2.6 -4.1,-4.3 -1.1,-1.9 -1.6,-4.1 -1.5,-6.4 -0.1,-3.2 0.6,-6.3 2.2,-9.1 1.4,-2.3 3.4,-4.2 5.7,-5.6 2.5,-1.4 5.2,-2.4 8,-2.9 3,-0.6 6,-0.8 9.1,-0.8 3,0 6,0.3 9,0.9 2.8,0.5 5.4,1.5 7.8,3 2.3,1.4 4.2,3.3 5.7,5.6 1.6,2.7 2.6,5.7 2.7,8.8 h -15 c 0.1,-2.5 -1.2,-4.9 -3.4,-6.1 -2.3,-1.1 -4.8,-1.7 -7.3,-1.6 -1,0 -1.9,0.1 -2.9,0.2 -1,0.1 -1.9,0.4 -2.8,0.7 -0.8,0.3 -1.6,0.9 -2.2,1.6 -0.6,0.8 -0.9,1.8 -0.9,2.8 0,1.3 0.5,2.6 1.5,3.4 1.2,1 2.5,1.7 4,2.2 1.9,0.6 3.8,1.1 5.7,1.5 2.1,0.5 4.3,0.9 6.5,1.5 2.3,0.5 4.5,1.1 6.7,1.9 2.1,0.7 4,1.7 5.8,2.9 1.7,1.2 3.1,2.7 4.1,4.5 1.1,2.1 1.6,4.4 1.6,6.7 0.3,6.3 -2.8,12.3 -8.2,15.6 -2.6,1.6 -5.4,2.7 -8.3,3.3 -3.2,0.6 -6.4,0.9 -9.6,0.9 -3.3,0 -6.5,-0.3 -9.7,-1 -3,-0.6 -5.9,-1.7 -8.5,-3.4 -5.5,-3.3 -8.8,-9.3 -8.7,-15.7 h 15 c -0.1,1.7 0.3,3.2 1.1,4.5 z"
   id="path842" />
		<path
   class="st1"
   d="m 521.4,291.5 c -2.8,0.9 -5.8,-0.7 -6.7,-3.5 -0.3,-1 -0.3,-2.1 0,-3.2 v -28.3 h 8.8 L 528.9,246 H 514.8 V 228.8 H 499 V 246 h -7.9 l -5.4,10.5 H 499 v 33.8 c -0.1,2.4 0.4,4.8 1.4,7 0.9,1.7 2.3,3.1 3.9,4.1 1.8,1 3.7,1.6 5.8,1.9 2.3,0.3 4.6,0.5 6.9,0.5 1.6,0 3.1,0 4.8,-0.1 1.5,-0.1 3,-0.2 4.4,-0.5 V 291 c -0.8,0.2 -1.5,0.3 -2.3,0.3 -0.7,0.2 -1.5,0.2 -2.5,0.2 z"
   id="path844" />
		<path
   class="st1"
   d="m 182.4,291.5 c -1.9,0.2 -3.8,-0.2 -5.4,-1.3 -1.1,-1.6 -1.6,-3.5 -1.3,-5.4 v -28.3 h 8.1 L 189.2,246 H 175.8 V 228.8 H 160 V 246 h -7.9 l -5.4,10.5 H 160 v 33.8 c -0.1,2.4 0.4,4.8 1.4,7 0.9,1.7 2.3,3.1 3.9,4.1 1.8,1 3.8,1.6 5.8,1.9 2.3,0.3 4.6,0.5 6.9,0.5 1.6,0 3.1,0 4.8,-0.1 1.5,-0.1 3,-0.2 4.4,-0.5 V 291 c -0.8,0.2 -1.5,0.3 -2.3,0.3 -0.8,0.2 -1.7,0.2 -2.5,0.2 z"
   id="path846" />
		<path
   class="st1"
   d="m 702.2,244.5 c -13.2,0 -18.3,12.2 -18.3,12.2 h -0.2 V 246 h -14.9 v 57.2 h 15.7 v -23.9 0 c 0,-13.9 2.7,-20.2 14.6,-20.2 2.1,0 4.3,0.5 6.2,1.5 l 6.7,-13.3 c -2.9,-1.9 -6.3,-2.8 -9.8,-2.8 z"
   id="path848" />
		<polygon
   class="st1"
   points="582.1,284.8 572.4,246 557.1,246 547.6,284.9 547.4,284.9 536.9,246 526.6,266.1 538.4,303.3 554.7,303.3 564.4,264.8 564.6,264.8 574.8,303.3 591,303.3 609,246 592.9,246 582.4,284.8 "
   id="polygon850" />
	</g>
</g>
<rect
   x="0"
   y="0"
   class="st2"
   width="771.29999"
   height="155.3"
   id="rect854" />
</svg>
