<svg xmlns="http://www.w3.org/2000/svg" xml:space="preserve" id="Layer_1" x="0px" y="0px" version="1.1" viewBox="0 0 595.2 75"><style>.st0{fill:rgba(255,255,255,.75)}</style><path d="M40.1 32.8h40.1v9H40.1z" class="st0"/><path d="M100.2 0H73.7l6.4 9.1L99.5 15c3.6 1.1 5.9 4.5 5.8 8v29c0 3.6-2.3 6.9-5.8 8l-19.3 5.9-6.5 9.1h26.5c11.1 0 20-9 20-20V20c.1-11-8.9-20-20-20M20 0h26.5l-6.4 9.1L20.8 15c-3.6 1.1-5.9 4.5-5.8 8v29c0 3.6 2.3 6.9 5.8 8l19.3 5.9 6.4 9.1H20C9 75 0 66 0 55V20C0 9 9 0 20 0m424.9 52.4c0 6.5-5.3 11.7-11.9 11.7s-11.9-5.3-11.9-11.7V23.7c0-6.5 5.3-11.7 11.9-11.7 6.5 0 11.9 5.3 11.9 11.7v.3h9.1v-.4C454 12.3 444.6 3 433 3s-21 9.3-21 20.7v28.6c0 11.4 9.4 20.7 21 20.7 11.5 0 20.9-9.3 21-20.7V52h-9.1zm47.2-30.9c-9.6 0-17.6 7.5-18 17v17.6c.5 9.5 8.4 17 18 17s17.5-7.5 18-17V38.5c-.4-9.5-8.3-17-18-17M501 55c-.1 5-4 8.9-8.9 8.9s-8.8-3.9-8.9-8.9V39.5c0-4.9 4-8.9 8.9-8.9s8.9 4 8.9 8.9zM458.5 3h9.1v69h-9.1zM208.8 21.5h9.1v50.4h-9.1zM190.7 3h9.1v69h-9.1zm-22.9 0h-11.1l-18.3 68.9v.1h9l4.9-18.3 20 .1 4.8 18.2v.1h9zm2.1 41.7h-15.2l7.6-28.6zM543.6 56c0 4.9-4 8.9-8.9 8.9s-8.9-4-8.9-8.9V21.5h-9.1v36c0 8.6 7 15.6 15.6 15.6 1.6 0 3.1-.2 4.6-.7.9-.3 1.7-.6 2.5-1 1.4-.7 2.7-1.6 3.8-2.7l.4-.4V72h9.1V21.5h-9.1zM208.8 3h9.1v9.1h-9.1zm38.5 18.5c-4.1 0-8 1.6-10.9 4.5l-.4.4V3h-9.1v69h9.1v-3.7l.4.4c2.9 2.9 6.8 4.5 10.9 4.5 8.6 0 15.6-7 15.6-15.6V37.1c0-8.7-7-15.6-15.6-15.6m6.6 17.2v17.1c0 4.9-4 9-9 9-4.9 0-9-4-9-9V38.7c0-4.9 4-9 9-9 5 .1 9 4.1 9 9m77.8-17.3c-4.1 0-8 1.6-10.9 4.5l-.4.4V3h-9.1v69h9.1v-3.7l.4.4c2.9 2.9 6.8 4.5 10.9 4.5 8.6 0 15.6-7 15.6-15.6V37c0-8.6-7-15.6-15.6-15.6m6.6 17.3v17.1c0 4.9-4 9-9 9-4.9 0-9-4-9-9V38.7c0-4.9 4-9 9-9s9 4.1 9 9M586.2 3v23.3l-.4-.4c-2.9-2.9-6.8-4.5-10.9-4.5-8.6 0-15.6 7-15.6 15.6v20.5c0 8.6 7 15.5 15.6 15.5 4.1 0 8-1.6 10.9-4.5l.4-.4v3.7h9.1V3zm-.1 35.7v17.1c0 4.9-4 9-9 9-4.9 0-9-4-9-9V38.7c0-4.9 4-9 9-9s9 4.1 9 9m-281.3-.1c0-.5-.1-1.1-.2-1.8v-.2c-.5-2.7-1.5-5.3-3.1-7.6-3.2-4.5-8.1-7.2-13.5-7.5h-1c-4.2 0-8.3 1.5-11.6 4.2-3.2 2.7-5.4 6.4-6.2 10.6v.1h8.9v-.1c.8-4.2 4.5-7.2 8.7-7.2 2.3 0 4.5.9 6.2 2.5s2.6 3.8 2.7 6.1v4.2h-12.9c-8.6 0-15.6 7-15.6 15.6 0 7.2 5 13.3 11.7 15.1.1 0 .2 0 .2.1.3.1.6.1.9.2s.7.1 1.1.2h.2c.7.1 1.5.1 2.4.1 2.2 0 4.1-.3 5.4-.8 2.3-.7 4.4-2 6.2-3.7l.4-.4V72h9.1zm-20.2 10.1h11v6.4c0 4.8-3.5 9-8.2 9.9-.7.2-1.4.2-2 .2-1.6 0-3.1-.4-4.6-1.3-.4-.2-.8-.5-1.2-.7-.5-.4-1-.9-1.4-1.4l-.1-.1c-1.1-1.4-1.7-3.1-1.7-4.9.1-4.5 3.7-8.1 8.2-8.1m104.7-10.1c0-.5-.1-1.1-.2-1.8v-.2c-.5-2.7-1.5-5.3-3.1-7.6-3.2-4.5-8.1-7.2-13.5-7.5h-1c-4.2 0-8.3 1.5-11.6 4.2-3.2 2.7-5.4 6.4-6.2 10.6v.1h8.9v-.1c.8-4.2 4.5-7.2 8.7-7.2 2.3 0 4.5.9 6.2 2.5s2.6 3.8 2.7 6.1v4.2h-12.9c-8.6 0-15.6 7-15.6 15.6 0 7.2 5 13.3 11.7 15.1.1 0 .2 0 .2.1.3.1.6.1.9.2s.7.1 1.1.2h.2c.7.1 1.5.1 2.4.1 2.2 0 4.1-.3 5.4-.8 2.3-.7 4.4-2 6.2-3.7l.4-.4V72h9.1zm-20.2 10.1h11v6.4c0 4.8-3.5 9-8.2 9.9-.7.2-1.4.2-2 .2-1.6 0-3.1-.4-4.6-1.3-.4-.2-.8-.5-1.2-.7-.5-.4-1-.9-1.4-1.4l-.1-.1c-1.1-1.4-1.7-3.1-1.7-4.9.1-4.4 3.7-8.1 8.2-8.1" class="st0"/></svg>