<svg xmlns="http://www.w3.org/2000/svg" xml:space="preserve" id="Layer_1" width="771.29999" height="155.3" x="0px" y="0px" version="1.0" viewBox="0 0 771.29998 155.3"><style id="style824" type="text/css">.st1{fill:rgba(255,255,255,.75)}</style><g id="Layer_2" transform="translate(-68.7 -188.7)"><g id="Layer_1-2"><path id="polygon826" d="m111.5 303.3 48.7-95.5h-22.6l-48.7 95.5z" style="fill:rgba(255,255,255,.75)"/><path id="path828" d="m417.5 246-3.9 7.6h-.3c-1.6-3-4.1-5.5-7.1-7.1-3.1-1.4-6.4-2.1-9.8-2-3.7-.1-7.3.7-10.6 2.3-3 1.5-5.6 3.6-7.7 6.3s-3.7 5.8-4.7 9.1c-1.1 3.5-1.6 7.1-1.6 10.7 0 3.7.4 7.5 1.3 11.1.8 3.3 2.3 6.4 4.4 9.2 2 2.6 4.6 4.8 7.6 6.2 3.5 1.6 7.3 2.4 11.1 2.3 3.4 0 6.8-.7 9.9-2.2 3.1-1.4 5.6-3.7 7.3-6.7h.2v7.6c0 8.9-4.2 14-12.5 14s-12.8-3.6-15.1-6.5l-5.6 11.2s6.4 5.8 18.6 5.8c20.2 0 29.7-9.8 29.7-25.3V246Zm-4.7 33.9c-.5 1.8-1.4 3.5-2.5 5s-2.6 2.7-4.2 3.6c-1.8.9-3.8 1.4-5.9 1.3-2.1.1-4.3-.5-6.1-1.5-1.6-1-2.9-2.4-3.9-4-1-1.7-1.7-3.5-2.1-5.5s-.6-4.1-.6-6.1c0-2.1.2-4.1.7-6.1.4-1.9 1.2-3.6 2.3-5.2 1-1.5 2.4-2.7 4-3.6 1.8-.9 3.7-1.4 5.7-1.3 2.2-.1 4.4.4 6.4 1.4 1.6.9 3 2.2 4.1 3.8 1.1 1.7 1.8 3.6 2.2 5.6.4 2.2.7 4.4.7 6.7 0 1.9-.2 3.9-.8 5.9" class="st1"/><path id="path830" d="M207.9 224.2V254h.3c1.8-3.1 4.4-5.6 7.6-7.2 2.8-1.5 5.9-2.2 9.1-2.3 3.5-.1 7.1.5 10.4 1.8 2.5 1 4.7 2.7 6.4 4.8 1.6 2.2 2.7 4.7 3.2 7.4.7 3.2 1 6.4.9 9.7v35.2h-15.7V271c.3-3.7-.5-7.3-2.2-10.6-1.5-2.3-4.1-3.6-7.9-3.6-4.3 0-7.4 1.3-9.3 3.8s-2.9 6.7-2.9 12.5v30.1h-15.7v-79z" class="st1"/><path id="path832" d="M252.5 262.3c1.3-3.6 3.3-6.8 6-9.5 2.6-2.7 5.8-4.7 9.3-6.1 7.9-2.9 16.5-2.9 24.4 0 7.2 2.7 12.8 8.4 15.3 15.6 2.8 8.1 2.8 16.9 0 24.9-1.3 3.5-3.4 6.8-6 9.5-2.7 2.6-5.9 4.6-9.4 5.9-7.9 2.8-16.5 2.8-24.4 0-7.1-2.7-12.7-8.4-15.3-15.5-2.8-8.1-2.8-16.8.1-24.8m14.3 19.1c.4 2.1 1.2 4.1 2.3 5.9 1 1.7 2.5 3.1 4.2 4.1 2 1.1 4.3 1.6 6.6 1.6 2.3.1 4.6-.5 6.7-1.6 1.8-1 3.3-2.4 4.3-4.1 1.1-1.8 1.9-3.8 2.3-5.9.4-2.2.7-4.4.7-6.7s-.2-4.5-.7-6.8c-.4-2.1-1.2-4.1-2.3-5.9-1.1-1.7-2.6-3.2-4.3-4.2-2-1.1-4.4-1.7-6.7-1.6-4.4-.2-8.6 2-10.9 5.7-1.1 1.8-1.9 3.8-2.3 5.9-.5 2.2-.7 4.5-.7 6.8.1 2.3.3 4.6.8 6.8" class="st1"/><path id="path834" d="M352.5 303.3v-7.9h-.3c-1.8 3.1-4.5 5.6-7.8 7.1-3 1.4-6.4 2.2-9.8 2.2-3.5.1-7-.5-10.3-1.6-2.5-1-4.7-2.6-6.4-4.8-1.6-2.2-2.7-4.7-3.3-7.4-.7-3.2-1-6.4-1-9.7V246h15.7v32.3c-.2 3.7.5 7.3 2.2 10.6 1.5 2.3 4.1 3.5 7.9 3.6 4.3 0 7.4-1.3 9.3-3.8s2.9-6.7 2.9-12.5V246h15.7v57.2z" class="st1"/><path id="path836" d="M450.2 224.2V254h.3c1.8-3.1 4.4-5.6 7.6-7.2 2.8-1.5 5.9-2.2 9.1-2.3 3.5-.1 7.1.5 10.4 1.8 2.5 1 4.7 2.6 6.4 4.7 1.6 2.2 2.7 4.7 3.3 7.4.6 3.2 1 6.4.9 9.7v35.2h-15.7V271c.2-3.7-.5-7.3-2.2-10.6-1.5-2.4-4.1-3.6-7.9-3.6-4.3 0-7.4 1.3-9.3 3.8s-2.9 6.7-2.9 12.5v30.1h-15.7v-79z" class="st1"/><path id="path838" d="M608.2 262.3c2.6-7.2 8.2-12.9 15.3-15.6 7.9-2.9 16.5-2.9 24.4 0 7.2 2.7 12.8 8.4 15.3 15.6 2.8 8.1 2.8 16.9 0 24.9-1.3 3.5-3.4 6.8-6 9.5-2.6 2.6-5.8 4.6-9.3 5.9-7.9 2.8-16.5 2.8-24.4 0-3.5-1.3-6.7-3.4-9.3-6-2.6-2.7-4.7-5.9-6-9.5-2.8-8-2.8-16.8 0-24.8m14.3 19.1c.4 2.1 1.2 4.1 2.3 5.9 1.1 1.7 2.5 3.1 4.3 4.1 2 1.1 4.3 1.6 6.7 1.6 2.3.1 4.6-.5 6.7-1.6 1.8-1 3.3-2.4 4.3-4.1 1.1-1.8 1.9-3.8 2.3-5.9.4-2.2.7-4.4.7-6.7s-.2-4.5-.7-6.8c-.4-2.1-1.2-4.1-2.3-5.9-1.1-1.7-2.6-3.2-4.3-4.2-2-1.1-4.4-1.7-6.7-1.6-2.3-.1-4.6.5-6.7 1.6-1.7 1-3.2 2.4-4.3 4.1-1.1 1.8-1.9 3.8-2.3 5.9-.4 2.2-.7 4.5-.7 6.8s.2 4.6.7 6.8" class="st1"/><path id="path840" d="M730.2 224.2v42.4L750 246h18.6L747 267l24 36.2h-19l-15.7-25.5-6.1 5.9v19.7h-15.8v-79z" class="st1"/><path id="path842" d="M782.7 289q1.05 1.8 2.7 3c1.2.8 2.5 1.4 3.8 1.8 1.5.4 3 .6 4.5.5 1.2 0 2.3-.1 3.5-.4q1.8-.3 3.3-1.2c1-.5 1.8-1.3 2.5-2.2.7-1 1.1-2.3 1-3.6 0-2.4-1.6-4.1-4.7-5.4-4.3-1.5-8.7-2.7-13.1-3.6-2.3-.5-4.5-1.1-6.7-1.8-2.1-.6-4.1-1.5-5.9-2.7-1.7-1.1-3.1-2.6-4.1-4.3-1.1-1.9-1.6-4.1-1.5-6.4-.1-3.2.6-6.3 2.2-9.1 1.4-2.3 3.4-4.2 5.7-5.6 2.5-1.4 5.2-2.4 8-2.9 3-.6 6-.8 9.1-.8q4.5 0 9 .9 4.2.75 7.8 3c2.3 1.4 4.2 3.3 5.7 5.6 1.6 2.7 2.6 5.7 2.7 8.8h-15c.1-2.5-1.2-4.9-3.4-6.1-2.3-1.1-4.8-1.7-7.3-1.6-1 0-1.9.1-2.9.2s-1.9.4-2.8.7c-.8.3-1.6.9-2.2 1.6-.6.8-.9 1.8-.9 2.8 0 1.3.5 2.6 1.5 3.4 1.2 1 2.5 1.7 4 2.2q2.85.9 5.7 1.5c2.1.5 4.3.9 6.5 1.5 2.3.5 4.5 1.1 6.7 1.9 2.1.7 4 1.7 5.8 2.9 1.7 1.2 3.1 2.7 4.1 4.5 1.1 2.1 1.6 4.4 1.6 6.7.3 6.3-2.8 12.3-8.2 15.6-2.6 1.6-5.4 2.7-8.3 3.3q-4.8.9-9.6.9c-3.3 0-6.5-.3-9.7-1-3-.6-5.9-1.7-8.5-3.4-5.5-3.3-8.8-9.3-8.7-15.7h15c-.1 1.7.3 3.2 1.1 4.5" class="st1"/><path id="path844" d="M521.4 291.5c-2.8.9-5.8-.7-6.7-3.5-.3-1-.3-2.1 0-3.2v-28.3h8.8l5.4-10.5h-14.1v-17.2H499V246h-7.9l-5.4 10.5H499v33.8c-.1 2.4.4 4.8 1.4 7 .9 1.7 2.3 3.1 3.9 4.1 1.8 1 3.7 1.6 5.8 1.9 2.3.3 4.6.5 6.9.5 1.6 0 3.1 0 4.8-.1 1.5-.1 3-.2 4.4-.5V291c-.8.2-1.5.3-2.3.3-.7.2-1.5.2-2.5.2" class="st1"/><path id="path846" d="M182.4 291.5c-1.9.2-3.8-.2-5.4-1.3-1.1-1.6-1.6-3.5-1.3-5.4v-28.3h8.1l5.4-10.5h-13.4v-17.2H160V246h-7.9l-5.4 10.5H160v33.8c-.1 2.4.4 4.8 1.4 7 .9 1.7 2.3 3.1 3.9 4.1 1.8 1 3.8 1.6 5.8 1.9 2.3.3 4.6.5 6.9.5 1.6 0 3.1 0 4.8-.1 1.5-.1 3-.2 4.4-.5V291c-.8.2-1.5.3-2.3.3-.8.2-1.7.2-2.5.2" class="st1"/><path id="path848" d="M702.2 244.5c-13.2 0-18.3 12.2-18.3 12.2h-.2V246h-14.9v57.2h15.7v-23.9c0-13.9 2.7-20.2 14.6-20.2 2.1 0 4.3.5 6.2 1.5l6.7-13.3c-2.9-1.9-6.3-2.8-9.8-2.8" class="st1"/><path id="polygon850" d="m582.1 284.8-9.7-38.8h-15.3l-9.5 38.9h-.2L536.9 246l-10.3 20.1 11.8 37.2h16.3l9.7-38.5h.2l10.2 38.5H591l18-57.3h-16.1l-10.5 38.8z" class="st1"/></g></g><path id="rect854" d="M0 0h771.3v155.3H0z" style="fill:none"/></svg>