<svg xmlns="http://www.w3.org/2000/svg" xml:space="preserve" id="Layer_1" x="0px" y="0px" version="1.1" viewBox="0 0 623 150.2"><style>.st3{fill:#020617}.st3,.st4,.st6{fill-rule:evenodd;clip-rule:evenodd}.st4{fill:none}.st6{fill:#020617}.st8{fill:rgba(255,255,255,.75)}</style><circle cx="66" cy="74.2" r="62.3" style="fill-rule:evenodd;clip-rule:evenodd;fill:rgba(255,255,255,.75)"/><path d="M69.7 136.4h-7.8c-.1-.2-.4-.1-.5-.2-2.5-.2-4.9-.5-7.3-1-10.7-2.1-20.1-6.8-28.3-14-4.3-3.7-7.9-7.9-11-12.7 1.4 0 2.9 0 4.3-.1h15c.6 0 .5-.4.5-.7V98c0-.7-.2-.9-.9-.9H15c-.7 0-.9-.2-.8-.8V51.8c0-.7.2-.9.9-.9h15.1c.6 0 .8-.1.8-.7.4-4.5 2.4-8 6.3-10.4 8-4.8 18.7.1 19.6 10.3.1.7.2.8.9.8h18.7c.7 0 .8.2.8.8v44.5c0 .7-.2.9-.9.9H57.7c-.7 0-.8.2-.8.9v9.6c0 .7.2.8.8.8H81v11q.15 1.5 0 3v12.2c-2.3.7-4.7 1-7.1 1.4-1.5.1-2.9 0-4.2.4M44.4 82.6H29.7c-1.3 0-2.2.9-2.3 2.1-.1 1.3.7 2.3 2 2.5.3.1.6.1.9.3 1.6.6 3.2 1.2 4.9 1.7 5.1 1.5 10.3 2 15.6.9 3.2-.7 6.2-1.9 9.2-3 1-.3 1.6-1.5 1.3-2.6-.2-1.1-1.1-1.8-2.3-1.8-4.8-.1-9.7-.1-14.6-.1M43.7 51h10.2c1 0 1 0 .9-1v-.2c-.7-5.6-5.1-9.6-10.8-9.9-5.8-.2-11 4.5-11.4 10.2 0 .7.1 1 .9 1 3.4-.1 6.8-.1 10.2-.1m15.8 24.2c3.1 0 5.6-2.5 5.6-5.6 0-3.2-2.5-5.7-5.6-5.7s-5.6 2.5-5.6 5.6c-.1 3.2 2.4 5.7 5.6 5.7m-22.3-5.5c0-3.1-2.5-5.6-5.6-5.7-3.1 0-5.6 2.5-5.6 5.6s2.5 5.6 5.6 5.6c3.1.1 5.6-2.4 5.6-5.5" class="st3"/><path d="M44.4 82.6H59c1.2 0 2.1.7 2.3 1.8.2 1-.3 2.2-1.3 2.6-3.1 1-6 2.3-9.2 3-5.3 1.1-10.5.6-15.6-.9-1.7-.5-3.3-1-4.9-1.7l-.9-.3c-1.3-.2-2.1-1.3-2-2.5s1.1-2.1 2.3-2.1c4.9.1 9.8.1 14.7.1" class="st4"/><path d="M43.7 51H33.5c-.8 0-.9-.2-.9-1 .3-5.7 5.6-10.4 11.4-10.2 5.7.2 10.1 4.2 10.8 9.9v.2c.1 1 .1 1-.9 1-3.4.1-6.8.1-10.2.1" style="fill-rule:evenodd;clip-rule:evenodd;fill:rgba(255,255,255,.75)"/><path d="M80.8 108.5c.9-.9 1.7-1.9 2.6-2.8.2.2.5.4.7.5 3.1 2.1 6.1 4.3 9.2 6.4-2.9 3.6-6.2 6.8-10 9.4-.8-.9-1.6-1.7-2.4-2.6v-9.9c-.1-.3-.1-.7-.1-1" class="st6"/><path d="M59.5 75.2c-3.1 0-5.7-2.5-5.6-5.6 0-3.2 2.5-5.6 5.6-5.6 3.2 0 5.7 2.5 5.6 5.7 0 3-2.5 5.5-5.6 5.5m-22.3-5.5c0 3.1-2.5 5.6-5.6 5.6S26 72.8 26 69.7s2.5-5.6 5.6-5.6c3.1-.1 5.6 2.5 5.6 5.6m43.6 49.7c.8.9 1.6 1.7 2.4 2.6-.6.4-1.2.8-1.7 1.2-.1-.4-.4-.6-.7-.8q.15-1.5 0-3" class="st4"/><path d="M80.8 122.4c.3.2.6.5.7.8-.2.1-.5.3-.7.4z" style="fill-rule:evenodd;clip-rule:evenodd;fill:#020617"/><path d="M97.9 70.2c-.6-.4-1.3-.9-1.9-1.3-3.5-2.7-5.4-6.3-6.6-10.5-.6-2.2-.9-4.4-1-6.7 0-.7.2-.8.8-.8h6c.5 0 .6.1.6.6 0 2.9.5 5.7 1.8 8.3q.9 1.8 2.4 3c2.3 1.8 5.4 1.5 7.3-.8 1.7-2 2.4-4.5 2.9-7 .2-1.2.3-2.3.4-3.5q0-.6.6-.6h6.3c.3 0 .6-.1.6.4-.4 6.4-2.2 12.3-7.1 16.8-.6.5-1.2 1-1.9 1.4-.2.1-.5.2-.5.5-.3 0-.6.1-.9.2-2.3 1-4.7 1.2-7.1.6-1.1.1-1.9-.3-2.7-.6" class="st3"/><path d="M84.6 104.1c2.3-3 4.2-6.1 6-9.4 1.4.7 2.9 1.3 4.3 2 2.2 1 4.4 2.1 6.6 3-.4 1.3-1.1 2.4-1.8 3.5-1.5 2.7-3.2 5.4-5.2 7.8-3.2-2.3-6.6-4.6-9.9-6.9m22.1-18.8c-.6 2.9-1.5 5.7-2.5 8.5-.5 1.4-1 2.7-1.7 4-2-.9-4-1.9-5.9-2.8-1.6-.7-3.2-1.6-4.9-2.2-.1-.2 0-.3.1-.4 1.5-3.2 2.8-6.5 3.8-9.9 0-.1.1-.1.1-.2 3.6 1 7.3 2 11 3m-8.8-15.1c.9.2 1.6.6 2.5.9 2.5.6 4.8.4 7.1-.6.3-.1.6-.2.9-.2.1 1.8 0 3.7-.1 5.5-.2 2.6-.5 5.2-1.1 7.7-3.7-1-7.3-2-11-3.1.8-3.4 1.4-6.7 1.7-10.2" class="st6"/><path d="M84.6 104.1c3.3 2.3 6.7 4.6 10 6.9-.4.5-.9 1.1-1.3 1.6-3.1-2.1-6.1-4.3-9.2-6.4-.2-.2-.5-.4-.7-.5.4-.6.8-1.1 1.2-1.6m7.1-11.3c1.7.6 3.2 1.4 4.9 2.2 2 .9 4 1.9 5.9 2.8-.3.6-.6 1.3-.9 1.9-2.3-.9-4.4-2-6.6-3-1.4-.6-2.9-1.3-4.3-2 .3-.6.6-1.2 1-1.9m4.5-12.4c3.7 1 7.3 2 11 3.1-.1.6-.3 1.3-.4 1.9-3.7-1-7.4-2-11-3.1 0-.7.2-1.3.4-1.9" class="st4"/><path d="M202.7 73.4C201.2 64 196 58.3 186 58.3c-14.7 0-19.4 14-19.4 26.5 0 12.1 3 27.1 19.3 27.1 7.9 0 14.8-5.9 16.8-16.7h11.4c-1.2 11.2-8.1 26.9-28.7 26.9-19.8 0-31.5-14.9-31.5-35.3 0-21.8 10.5-39.2 33.8-39.2 18.5 0 25.5 13.5 26.4 25.7h-11.4zm35.4 46.7h-11.9V23.4h11.9zM312.2 98c-.4 3.4-3.6 13.3-12.5 19.3-3.2 2.2-7.8 4.8-19.1 4.8-19.8 0-31.5-14.9-31.5-35.3 0-21.8 10.5-39.2 33.8-39.2 20.3 0 30.3 16.2 30.3 41.1h-51.4c0 14.7 6.9 23.2 20.5 23.2 11.2 0 17.8-8.6 18.2-13.9zm-11.3-18.7c-.7-10.9-5.3-21-19.7-21-10.9 0-19.5 10.1-19.5 21zm24.2-8.2c.5-16.8 11.7-23.4 29.1-23.4 5.7 0 26.1 1.6 26.1 19.7v40.5c0 3 1.5 4.2 3.9 4.2 1.1 0 2.6-.3 3.9-.5v8.6c-2 .5-3.8 1.3-6.5 1.3-10.5 0-12.1-5.4-12.5-10.8-4.6 5-11.7 11.4-25.5 11.4-12.9 0-22.1-8.2-22.1-20.3 0-5.9 1.7-19.7 21.4-22.1l19.5-2.4c2.8-.3 6.2-1.3 6.2-8.4 0-7.4-5.4-11.4-16.6-11.4-13.5 0-15.4 8.2-16.2 13.6zm43.4 13.1c-1.9 1.5-4.8 2.6-19.5 4.4-5.8.8-15.1 2.6-15.1 11.4 0 7.7 3.9 12.3 12.8 12.3 11 0 21.8-7.1 21.8-16.6zm40.1 35.9h-11.9V49.7H408v11.7h.3c4.7-8.2 10.9-13.7 19.8-13.7 1.5 0 2.2.1 3.1.4v12.3h-4.4c-11 0-18 8.6-18 18.9v40.8z" class="st8"/><path d="M467 120.1h-20.2V40.5h-29.2V23.4h78.6v17.1H467z" class="st8"/><path d="M543.1 106.1c0 8.5 1.9 10.4 4.2 11.2v2.8H527c-1.1-3.4-1.3-4.4-1.7-8.5-4.3 4.4-10.4 10.4-23.2 10.4-10.8 0-21.8-6.1-21.8-20.9 0-14 8.9-21.1 20.9-22.9l17-2.6c3-.4 6.6-1.6 6.6-5.7 0-7.9-7.5-8.4-12.4-8.4-9.4 0-11 5.8-11.6 10h-18.2c2.2-22 17.4-25 32.1-25 10.1 0 28.6 3.1 28.6 20.7v38.9zm-18.5-20.9c-1.9 1.5-5 2.7-12.8 3.9-7 1.2-12.8 3-12.8 10.8 0 6.6 5.1 8.6 8.8 8.6 8.4 0 16.8-5.4 16.8-14.1zm95.9 34.9h-23.3l-12.4-21.5-12.4 21.5h-22.8L574 83.6l-23.4-35.1h22.9l12.1 20.9 11.9-20.9h22.2l-23.6 35.1z" class="st8"/></svg>