<svg xmlns="http://www.w3.org/2000/svg" xml:space="preserve" width="1000" height="249" x="0px" y="0px" viewBox="0 0 1000 249"><path d="M0 596.324v248.003L1000 845V596.324z" style="fill:rgba(255,255,255,.75);fill-opacity:1;fill-rule:nonzero;stroke:none" transform="translate(0 -596)"/><path d="m1364.188-585.17-172.196 254.995c-17.91 26.986-49.327 43.298-82.212 43.298-53.547 0-97.872-43.998-97.872-97.09 0-53.873 44.324-97.79 98.247-97.79 5.345-.684 12.515-1.434 17.518-1.434 37.17 0 75.042 15.595 100.772 41.831l51.429-77.942c-40.005-41.065-99.321-67.35-158.654-67.35-110.761 0-212.218 91.402-212.218 201.936 0 109.881 90.75 199.833 201.545 199.833 53.58 0 107.16-22.667 144.33-60.245h118.616l.704 60.245h102.94v-400.286h-112.945zm-47.11 252.176 56.415-78.578.704 78.578h-57.115zm357.285 148.106h-102.908v-306.814h-80.027v-92.804l262.93-.669v93.472h-79.995zM2097.4-585.17l-102.908.027-.717 149.447h-121.5l-.77-149.48H1768.68v400.287h103.59v-158.02h122.218v158.02h102.908v-400.287zm824.634 0v186.276l-141.479-186.275-93.65.652-.704 145.992c-23.58-85.03-104.34-146.644-194.375-146.644-110.745 0-201.512 89.92-201.512 200.453 0 35.492 10.707 71.538 27.833 102.76h-101.946v-303.213H2111.34v400.286h239.725v-56.008c37.871 34.742 89.317 56.008 140.762 56.008 90.034 0 169.377-60.245 194.375-145.292l.704 145.292h103.656V-379.68l140.713 194.798h93.585l.13-400.286h-102.94zm-430.205 302.513c-56.449 0-102.891-45.334-102.891-102.06 0-55.942 46.442-101.977 102.89-101.977 57.198 0 103.641 46.035 103.641 101.978 0 56.725-46.443 102.06-103.64 102.06m-1707.278.706v-56.024h110.437l-.196-97.725h-110.24v-50.989H906.28l-.209-98.475-234.38.652v137.47c-24.297-75.09-94.353-130.381-174.38-137.47l-177.933-.652v400.27h178.666c79.294-7.056 149.35-62.314 173.646-136.72v136.72h234.592l-.208-97.056H784.557zM558.06-323.763c-6.405 26.953-32.152 46.035-60.018 46.752h-65.736v-214.695h65.736c27.866 0 53.613 19.93 60.018 47.518 6.453 18.43 10.02 39.68 10.02 59.48 0 20.597-3.567 41.814-10.02 60.945" style="fill:#020617;fill-opacity:1;fill-rule:nonzero;stroke:none" transform="translate(-43.835 250.123)scale(.32522)"/></svg>