<svg xmlns="http://www.w3.org/2000/svg" width="512" height="512" fill="none" viewBox="0 0 512 512"><g clip-path="url(#a)"><mask id="c" width="512" height="512" x="0" y="0" maskUnits="userSpaceOnUse" style="mask-type:alpha"><rect width="512" height="512" fill="url(#b)" rx="256"/></mask><g mask="url(#c)"><rect width="512" height="512" fill="url(#d)" rx="256"/><g filter="url(#e)" opacity="0.5"><path fill="url(#f)" fill-rule="evenodd" d="M256 512c141.385 0 256-114.615 256-256S397.385 0 256 0 0 114.615 0 256s114.615 256 256 256m0-16c132.548 0 240-107.452 240-240S388.548 16 256 16 16 123.452 16 256s107.452 240 240 240" clip-rule="evenodd"/></g></g><path fill="#fff" fill-rule="evenodd" d="M194.418 125.687c-41.123-1.465-71.595 8.579-79.183 29.529-13.11 36.021 46.214 90.686 132.525 122.088 86.296 31.409 166.886 27.682 179.997-8.339 7.625-20.95-9.269-48.209-41.698-73.526a31.5 31.5 0 0 1-10.081 4.627c-15.437 4.079-42.995 3.609-94.589-15.157-51.585-18.788-72.998-36.142-82.201-49.189a31.7 31.7 0 0 1-4.748-10.025zm85.989 110.431a16.62 16.62 0 0 1-8.536 9.766 16.63 16.63 0 0 1-12.954.665 16.63 16.63 0 0 1-10.933-15.301 16.6 16.6 0 0 1 1.19-6.51 16.629 16.629 0 0 1 30.535-1.2 16.64 16.64 0 0 1 .698 12.58m-93.735-34.142a16.62 16.62 0 0 0 12.968-.261 16.63 16.63 0 0 0 9.814-16.042 16.62 16.62 0 0 0-5.672-11.665 16.6 16.6 0 0 0-5.752-3.272 16.63 16.63 0 0 0-11.373 31.247zm177.586 46.93a16.634 16.634 0 0 1-30.703 1.352 16.63 16.63 0 0 1-.56-12.718 16.632 16.632 0 0 1 31.263 11.366" clip-rule="evenodd"/><path fill="#fff" d="M242.383 328.453a12.475 12.475 0 0 0-7.597-15.57 12.47 12.47 0 0 0-15.828 7.044l-33.168 91.061a12.473 12.473 0 0 0 7.456 15.99 12.477 12.477 0 0 0 15.99-7.456zM218.679 119.64a78.655 78.655 0 0 1 93.071-31.382l8.479 3.074a78.654 78.654 0 0 1 51.109 83.871 7 7 0 0 1-1.761.748c-8.108 2.129-29.828 3.634-79.676-14.497-49.84-18.153-65.504-33.251-70.353-40.109a7 7 0 0 1-.869-1.705m-64.001 157.896a12.475 12.475 0 0 0-8.989-15.184 12.476 12.476 0 0 0-15.184 8.988l-14.434 56.399a12.5 12.5 0 0 0 1.259 9.541 12.5 12.5 0 0 0 7.677 5.805 12.48 12.48 0 0 0 13.151-4.694 12.5 12.5 0 0 0 2.071-4.449zm180.833 53.893a12.47 12.47 0 0 1 7.064 11.93 12.5 12.5 0 0 1-1.21 4.716l-25.189 52.497a12.47 12.47 0 0 1-7.11 6.374 12.48 12.48 0 0 1-15.91-7.631 12.47 12.47 0 0 1 .521-9.535l25.195-52.482a12.48 12.48 0 0 1 11.922-7.075c1.637.088 3.239.498 4.717 1.206" opacity="0.5"/></g><defs><linearGradient id="b" x1="0" x2="512" y1="0" y2="512" gradientUnits="userSpaceOnUse"><stop stop-color="#FF6363"/><stop offset="1" stop-color="#D72A2A"/></linearGradient><linearGradient id="d" x1="0" x2="512" y1="0" y2="512" gradientUnits="userSpaceOnUse"><stop stop-color="#AE55F4"/><stop offset="1" stop-color="#6A18BC"/></linearGradient><linearGradient id="f" x1="0" x2="512" y1="0" y2="512" gradientUnits="userSpaceOnUse"><stop stop-color="#fff"/><stop offset="1" stop-color="#fff" stop-opacity="0"/></linearGradient><clipPath id="a"><path fill="#fff" d="M0 0h512v512H0z"/></clipPath><filter id="e" width="536" height="536" x="-12" y="-12" color-interpolation-filters="sRGB" filterUnits="userSpaceOnUse"><feFlood flood-opacity="0" result="BackgroundImageFix"/><feBlend in="SourceGraphic" in2="BackgroundImageFix" result="shape"/><feGaussianBlur result="effect1_foregroundBlur_107_88" stdDeviation="6"/></filter></defs></svg>