<svg xmlns="http://www.w3.org/2000/svg" width="48" height="44"><defs><filter id="a" width="314.4%" height="239.3%" x="-107.2%" y="-69.7%" filterUnits="objectBoundingBox"><feGaussianBlur in="SourceGraphic" stdDeviation="4"/></filter><filter id="b" width="278.6%" height="239.3%" x="-89.3%" y="-69.7%" filterUnits="objectBoundingBox"><feGaussianBlur in="SourceGraphic" stdDeviation="4"/></filter><filter id="c" width="257.9%" height="239.3%" x="-79%" y="-69.7%" filterUnits="objectBoundingBox"><feGaussianBlur in="SourceGraphic" stdDeviation="4"/></filter><filter id="d" width="406%" height="322.7%" x="-153%" y="-111.4%" filterUnits="objectBoundingBox"><feGaussianBlur in="SourceGraphic" stdDeviation="4"/></filter><filter id="e" width="278.6%" height="239.3%" x="-89.3%" y="-69.7%" filterUnits="objectBoundingBox"><feGaussianBlur in="SourceGraphic" stdDeviation="4"/></filter><filter id="f" width="257.9%" height="239.3%" x="-79%" y="-69.7%" filterUnits="objectBoundingBox"><feGaussianBlur in="SourceGraphic" stdDeviation="4"/></filter><filter id="g" width="406%" height="322.7%" x="-153%" y="-111.4%" filterUnits="objectBoundingBox"><feGaussianBlur in="SourceGraphic" stdDeviation="4"/></filter></defs><g fill="none"><g opacity=".64"><path fill="#E24329" d="m15.198 28 5.597-17.225H9.601z" filter="url(#a)" transform="translate(9 8)"/><path fill="#FC6D26" d="M15.198 28 9.601 10.775H1.758z" filter="url(#b)" transform="translate(9 8)"/><path fill="#FCA326" d="M1.758 10.775.057 16.009c-.155.478.015 1 .42 1.296L15.199 28z" filter="url(#c)" transform="translate(9 8)"/><path fill="#E24329" d="M1.758 10.775H9.6L6.231.4c-.174-.534-.93-.533-1.103 0z" filter="url(#d)" transform="translate(9 8)"/><path fill="#FC6D26" d="m15.198 28 5.597-17.225h7.844z" filter="url(#e)" transform="translate(9 8)"/><path fill="#FCA326" d="m28.639 10.775 1.7 5.234c.156.478-.014 1-.42 1.296L15.199 28z" filter="url(#f)" transform="translate(9 8)"/><path fill="#E24329" d="M28.639 10.775h-7.844L24.165.4c.174-.534.93-.533 1.103 0z" filter="url(#g)" transform="translate(9 8)"/></g><path fill="#E24329" d="m24.198 36 5.597-17.225H18.601z"/><path fill="#FC6D26" d="m24.198 36-5.597-17.225h-7.843z"/><path fill="#FCA326" d="m10.758 18.775-1.701 5.234c-.155.478.015 1 .42 1.296L24.199 36l-13.44-17.225Z"/><path fill="#E24329" d="M10.758 18.775H18.6L15.231 8.4c-.174-.534-.93-.533-1.103 0z"/><path fill="#FC6D26" d="m24.198 36 5.597-17.225h7.844z"/><path fill="#FCA326" d="m37.639 18.775 1.7 5.234c.156.478-.014 1-.42 1.296L24.199 36z"/><path fill="#E24329" d="M37.639 18.775h-7.844L33.165 8.4c.174-.534.93-.533 1.103 0l3.37 10.375Z"/></g></svg>