<svg xmlns="http://www.w3.org/2000/svg" width="48" height="46"><defs><radialGradient id="a" cx="50.014%" cy="54.715%" r="71.729%" fx="50.014%" fy="54.715%" gradientTransform="matrix(.92431 0 0 1 .038 0)"><stop offset="0%" stop-color="#FFB900"/><stop offset="60%" stop-color="#F95D8F"/><stop offset="99.9%" stop-color="#F95353"/></radialGradient><filter id="b" width="179.2%" height="185.7%" x="-39.6%" y="-42.9%" filterUnits="objectBoundingBox"><feGaussianBlur in="SourceGraphic" stdDeviation="4"/></filter></defs><g fill="url(#a)" transform="translate(-790 -3592)"><path d="M23.705 14.823A6.588 6.588 0 1 0 23.704 28a6.588 6.588 0 0 0 0-13.176Zm-17.117 0a6.588 6.588 0 1 0 0 13.177 6.588 6.588 0 0 0 0-13.176Zm15.147-8.235a6.589 6.589 0 1 1-13.177 0 6.589 6.589 0 0 1 13.176 0Z" filter="url(#b)" opacity=".64" transform="translate(799 3601)"/><path d="M822.705 3615.823a6.588 6.588 0 1 0-.001 13.176 6.588 6.588 0 0 0 0-13.176Zm-17.117 0a6.588 6.588 0 1 0 0 13.177 6.588 6.588 0 0 0 0-13.176Zm15.147-8.235a6.589 6.589 0 1 1-13.177 0 6.589 6.589 0 0 1 13.176 0Z"/></g></svg>