<svg xmlns="http://www.w3.org/2000/svg" width="49" height="48"><defs><filter id="b" width="209.9%" height="231.5%" x="-54.9%" y="-65.8%" filterUnits="objectBoundingBox"><feGaussianBlur in="SourceGraphic" stdDeviation="4"/></filter><filter id="d" width="189.7%" height="346.1%" x="-44.8%" y="-123.1%" filterUnits="objectBoundingBox"><feGaussianBlur in="SourceGraphic" stdDeviation="4"/></filter><filter id="f" width="248.3%" height="185.7%" x="-74.1%" y="-42.9%" filterUnits="objectBoundingBox"><feGaussianBlur in="SourceGraphic" stdDeviation="4"/></filter><filter id="g" width="189.7%" height="185.7%" x="-44.8%" y="-42.9%" filterUnits="objectBoundingBox"><feGaussianBlur in="SourceGraphic" stdDeviation="4"/></filter><linearGradient id="a" x1="0%" x2="100%" y1="-21.618%" y2="121.618%"><stop offset="0%" stop-color="#F6C338"/><stop offset="52.3%" stop-color="#FFD351"/><stop offset="100%" stop-color="#F6C338"/></linearGradient><linearGradient id="c" x1="100%" x2="0%" y1="-326.611%" y2="426.611%"><stop offset="0%" stop-color="#286EE6"/><stop offset="52.1%" stop-color="#4286FB"/><stop offset="100%" stop-color="#286EE6"/></linearGradient><linearGradient id="e" x1="95.742%" x2="8.1%" y1="0%" y2="100%"><stop offset="0%" stop-color="#069B5A"/><stop offset="53.1%" stop-color="#11AA62"/><stop offset="100%" stop-color="#069B5A"/></linearGradient></defs><g fill="none"><g opacity=".64"><path fill="url(#a)" d="M10.535 0H21.79l10.586 18.249H21.095z" filter="url(#b)" transform="translate(8 10)"/><path fill="url(#c)" d="M32.376 18.249 26.735 28H5.615l5.653-9.751z" filter="url(#d)" transform="translate(8 10)"/><path fill="url(#e)" d="M5.615 28 0 18.249 10.535 0l5.653 9.776z" filter="url(#f)" transform="translate(8 10)"/><path fill="#000" d="m5.615 28 10.51-9.75h-4.857zm26.76-9.75H21.108l-2.478-4.275 13.747 4.274ZM10.536 0l3.25 13.911 2.403-4.135z" filter="url(#g)" opacity=".1" transform="translate(8 10)"/></g><path fill="url(#a)" d="M10.535 0H21.79l10.586 18.249H21.095z" transform="translate(8 10)"/><path fill="url(#c)" d="M32.376 18.249 26.735 28H5.615l5.653-9.751z" transform="translate(8 10)"/><path fill="url(#e)" d="M5.615 28 0 18.249 10.535 0l5.653 9.776z" transform="translate(8 10)"/><path fill="#000" d="m13.615 38 10.51-9.75h-4.857zm26.76-9.75H29.108l-2.478-4.275 13.747 4.274ZM18.536 10l3.25 13.911 2.403-4.135L18.535 10Z" opacity=".1"/></g></svg>