<svg xmlns="http://www.w3.org/2000/svg" width="36" height="46"><defs><filter id="a" width="357.1%" height="357.1%" x="-128.6%" y="-128.6%" filterUnits="objectBoundingBox"><feGaussianBlur in="SourceGraphic" stdDeviation="4"/></filter><filter id="b" width="357.1%" height="357.1%" x="-128.6%" y="-128.6%" filterUnits="objectBoundingBox"><feGaussianBlur in="SourceGraphic" stdDeviation="4"/></filter><filter id="c" width="357.1%" height="357.1%" x="-128.6%" y="-128.6%" filterUnits="objectBoundingBox"><feGaussianBlur in="SourceGraphic" stdDeviation="4"/></filter><filter id="d" width="357.1%" height="357.1%" x="-128.6%" y="-128.6%" filterUnits="objectBoundingBox"><feGaussianBlur in="SourceGraphic" stdDeviation="4"/></filter><filter id="e" width="357.1%" height="357.1%" x="-128.6%" y="-128.6%" filterUnits="objectBoundingBox"><feGaussianBlur in="SourceGraphic" stdDeviation="4"/></filter></defs><g fill="none"><g opacity=".64"><path fill="#0ACF83" d="M4.667 28a4.67 4.67 0 0 0 4.666-4.667v-4.666H4.667A4.67 4.67 0 0 0 0 23.333 4.67 4.67 0 0 0 4.667 28" filter="url(#a)" transform="translate(9 9)"/><path fill="#A259FF" d="M0 14a4.67 4.67 0 0 1 4.667-4.667h4.666v9.334H4.667A4.67 4.67 0 0 1 0 14" filter="url(#b)" transform="translate(9 9)"/><path fill="#F24E1E" d="M0 4.667A4.67 4.67 0 0 1 4.667 0h4.666v9.333H4.667A4.67 4.67 0 0 1 0 4.667" filter="url(#c)" transform="translate(9 9)"/><path fill="#FF7262" d="M9.333 0H14a4.67 4.67 0 0 1 4.667 4.667A4.67 4.67 0 0 1 14 9.333H9.333z" filter="url(#d)" transform="translate(9 9)"/><path fill="#1ABCFE" d="M18.667 14A4.67 4.67 0 0 1 14 18.667 4.67 4.67 0 0 1 9.333 14 4.67 4.67 0 0 1 14 9.333 4.67 4.67 0 0 1 18.667 14" filter="url(#e)" transform="translate(9 9)"/></g><path fill="#0ACF83" d="M13.667 37a4.67 4.67 0 0 0 4.666-4.667v-4.666h-4.666A4.67 4.67 0 0 0 9 32.333 4.67 4.67 0 0 0 13.667 37"/><path fill="#A259FF" d="M9 23a4.67 4.67 0 0 1 4.667-4.667h4.666v9.334h-4.666A4.67 4.67 0 0 1 9 23"/><path fill="#F24E1E" d="M9 13.667A4.67 4.67 0 0 1 13.667 9h4.666v9.333h-4.666A4.67 4.67 0 0 1 9 13.667"/><path fill="#FF7262" d="M18.333 9H23a4.67 4.67 0 0 1 4.667 4.667A4.67 4.67 0 0 1 23 18.333h-4.667z"/><path fill="#1ABCFE" d="M27.667 23A4.67 4.67 0 0 1 23 27.667 4.67 4.67 0 0 1 18.333 23 4.67 4.67 0 0 1 23 18.333 4.67 4.67 0 0 1 27.667 23"/></g></svg>