<svg xmlns="http://www.w3.org/2000/svg" width="53" height="45"><defs><filter id="a" width="181.2%" height="294.1%" x="-40.6%" y="-97.1%" filterUnits="objectBoundingBox"><feGaussianBlur in="SourceGraphic" stdDeviation="4"/></filter><filter id="b" width="253.5%" height="223%" x="-76.8%" y="-61.5%" filterUnits="objectBoundingBox"><feGaussianBlur in="SourceGraphic" stdDeviation="4"/></filter><filter id="c" width="259.6%" height="280.1%" x="-79.8%" y="-90.1%" filterUnits="objectBoundingBox"><feGaussianBlur in="SourceGraphic" stdDeviation="4"/></filter><filter id="d" width="262.5%" height="371.3%" x="-81.2%" y="-135.7%" filterUnits="objectBoundingBox"><feGaussianBlur in="SourceGraphic" stdDeviation="4"/></filter></defs><g fill="none"><g opacity=".64"><path fill="#FCB400" d="M14.946.354 2.467 5.517c-.694.287-.687 1.273.012 1.55l12.53 4.969a4.65 4.65 0 0 0 3.428 0l12.531-4.97c.698-.276.706-1.262.012-1.549L18.5.353a4.65 4.65 0 0 0-3.555 0" filter="url(#a)" transform="translate(10 9)"/><path fill="#18BFFF" d="M17.835 14.75v12.413c0 .59.596.995 1.144.777l13.964-5.42a.84.84 0 0 0 .527-.777V9.33a.836.836 0 0 0-1.144-.778l-13.963 5.42a.84.84 0 0 0-.528.777" filter="url(#b)" transform="translate(10 9)"/><path fill="#F82B60" d="m14.575 15.39-4.144 2-.421.204-8.748 4.192C.708 22.053 0 21.649 0 21.033V9.382c0-.223.114-.416.268-.56a1 1 0 0 1 .211-.16.9.9 0 0 1 .76-.058l13.266 5.256c.674.268.727 1.212.07 1.53" filter="url(#c)" transform="translate(10 9)"/><path fill="#000" fill-opacity=".25" d="m14.575 15.39-4.144 2L.268 8.823a1 1 0 0 1 .211-.16.9.9 0 0 1 .76-.058l13.266 5.256c.674.268.727 1.212.07 1.53" filter="url(#d)" transform="translate(10 9)"/></g><path fill="#FCB400" d="m24.946 9.354-12.479 5.163c-.694.287-.687 1.273.012 1.55l12.53 4.969a4.65 4.65 0 0 0 3.428 0l12.531-4.97c.698-.276.706-1.262.012-1.549L28.5 9.353a4.65 4.65 0 0 0-3.555 0"/><path fill="#18BFFF" d="M27.835 23.75v12.413c0 .59.596.995 1.144.777l13.964-5.42a.84.84 0 0 0 .527-.777V18.33a.836.836 0 0 0-1.144-.778l-13.963 5.42a.84.84 0 0 0-.528.777"/><path fill="#F82B60" d="m24.575 24.39-4.144 2-.421.204-8.748 4.192c-.554.267-1.262-.137-1.262-.753V18.382c0-.223.114-.416.268-.56a1 1 0 0 1 .211-.16.9.9 0 0 1 .76-.058l13.266 5.256c.674.268.727 1.212.07 1.53"/><path fill="#000" fill-opacity=".25" d="m24.575 24.39-4.144 2-10.163-8.568a1 1 0 0 1 .211-.16.9.9 0 0 1 .76-.058l13.266 5.256c.674.268.727 1.212.07 1.53"/></g></svg>