<svg xmlns="http://www.w3.org/2000/svg" width="426" height="426" fill="none" viewBox="0 0 426 426"><path fill="#fff" fill-rule="evenodd" d="M151.418 82.978c-41.123-1.466-71.595 8.578-79.183 29.529-13.11 36.021 46.214 90.686 132.525 122.088 86.296 31.409 166.886 27.682 179.997-8.34 7.625-20.949-9.269-48.208-41.698-73.526a31.5 31.5 0 0 1-10.081 4.628c-15.437 4.079-42.995 3.609-94.589-15.157-51.585-18.789-72.998-36.142-82.201-49.19a31.7 31.7 0 0 1-4.748-10.024zm85.989 110.431a16.627 16.627 0 0 1-32.423-4.871 16.6 16.6 0 0 1 1.19-6.51 16.63 16.63 0 0 1 21.213-9.668 16.64 16.64 0 0 1 9.322 8.468 16.65 16.65 0 0 1 .698 12.581m-93.735-34.142a16.64 16.64 0 0 0 12.968-.262 16.62 16.62 0 0 0 8.835-9.496 16.6 16.6 0 0 0-.673-12.954 16.62 16.62 0 0 0-9.772-8.529 16.63 16.63 0 0 0-11.373 31.248zm177.586 46.93a16.62 16.62 0 0 1-14.9 10.933 16.628 16.628 0 0 1-16.363-22.299 16.637 16.637 0 0 1 21.315-9.949 16.63 16.63 0 0 1 9.948 21.315" clip-rule="evenodd"/><path fill="#fff" d="M199.383 285.743a12.475 12.475 0 0 0-7.597-15.569 12.47 12.47 0 0 0-15.828 7.043l-33.168 91.062a12.47 12.47 0 0 0 3.294 13.465 12.48 12.48 0 0 0 13.702 2.108 12.48 12.48 0 0 0 6.45-7.04zM175.679 76.93a78.66 78.66 0 0 1 93.071-31.38l8.479 3.073a78.656 78.656 0 0 1 51.109 83.871 7 7 0 0 1-1.761.748c-8.108 2.13-29.828 3.634-79.676-14.496-49.84-18.153-65.504-33.252-70.353-40.11a7 7 0 0 1-.869-1.705m-64.001 157.896a12.475 12.475 0 0 0-18.442-13.834 12.48 12.48 0 0 0-5.73 7.639L73.071 285.03a12.473 12.473 0 1 0 24.157 6.203zm180.833 53.893a12.47 12.47 0 0 1 7.064 11.93 12.5 12.5 0 0 1-1.21 4.716l-25.189 52.497a12.47 12.47 0 0 1-7.11 6.375 12.48 12.48 0 0 1-15.389-17.167l25.195-52.482a12.47 12.47 0 0 1 11.922-7.074c1.637.088 3.239.498 4.717 1.205" opacity="0.5"/></svg>