<svg xmlns="http://www.w3.org/2000/svg" width="112" height="112" preserveAspectRatio="none" style="width:100%;height:100%" viewBox="0 0 112 112"><defs><svg xmlns="http://www.w3.org/2000/svg" id="i" width="112" height="112" fill="none" viewBox="0 0 112 112"><g clip-path="url(#a)"><g filter="url(#b)"><path fill="#171923" fill-opacity="0.2" fill-rule="evenodd" d="M14 46.667A4.667 4.667 0 0 1 18.667 42h74.666a4.667 4.667 0 1 1 0 9.333H18.667A4.667 4.667 0 0 1 14 46.667m0 18.666a4.667 4.667 0 0 1 4.667-4.666h74.666a4.667 4.667 0 1 1 0 9.333H18.667A4.667 4.667 0 0 1 14 65.333" clip-rule="evenodd"/><path stroke="url(&quot;#c&quot;)" stroke-opacity="0.09" stroke-width="8.43556px" d="M18.218 46.667c0-.248.2-.45.449-.45h74.666a.449.449 0 1 1 0 .899H18.667a.45.45 0 0 1-.45-.45Zm0 18.666c0-.248.2-.449.449-.449h74.666a.449.449 0 0 1 0 .898H18.667a.45.45 0 0 1-.45-.449Z"/></g><g filter="url(#d)"><path fill="url(&quot;#e&quot;)" fill-rule="evenodd" d="M52.7 10.7a4.667 4.667 0 0 1 6.6 0l14 14a4.667 4.667 0 1 1-6.6 6.6l-7.872-7.872a4 4 0 0 0-5.656 0L45.3 31.3a4.667 4.667 0 0 1-6.6-6.6zm-14 70a4.667 4.667 0 0 1 6.6 0l7.872 7.872a4 4 0 0 0 5.656 0L66.7 80.7a4.667 4.667 0 1 1 6.6 6.6l-14 14a4.67 4.67 0 0 1-6.6 0l-14-14a4.667 4.667 0 0 1 0-6.6" clip-rule="evenodd"/></g><g filter="url(#f)"><path fill="url(&quot;#g&quot;)" fill-rule="evenodd" d="M52.7 10.7a4.667 4.667 0 0 1 6.6 0l14 14a4.667 4.667 0 0 1-6.6 6.6l-7.872-7.872a4 4 0 0 0-5.656 0L45.3 31.3a4.667 4.667 0 0 1-6.6-6.6zm-14 70a4.667 4.667 0 0 1 6.6 0l7.872 7.872a4 4 0 0 0 5.657 0L66.7 80.7a4.667 4.667 0 1 1 6.6 6.6l-14 14a4.67 4.67 0 0 1-6.6 0l-14-14a4.667 4.667 0 0 1 0-6.6" clip-rule="evenodd"/></g><path stroke="url(&quot;#h&quot;)" stroke-opacity="0.5" stroke-width="1.2449px" d="M59.74 10.26a5.29 5.29 0 0 0-7.48 0l-14 14a5.29 5.29 0 1 0 7.48 7.48l7.872-7.872a3.377 3.377 0 0 1 4.776 0l7.872 7.872a5.29 5.29 0 1 0 7.48-7.48zm-14 70a5.29 5.29 0 1 0-7.48 7.48l14 14a5.29 5.29 0 0 0 7.48 0l14-14a5.29 5.29 0 0 0-7.48-7.48l-7.872 7.872a3.377 3.377 0 0 1-4.776 0z"/></g><defs><linearGradient id="c" x1="56" x2="56" y1="42" y2="70" gradientUnits="userSpaceOnUse"><stop stop-color="#fff"/><stop offset="1" stop-color="#fff" stop-opacity="0"/></linearGradient><linearGradient id="e" x1="45.4071" x2="93.1826" y1="91.188" y2="78.6684" gradientUnits="userSpaceOnUse"><stop stop-color="#4E49AC"/><stop offset="1" stop-color="#5959BF"/></linearGradient><linearGradient id="g" x1="45.4072" x2="93.1826" y1="91.188" y2="78.6684" gradientUnits="userSpaceOnUse"><stop stop-color="#4E49AC"/><stop offset="1" stop-color="#5959BF"/></linearGradient><linearGradient id="h" x1="56" x2="56" y1="9.33325" y2="102.667" gradientUnits="userSpaceOnUse"><stop stop-color="#fff"/><stop offset="1" stop-color="#fff" stop-opacity="0"/></linearGradient><filter id="b" width="93.9592" height="37.9592" x="9.02041" y="37.0204" color-interpolation-filters="sRGB" filterUnits="userSpaceOnUse"><feFlood flood-opacity="0" result="BackgroundImageFix"/><feGaussianBlur in="BackgroundImageFix" stdDeviation="2.4898"/><feComposite in2="SourceAlpha" operator="in" result="effect1_backgroundBlur_10_131"/><feBlend in="SourceGraphic" in2="effect1_backgroundBlur_10_131" result="shape"/></filter><filter id="d" width="57.2517" height="113.252" x="27.3741" y="-0.625933" color-interpolation-filters="sRGB" filterUnits="userSpaceOnUse"><feFlood flood-opacity="0" result="BackgroundImageFix"/><feBlend in="SourceGraphic" in2="BackgroundImageFix" result="shape"/><feGaussianBlur result="effect1_foregroundBlur_10_131" stdDeviation="4.97959"/></filter><filter id="f" width="39.8231" height="100.803" x="36.0885" y="8.08838" color-interpolation-filters="sRGB" filterUnits="userSpaceOnUse"><feFlood flood-opacity="0" result="BackgroundImageFix"/><feBlend in="SourceGraphic" in2="BackgroundImageFix" result="shape"/><feColorMatrix in="SourceAlpha" result="hardAlpha" values="0 0 0 0 0 0 0 0 0 0 0 0 0 0 0 0 0 0 127 0"/><feOffset dy="4.97959"/><feGaussianBlur stdDeviation="7.46939"/><feComposite in2="hardAlpha" k2="-1" k3="1" operator="arithmetic"/><feColorMatrix values="0 0 0 0 1 0 0 0 0 1 0 0 0 0 1 0 0 0 0.18 0"/><feBlend in2="shape" result="effect1_innerShadow_10_131"/></filter><clipPath id="a"><path fill="#fff" d="M0 0h112v112H0z"/></clipPath></defs></svg></defs><use href="#i"/></svg>