<svg xmlns="http://www.w3.org/2000/svg" width="112" height="112" preserveAspectRatio="none" style="width:100%;height:100%" viewBox="0 0 112 112"><defs><svg xmlns="http://www.w3.org/2000/svg" id="i" width="112" height="112" fill="none"><g clip-path="url(#a)"><g filter="url(#b)"><path fill="url(&quot;#c&quot;)" d="M99.556 40.444h-24.89a6.22 6.22 0 0 0-6.221 6.223v46.666a6.22 6.22 0 0 0 6.222 6.223h24.889a6.22 6.22 0 0 0 6.222-6.223V46.667a6.22 6.22 0 0 0-6.222-6.223m-4 6.223a4 4 0 0 1 4 4V83.11a4 4 0 0 1-4 4h-16.89a4 4 0 0 1-4-4V50.667a4 4 0 0 1 4-4z"/></g><g filter="url(#d)"><path fill="url(&quot;#e&quot;)" d="M99.556 40.444h-24.89a6.22 6.22 0 0 0-6.221 6.223v46.666a6.22 6.22 0 0 0 6.222 6.223h24.889a6.22 6.22 0 0 0 6.222-6.223V46.667a6.22 6.22 0 0 0-6.222-6.223m-4 6.223a4 4 0 0 1 4 4V83.11a4 4 0 0 1-4 4h-16.89a4 4 0 0 1-4-4V50.667a4 4 0 0 1 4-4z"/></g><path stroke="url(&quot;#f&quot;)" stroke-opacity="0.5" stroke-width="1.245px" d="M99.556 39.822h-24.89a6.844 6.844 0 0 0-6.844 6.845v46.666a6.845 6.845 0 0 0 6.845 6.845h24.889a6.84 6.84 0 0 0 6.844-6.845V46.667a6.843 6.843 0 0 0-6.844-6.845Zm-.623 10.845V83.11a3.38 3.38 0 0 1-3.377 3.378h-16.89a3.38 3.38 0 0 1-3.377-3.378V50.667a3.38 3.38 0 0 1 3.378-3.378h16.889a3.38 3.38 0 0 1 3.377 3.378Z"/><g filter="url(#g)"><path fill="url(&quot;#h&quot;)" fill-opacity="0.6" d="M87.111 12.444H12.444a6.22 6.22 0 0 0-6.222 6.223v49.778a6.22 6.22 0 0 0 6.222 6.222h24.89v6.222h-8.339A3.734 3.734 0 0 0 24.89 84a3.734 3.734 0 0 0 4.107 3.111h32.977V85.96h.25V68.445H12.443V18.667H87.11v15.555h6.222V18.667a6.22 6.22 0 0 0-6.222-6.223Z"/></g></g><defs><linearGradient id="c" x1="76.518" x2="120.111" y1="92.286" y2="74.249" gradientUnits="userSpaceOnUse"><stop stop-color="#4E49AC"/><stop offset="1" stop-color="#5959BF"/></linearGradient><linearGradient id="e" x1="76.518" x2="120.111" y1="92.286" y2="74.249" gradientUnits="userSpaceOnUse"><stop stop-color="#4E49AC"/><stop offset="1" stop-color="#5959BF"/></linearGradient><linearGradient id="f" x1="87.111" x2="87.111" y1="40.444" y2="99.556" gradientUnits="userSpaceOnUse"><stop stop-color="#fff"/><stop offset="1" stop-color="#fff" stop-opacity="0"/></linearGradient><linearGradient id="h" x1="49.778" x2="49.778" y1="12.444" y2="87.135" gradientUnits="userSpaceOnUse"><stop stop-color="#41434B"/><stop offset="1" stop-color="#41434B" stop-opacity="0"/></linearGradient><filter id="b" width="57.252" height="79.029" x="58.485" y="30.485" color-interpolation-filters="sRGB" filterUnits="userSpaceOnUse"><feFlood flood-opacity="0" result="BackgroundImageFix"/><feBlend in="SourceGraphic" in2="BackgroundImageFix" result="shape"/><feGaussianBlur result="effect1_foregroundBlur_10_115" stdDeviation="4.98"/></filter><filter id="d" width="39.823" height="66.58" x="67.2" y="39.2" color-interpolation-filters="sRGB" filterUnits="userSpaceOnUse"><feFlood flood-opacity="0" result="BackgroundImageFix"/><feBlend in="SourceGraphic" in2="BackgroundImageFix" result="shape"/><feColorMatrix in="SourceAlpha" result="hardAlpha" values="0 0 0 0 0 0 0 0 0 0 0 0 0 0 0 0 0 0 127 0"/><feOffset dy="4.98"/><feGaussianBlur stdDeviation="7.469"/><feComposite in2="hardAlpha" k2="-1" k3="1" operator="arithmetic"/><feColorMatrix values="0 0 0 0 1 0 0 0 0 1 0 0 0 0 1 0 0 0 0.18 0"/><feBlend in2="shape" result="effect1_innerShadow_10_115"/></filter><filter id="g" width="97.07" height="84.65" x="1.243" y="7.465" color-interpolation-filters="sRGB" filterUnits="userSpaceOnUse"><feFlood flood-opacity="0" result="BackgroundImageFix"/><feGaussianBlur in="BackgroundImageFix" stdDeviation="2.49"/><feComposite in2="SourceAlpha" operator="in" result="effect1_backgroundBlur_10_115"/><feBlend in="SourceGraphic" in2="effect1_backgroundBlur_10_115" result="shape"/></filter><clipPath id="a"><path fill="#fff" d="M0 0h112v112H0z"/></clipPath></defs></svg></defs><use href="#i"/></svg>