<svg xmlns="http://www.w3.org/2000/svg" width="120" height="112" preserveAspectRatio="none" style="width:100%;height:100%" viewBox="0 0 120 112"><defs><svg xmlns="http://www.w3.org/2000/svg" id="h" width="120" height="112" fill="none"><g filter="url(#a)"><path fill="#171923" fill-opacity="0.2" d="M108.128 55.564c0 29.03-23.534 52.564-52.564 52.564S3 84.594 3 55.564 26.534 3 55.564 3c13.52 0 25.847 5.104 35.16 13.49a53 53 0 0 1 8.264 9.445 52.3 52.3 0 0 1 6.88 14.334 52.6 52.6 0 0 1 2.26 15.295"/><path stroke="url(&quot;#b&quot;)" stroke-opacity="0.09" stroke-width="7.77px" d="M102.234 41.677a48.7 48.7 0 0 1 2.009 13.887c0 26.885-21.794 48.679-48.679 48.679-26.884 0-48.679-21.794-48.679-48.679 0-26.884 21.794-48.679 48.68-48.679 12.522 0 23.932 4.724 32.56 12.492a49 49 0 0 1 7.49 8.51z"/></g><g filter="url(#c)"><path fill="url(&quot;#d&quot;)" d="M59.047 59.767 98.733 19.86q1.85-1.86 4.709-1.86t4.708 1.86q1.85 1.86 1.85 4.735t-1.85 4.734L63.756 73.971q-2.02 2.03-4.709 2.029-2.69 0-4.708-2.03l-17.49-17.585Q35.001 54.525 35 51.65t1.85-4.734q1.85-1.86 4.708-1.86 2.86 0 4.709 1.86l12.78 12.85Z"/></g><g filter="url(#e)"><path fill="url(&quot;#f&quot;)" d="M59.047 59.767 98.733 19.86q1.85-1.86 4.709-1.86t4.708 1.86q1.85 1.86 1.85 4.735t-1.85 4.734L63.756 73.971q-2.02 2.03-4.709 2.029-2.69 0-4.708-2.03l-17.49-17.585Q35.001 54.525 35 51.65t1.85-4.735q1.85-1.86 4.708-1.86 2.86 0 4.709 1.86z"/></g><path stroke="url(&quot;#g&quot;)" stroke-opacity="0.5" stroke-width="1.147px" d="m98.327 19.456-39.28 39.498L46.673 46.51c-1.35-1.358-3.071-2.029-5.115-2.029s-3.764.67-5.115 2.03c-1.35 1.357-2.016 3.086-2.016 5.138s.665 3.78 2.016 5.14l17.489 17.585c1.445 1.454 3.158 2.198 5.115 2.198s3.67-.744 5.115-2.198l44.395-44.641c1.351-1.359 2.016-3.087 2.016-5.14 0-2.051-.665-3.78-2.016-5.138s-3.072-2.03-5.115-2.03-3.764.671-5.115 2.03Z"/><defs><linearGradient id="b" x1="55.564" x2="55.564" y1="3" y2="108.128" gradientUnits="userSpaceOnUse"><stop stop-color="#fff"/><stop offset="1" stop-color="#fff" stop-opacity="0"/></linearGradient><linearGradient id="d" x1="51.22" x2="110.934" y1="68.867" y2="18.28" gradientUnits="userSpaceOnUse"><stop stop-color="#4E49AC"/><stop offset="1" stop-color="#5959BF"/></linearGradient><linearGradient id="f" x1="51.22" x2="110.934" y1="68.867" y2="18.28" gradientUnits="userSpaceOnUse"><stop stop-color="#4E49AC"/><stop offset="1" stop-color="#5959BF"/></linearGradient><linearGradient id="g" x1="72.5" x2="72.5" y1="18" y2="76" gradientUnits="userSpaceOnUse"><stop stop-color="#fff"/><stop offset="1" stop-color="#fff" stop-opacity="0"/></linearGradient><filter id="a" width="114.302" height="114.302" x="-1.587" y="-1.587" color-interpolation-filters="sRGB" filterUnits="userSpaceOnUse"><feFlood flood-opacity="0" result="BackgroundImageFix"/><feGaussianBlur in="BackgroundImageFix" stdDeviation="2.293"/><feComposite in2="SourceAlpha" operator="in" result="effect1_backgroundBlur_10_2"/><feBlend in="SourceGraphic" in2="effect1_backgroundBlur_10_2" result="shape"/></filter><filter id="c" width="93.348" height="76.348" x="25.826" y="8.826" color-interpolation-filters="sRGB" filterUnits="userSpaceOnUse"><feFlood flood-opacity="0" result="BackgroundImageFix"/><feBlend in="SourceGraphic" in2="BackgroundImageFix" result="shape"/><feGaussianBlur result="effect1_foregroundBlur_10_2" stdDeviation="4.587"/></filter><filter id="e" width="77.293" height="64.88" x="33.853" y="16.853" color-interpolation-filters="sRGB" filterUnits="userSpaceOnUse"><feFlood flood-opacity="0" result="BackgroundImageFix"/><feBlend in="SourceGraphic" in2="BackgroundImageFix" result="shape"/><feColorMatrix in="SourceAlpha" result="hardAlpha" values="0 0 0 0 0 0 0 0 0 0 0 0 0 0 0 0 0 0 127 0"/><feOffset dy="4.587"/><feGaussianBlur stdDeviation="6.88"/><feComposite in2="hardAlpha" k2="-1" k3="1" operator="arithmetic"/><feColorMatrix values="0 0 0 0 1 0 0 0 0 1 0 0 0 0 1 0 0 0 0.18 0"/><feBlend in2="shape" result="effect1_innerShadow_10_2"/></filter></defs></svg></defs><use href="#h"/></svg>