<svg xmlns="http://www.w3.org/2000/svg" width="112" height="112" preserveAspectRatio="none" style="width:100%;height:100%" viewBox="0 0 112 112"><defs><svg xmlns="http://www.w3.org/2000/svg" id="i" width="112" height="112" fill="none" viewBox="0 0 112 112"><g clip-path="url(#a)"><g filter="url(#b)"><path fill="#171923" fill-opacity="0.2" d="M90.3 46.853A34.95 34.95 0 0 0 56 18.667c-13.487 0-25.2 7.653-31.033 18.853A27.97 27.97 0 0 0 0 65.333c0 15.447 12.553 28 28 28h60.667C101.547 93.333 112 82.88 112 70c0-12.32-9.567-22.307-21.7-23.147M88.667 84H28C17.687 84 9.333 75.647 9.333 65.333c0-9.566 7.14-17.546 16.614-18.526l4.993-.514 2.333-4.433A25.52 25.52 0 0 1 56 28c12.227 0 22.773 8.68 25.153 20.673l1.4 7 7.14.514A13.907 13.907 0 0 1 102.667 70c0 7.7-6.3 14-14 14"/><path stroke="url(&quot;#c&quot;)" stroke-opacity="0.09" stroke-width="8.43556px" d="M56.002 23.782a29.74 29.74 0 0 0-26.47 16.131L28.26 42.33l-2.745.282h-.002C13.866 43.816 5.116 53.63 5.116 65.333c0 12.643 10.241 22.885 22.884 22.885h60.667c10.03 0 18.217-8.189 18.217-18.218v-.019A18.123 18.123 0 0 0 89.986 51.98h-.01l-3.917-.282-.769-3.845v-.002c-2.771-13.96-15.045-24.067-29.288-24.068Zm0 0H56V28l.004-4.218zm30.16 23.888.625 3.168 3.222.223c9.965.69 17.773 8.878 17.773 18.939 0 10.55-8.565 19.115-19.115 19.115H28c-13.117 0-23.782-10.664-23.782-23.782a23.754 23.754 0 0 1 21.202-23.62l2.244-.242 1.043-2.003C33.845 29.606 44.15 22.884 56 22.884h.001A30.735 30.735 0 0 1 86.162 47.67Z"/></g><g filter="url(#d)"><path fill="url(&quot;#e&quot;)" d="M40.763 69.857h-6.074c-3.569 0-5.351-4.318-2.822-6.835L53.178 41.81a4 4 0 0 1 5.644 0l21.311 21.213c2.53 2.517.747 6.835-2.822 6.835h-6.074a4 4 0 0 0-4 4V89a4 4 0 0 1-4 4H48.763a4 4 0 0 1-4-4V73.857a4 4 0 0 0-4-4"/></g><g filter="url(#f)"><path fill="url(&quot;#g&quot;)" d="M40.763 69.857h-6.074c-3.569 0-5.351-4.318-2.822-6.835L53.178 41.81a4 4 0 0 1 5.644 0l21.311 21.213c2.53 2.517.747 6.835-2.822 6.835h-6.074a4 4 0 0 0-4 4V89a4 4 0 0 1-4 4H48.763a4 4 0 0 1-4-4V73.857a4 4 0 0 0-4-4"/></g><path stroke="url(&quot;#h&quot;)" stroke-opacity="0.5" stroke-width="1.2449px" d="M34.689 70.48h6.074a3.38 3.38 0 0 1 3.377 3.377V89a4.62 4.62 0 0 0 4.623 4.622h14.474A4.62 4.62 0 0 0 67.86 89V73.857a3.38 3.38 0 0 1 3.377-3.377h6.075c4.123 0 6.183-4.99 3.26-7.899l-21.31-21.213a4.62 4.62 0 0 0-6.522 0L31.428 62.58c-2.923 2.909-.863 7.899 3.26 7.899Z"/></g><defs><linearGradient id="c" x1="56" x2="56" y1="18.6666" y2="93.3333" gradientUnits="userSpaceOnUse"><stop stop-color="#fff"/><stop offset="1" stop-color="#fff" stop-opacity="0"/></linearGradient><linearGradient id="e" x1="38.4082" x2="92.5602" y1="86.3588" y2="45.6268" gradientUnits="userSpaceOnUse"><stop stop-color="#4E49AC"/><stop offset="1" stop-color="#5959BF"/></linearGradient><linearGradient id="g" x1="38.4082" x2="92.5602" y1="86.3588" y2="45.6268" gradientUnits="userSpaceOnUse"><stop stop-color="#4E49AC"/><stop offset="1" stop-color="#5959BF"/></linearGradient><linearGradient id="h" x1="56" x2="56" y1="39" y2="93" gradientUnits="userSpaceOnUse"><stop stop-color="#fff"/><stop offset="1" stop-color="#fff" stop-opacity="0"/></linearGradient><filter id="b" width="121.959" height="84.6258" x="-4.97959" y="13.687" color-interpolation-filters="sRGB" filterUnits="userSpaceOnUse"><feFlood flood-opacity="0" result="BackgroundImageFix"/><feGaussianBlur in="BackgroundImageFix" stdDeviation="2.4898"/><feComposite in2="SourceAlpha" operator="in" result="effect1_backgroundBlur_10_71"/><feBlend in="SourceGraphic" in2="effect1_backgroundBlur_10_71" result="shape"/></filter><filter id="d" width="70.5575" height="72.2746" x="20.7212" y="30.6846" color-interpolation-filters="sRGB" filterUnits="userSpaceOnUse"><feFlood flood-opacity="0" result="BackgroundImageFix"/><feBlend in="SourceGraphic" in2="BackgroundImageFix" result="shape"/><feGaussianBlur result="effect1_foregroundBlur_10_71" stdDeviation="4.97959"/></filter><filter id="f" width="53.1338" height="59.8255" x="29.4331" y="39.3989" color-interpolation-filters="sRGB" filterUnits="userSpaceOnUse"><feFlood flood-opacity="0" result="BackgroundImageFix"/><feBlend in="SourceGraphic" in2="BackgroundImageFix" result="shape"/><feColorMatrix in="SourceAlpha" result="hardAlpha" values="0 0 0 0 0 0 0 0 0 0 0 0 0 0 0 0 0 0 127 0"/><feOffset dy="4.97959"/><feGaussianBlur stdDeviation="7.46939"/><feComposite in2="hardAlpha" k2="-1" k3="1" operator="arithmetic"/><feColorMatrix values="0 0 0 0 1 0 0 0 0 1 0 0 0 0 1 0 0 0 0.18 0"/><feBlend in2="shape" result="effect1_innerShadow_10_71"/></filter><clipPath id="a"><path fill="#fff" d="M0 0h112v112H0z"/></clipPath></defs></svg></defs><use href="#i"/></svg>