<svg xmlns="http://www.w3.org/2000/svg" width="2478" height="426" fill="none" viewBox="0 0 2478 426"><path fill="#fff" d="M555.614 329V96.273h56.25v93.409h91.704v-93.41h56.137V329h-56.137v-93.523h-91.704V329zm320.852 3.295q-27.5 0-47.273-11.25-19.66-11.363-30.341-31.59-10.568-20.341-10.568-47.16 0-26.931 10.568-47.159 10.682-20.34 30.341-31.591 19.773-11.363 47.273-11.363t47.159 11.363q19.773 11.25 30.341 31.591 10.682 20.228 10.682 47.159 0 26.819-10.682 47.16-10.568 20.227-30.341 31.59-19.66 11.25-47.159 11.25m.341-41.931q9.999 0 16.932-6.137t10.568-17.045q3.75-10.91 3.75-25.227 0-14.546-3.75-25.455-3.636-10.91-10.568-17.045-6.933-6.137-16.932-6.137-10.34 0-17.5 6.137-7.046 6.135-10.796 17.045-3.636 10.91-3.636 25.455 0 14.317 3.636 25.227 3.75 10.909 10.796 17.045 7.16 6.137 17.5 6.137m116.307 104.091v-240h54.996v29.886h1.71q3.405-7.955 9.66-15.341c4.24-4.924 9.62-8.939 16.13-12.045q9.885-4.773 23.64-4.773c12.12 0 23.45 3.182 33.98 9.545q15.9 9.546 25.68 29.432c6.51 13.258 9.77 30.152 9.77 50.682 0 19.773-3.14 36.326-9.43 49.659q-9.315 20-25.23 30c-10.53 6.667-22.23 10-35.11 10-8.79 0-16.4-1.439-22.84-4.318s-11.86-6.667-16.25-11.364c-4.32-4.697-7.65-9.735-10-15.113h-1.14v93.75zm54.436-152.728q0 14.091 3.75 24.546c2.57 6.969 6.25 12.386 11.02 16.25 4.85 3.788 10.64 5.682 17.38 5.682 6.82 0 12.62-1.894 17.39-5.682q7.155-5.796 10.8-16.25 3.75-10.455 3.75-24.546t-3.75-24.432q-3.645-10.34-10.8-16.022c-4.7-3.788-10.49-5.682-17.39-5.682-6.81 0-12.61 1.856-17.38 5.568s-8.45 9.015-11.02 15.909q-3.75 10.341-3.75 24.659m150.25 152.728v-240h55v29.886h1.71c2.27-5.303 5.49-10.417 9.65-15.341q6.375-7.386 16.14-12.045 9.885-4.773 23.64-4.773c12.12 0 23.44 3.182 33.97 9.545 10.61 6.364 19.17 16.175 25.69 29.432 6.51 13.258 9.77 30.152 9.77 50.682 0 19.773-3.14 36.326-9.43 49.659q-9.315 20-25.23 30c-10.53 6.667-22.23 10-35.11 10-8.79 0-16.4-1.439-22.84-4.318s-11.86-6.667-16.25-11.364c-4.32-4.697-7.66-9.735-10-15.113h-1.14v93.75zm54.43-152.728q0 14.091 3.75 24.546c2.58 6.969 6.25 12.386 11.03 16.25 4.84 3.788 10.64 5.682 17.38 5.682 6.82 0 12.62-1.894 17.39-5.682 4.77-3.864 8.37-9.281 10.79-16.25q3.75-10.455 3.75-24.546t-3.75-24.432c-2.42-6.893-6.02-12.234-10.79-16.022-4.7-3.788-10.49-5.682-17.39-5.682-6.82 0-12.61 1.856-17.38 5.568-4.78 3.712-8.45 9.015-11.03 15.909q-3.75 10.341-3.75 24.659m302.65-33.977-51.03 1.364q-.795-5.455-4.32-9.659c-2.34-2.879-5.41-5.114-9.2-6.705-3.71-1.667-8.03-2.5-12.95-2.5-6.44 0-11.94 1.288-16.48 3.864-4.47 2.575-6.67 6.06-6.59 10.454-.08 3.409 1.28 6.364 4.09 8.864 2.88 2.5 7.99 4.507 15.34 6.023l33.64 6.363c17.42 3.334 30.37 8.864 38.86 16.591 8.56 7.727 12.88 17.955 12.95 30.682q-.105 17.955-10.68 31.25c-6.97 8.864-16.51 15.757-28.63 20.682-12.13 4.848-25.99 7.272-41.6 7.272-24.92 0-44.58-5.113-58.97-15.34-14.32-10.303-22.5-24.091-24.55-41.364l54.89-1.364c1.21 6.364 4.35 11.212 9.43 14.546s11.55 5 19.43 5c7.12 0 12.92-1.326 17.39-3.978 4.47-2.651 6.74-6.174 6.82-10.568-.08-3.939-1.82-7.083-5.23-9.432q-5.115-3.636-16.02-5.681l-30.46-5.796q-26.25-4.773-39.09-17.613c-8.56-8.637-12.8-19.622-12.73-32.955-.07-11.667 3.03-21.629 9.32-29.886q9.435-12.5 26.82-19.091c11.59-4.394 25.26-6.591 41.02-6.591 23.64 0 42.28 4.962 55.91 14.886q20.46 14.773 22.62 40.682m113.15 124.545c-18.41 0-34.21-3.787-47.39-11.363-13.1-7.576-23.18-18.106-30.23-31.591q-10.56-20.341-10.56-47.046 0-26.817 10.56-47.045c7.13-13.561 17.24-24.129 30.35-31.705 13.18-7.575 28.9-11.363 47.15-11.363 16.14 0 30.19 2.916 42.16 8.75 12.05 5.833 21.44 14.091 28.19 24.773 6.81 10.606 10.41 23.068 10.79 37.386h-51.93q-1.59-13.409-9.09-21.023-7.395-7.613-19.32-7.613c-6.44 0-12.08 1.818-16.93 5.454q-7.275 5.341-11.37 15.909c-2.65 6.97-3.97 15.606-3.97 25.909s1.32 19.015 3.97 26.137q4.095 10.568 11.37 16.022c4.85 3.561 10.49 5.341 16.93 5.341 5.15 0 9.7-1.098 13.64-3.295 4.01-2.197 7.31-5.417 9.88-9.659q3.87-6.477 4.89-15.682h51.93c-.53 14.394-4.13 26.97-10.79 37.727-6.6 10.758-15.88 19.129-27.85 25.114-11.89 5.909-26.02 8.863-42.38 8.863m190.94 0c-18.34 0-34.09-3.75-47.28-11.25-13.1-7.575-23.22-18.106-30.34-31.59-7.04-13.561-10.57-29.281-10.57-47.16 0-17.954 3.53-33.674 10.57-47.159 7.12-13.56 17.24-24.091 30.34-31.591 13.19-7.575 28.94-11.363 47.28-11.363 18.33 0 34.05 3.788 47.15 11.363 13.19 7.5 23.3 18.031 30.35 31.591q10.68 20.228 10.68 47.159 0 26.819-10.68 47.16c-7.05 13.484-17.16 24.015-30.35 31.59-13.1 7.5-28.82 11.25-47.15 11.25m.34-41.931c6.66 0 12.31-2.046 16.93-6.137s8.14-9.772 10.57-17.045q3.75-10.91 3.75-25.227 0-14.546-3.75-25.455c-2.43-7.273-5.95-12.955-10.57-17.045s-10.27-6.137-16.93-6.137c-6.9 0-12.73 2.046-17.5 6.137q-7.05 6.135-10.8 17.045-3.63 10.91-3.63 25.455 0 14.317 3.63 25.227 3.75 10.909 10.8 17.045c4.77 4.091 10.6 6.137 17.5 6.137m214.83-135.909v40.909h-110.12v-40.909zm-87.05-41.819h55.57v161.478q0 5.113 1.59 8.295 1.71 3.069 4.89 4.432c2.12.833 4.66 1.25 7.61 1.25 2.12 0 4.36-.189 6.7-.568q3.645-.683 5.46-1.137l8.41 40.114q-3.975 1.137-11.25 2.841-7.155 1.704-17.16 2.159c-13.03.606-24.21-.909-33.52-4.545-9.25-3.713-16.33-9.47-21.25-17.273q-7.275-11.705-7.05-29.432zm195 219.659c-18.41 0-34.2-3.787-47.39-11.363-13.1-7.576-23.18-18.106-30.22-31.591-7.05-13.561-10.57-29.243-10.57-47.046 0-17.878 3.52-33.56 10.57-47.045 7.12-13.561 17.23-24.129 30.34-31.705q19.77-11.363 47.16-11.363c16.13 0 30.19 2.916 42.16 8.75 12.04 5.833 21.44 14.091 28.18 24.773 6.82 10.606 10.41 23.068 10.79 37.386h-51.93q-1.59-13.409-9.09-21.023-7.38-7.613-19.32-7.613c-6.44 0-12.08 1.818-16.93 5.454-4.85 3.561-8.64 8.864-11.36 15.909-2.65 6.97-3.98 15.606-3.98 25.909s1.33 19.015 3.98 26.137c2.72 7.045 6.51 12.386 11.36 16.022 4.85 3.561 10.49 5.341 16.93 5.341 5.15 0 9.7-1.098 13.64-3.295 4.01-2.197 7.31-5.417 9.89-9.659 2.57-4.318 4.2-9.546 4.88-15.682h51.93c-.53 14.394-4.13 26.97-10.79 37.727q-9.885 16.137-27.84 25.114-17.85 8.863-42.39 8.863m165.03-102.84V329h-55.57V96.273h53.75V186.5h1.93q5.91-16.137 19.32-25.227c9.02-6.061 20.04-9.091 33.07-9.091q18.405 0 32.04 8.182c9.1 5.378 16.14 12.992 21.14 22.841q7.62 14.772 7.5 34.545V329h-55.57V228.659c.08-9.697-2.35-17.273-7.27-22.727s-11.86-8.182-20.8-8.182q-8.745 0-15.45 3.864c-4.39 2.5-7.84 6.098-10.34 10.795q-3.63 7.046-3.75 17.046"/><g clip-path="url(#a)"><mask id="c" width="425" height="425" x="0" y="0" maskUnits="userSpaceOnUse" style="mask-type:alpha"><rect width="425" height="425" fill="url(#b)" rx="212.5"/></mask><g mask="url(#c)"><rect width="425" height="425" fill="url(#d)" rx="212.5"/><g filter="url(#e)" opacity="0.5"><path fill="url(#f)" fill-rule="evenodd" d="M212.5 425C329.861 425 425 329.861 425 212.5 425 95.14 329.861 0 212.5 0 95.14 0 0 95.14 0 212.5 0 329.861 95.14 425 212.5 425m0-13.281c110.025 0 199.219-89.194 199.219-199.219S322.525 13.281 212.5 13.281 13.281 102.475 13.281 212.5 102.475 411.719 212.5 411.719" clip-rule="evenodd"/></g></g><path fill="#fff" fill-rule="evenodd" d="M161.382 104.33c-34.135-1.216-59.429 7.121-65.727 24.512-10.883 29.9 38.361 75.276 110.006 101.342 71.632 26.072 138.528 22.978 149.411-6.922 6.329-17.39-7.694-40.017-34.613-61.032a26.1 26.1 0 0 1-8.368 3.841c-12.813 3.386-35.689 2.995-78.516-12.582-42.82-15.596-60.594-30.001-68.234-40.831a26.3 26.3 0 0 1-3.941-8.321zm71.378 91.667a13.804 13.804 0 1 1-25.926-9.447 13.804 13.804 0 0 1 25.346-.996 13.82 13.82 0 0 1 .58 10.443m-77.808-28.341a13.8 13.8 0 0 0 10.765-.217 13.79 13.79 0 0 0 8.146-13.316 13.8 13.8 0 0 0-4.708-9.683 13.8 13.8 0 0 0-4.774-2.716 13.8 13.8 0 0 0-17.466 8.33 13.804 13.804 0 0 0 8.025 17.608zm147.411 38.956a13.82 13.82 0 0 1-7.136 7.793 13.81 13.81 0 0 1-18.35-6.671 13.81 13.81 0 0 1 6.671-18.35 13.806 13.806 0 0 1 18.815 17.228" clip-rule="evenodd"/><path fill="#fff" d="M201.197 272.641a10.353 10.353 0 0 0-19.445-7.077l-27.532 75.588a10.37 10.37 0 0 0 .346 7.919 10.37 10.37 0 0 0 5.843 5.355 10.36 10.36 0 0 0 13.274-6.19zM181.521 99.31a65.29 65.29 0 0 1 77.256-26.049l7.038 2.552a65.29 65.29 0 0 1 42.425 69.619 5.8 5.8 0 0 1-1.462.621c-6.731 1.768-24.76 3.016-66.137-12.033-41.371-15.069-54.374-27.602-58.399-33.294a5.7 5.7 0 0 1-.721-1.415m-53.126 131.067a10.356 10.356 0 0 0-7.462-12.604 10.36 10.36 0 0 0-12.604 7.461l-11.98 46.816a10.35 10.35 0 0 0 7.416 12.737 10.35 10.35 0 0 0 12.636-7.589zM278.5 275.112a10.35 10.35 0 0 1 5.864 9.903 10.4 10.4 0 0 1-1.004 3.914l-20.909 43.577a10.356 10.356 0 1 1-18.677-8.958l20.915-43.564a10.34 10.34 0 0 1 5.896-5.298 10.34 10.34 0 0 1 7.915.426" opacity="0.5"/></g><defs><linearGradient id="b" x1="0" x2="425" y1="0" y2="425" gradientUnits="userSpaceOnUse"><stop stop-color="#FF6363"/><stop offset="1" stop-color="#D72A2A"/></linearGradient><linearGradient id="d" x1="0" x2="425" y1="0" y2="425" gradientUnits="userSpaceOnUse"><stop stop-color="#AE55F4"/><stop offset="1" stop-color="#6A18BC"/></linearGradient><linearGradient id="f" x1="0" x2="425" y1="0" y2="425" gradientUnits="userSpaceOnUse"><stop stop-color="#fff"/><stop offset="1" stop-color="#fff" stop-opacity="0"/></linearGradient><clipPath id="a"><path fill="#fff" d="M0 0h425v425H0z"/></clipPath><filter id="e" width="449" height="449" x="-12" y="-12" color-interpolation-filters="sRGB" filterUnits="userSpaceOnUse"><feFlood flood-opacity="0" result="BackgroundImageFix"/><feBlend in="SourceGraphic" in2="BackgroundImageFix" result="shape"/><feGaussianBlur result="effect1_foregroundBlur_102_20" stdDeviation="6"/></filter></defs></svg>